<?xml version="1.0" encoding="UTF-8"?>
<svg width="182px" height="89px" viewBox="0 0 182 89" version="1.1" xmlns="http://www.w3.org/2000/svg" xmlns:xlink="http://www.w3.org/1999/xlink">
    <!-- Generator: Sketch 44.1 (41455) - http://www.bohemiancoding.com/sketch -->
    <title>logo</title>
    <desc>Created with Sketch.</desc>
    <defs></defs>
    <g id="Page-1" stroke="none" stroke-width="1" fill="none" fill-rule="evenodd">
        <g id="website" transform="translate(-168.000000, -266.000000)">
            <g id="intro">
                <g id="logo" transform="translate(161.000000, 261.000000)">
                    <path d="M17.3316358,23.6160618 C18.2343782,22.7390683 19.1568555,21.8451122 20.1081761,20.9567259 C19.1819036,22.2028465 18.368727,23.339343 17.5886947,24.4130524 C16.7987951,25.5077752 15.9742329,26.6617406 15.2673208,27.9835602 C14.5545894,29.2868981 13.9903754,30.8403715 13.7538103,32.3219436 C13.5013055,33.8090856 13.4785346,35.2830625 13.6804372,36.6431112 L13.746726,37.1578132 L13.8484363,37.6535272 C13.9205444,37.9813871 13.982532,38.3170953 14.0695677,38.6360941 C14.2560367,39.2654838 14.4361804,39.9047472 14.6833719,40.4948949 C14.9052624,41.107322 15.1845863,41.6726587 15.4616331,42.2506541 C15.600536,42.5392721 15.7624629,42.8063702 15.9152814,43.0863803 C16.070377,43.3636054 16.2257256,43.644375 16.4010621,43.9059033 C16.5731094,44.1717357 16.7466748,44.4393402 16.9215053,44.7089701 C17.1041791,44.969739 17.2946962,45.2254443 17.4854663,45.48596 C17.5816104,45.6153317 17.6782605,45.7452098 17.7754167,45.8755942 C17.87738,46.0004088 17.9798494,46.1257298 18.0825718,46.2515571 C18.2905466,46.5009331 18.4952323,46.7599297 18.7148457,47.0057613 C19.5867209,47.9951639 20.5716918,48.9491222 21.6593852,49.8729528 C21.4764584,49.7701643 21.2927726,49.6496536 21.1088337,49.5354723 C21.3889167,49.8575092 21.6958187,50.0580227 22.2000692,50.3924651 C22.7060908,50.7248821 23.4006054,51.1935065 24.51866,51.9616353 C25.0768018,52.3467124 25.7467744,52.8014122 26.5708305,53.3328237 C27.3958987,53.8627161 28.3775805,54.4695733 29.5917792,55.1116217 C30.1979931,55.4323927 30.8606283,55.7691136 31.5989138,56.084568 C31.9695746,56.2417888 32.3533919,56.4040731 32.7506188,56.5724335 C33.1488578,56.7425662 33.5713858,56.8732038 34.0047933,57.0339691 C35.7434834,57.6388009 37.7663046,58.1884409 40.1066543,58.5363014 L40.1031122,58.5973163 C40.7581571,58.6046583 40.754868,58.5000976 42.0561024,58.6795977 C40.9719512,58.5446562 39.8974144,58.3841441 38.8347691,58.1431228 C40.7844702,58.1816052 42.4604136,57.9281784 44.957377,57.6785492 C45.497049,57.7101959 45.6911083,57.7970344 45.754867,57.8914682 C47.8105796,57.6342438 49.8265695,57.17524 51.7876561,56.5531924 C52.4348577,56.5180012 53.0699148,56.4154659 53.7198995,56.3387543 C54.155584,56.1397598 54.4004985,55.9276003 54.6115095,55.7384796 C54.8210024,55.5463208 54.9915317,55.3597318 55.2592171,55.1569397 C55.5301916,54.9622492 55.8826356,54.7095819 56.4731628,54.4255211 C56.6204151,54.3533666 56.782089,54.2776677 56.9604616,54.1981712 C57.1370631,54.1136112 57.3288453,54.0219623 57.5378322,53.9222119 C57.9590951,53.7194198 58.4509481,53.5275142 59.0450174,53.2373772 C58.0529621,53.4763731 58.5741643,53.0793969 59.2327514,52.6295073 C59.8910855,52.1702504 60.6764309,51.5945335 60.3293001,51.6563079 C60.5868651,51.5752923 61.1288142,51.3005989 61.5771493,51.0823632 C62.1838692,50.5737374 62.9097571,49.9195367 63.6245126,49.1184953 C64.3342078,48.3096056 65.0315055,47.345014 65.559792,46.2854824 C66.0885846,45.2294951 66.4420406,44.0866693 66.5460281,43.0863803 C66.5860038,42.8428272 66.5796785,42.5977552 66.59157,42.3764814 C66.5930881,42.1526759 66.6102928,41.9470989 66.5870158,41.7556997 C66.5526063,41.374167 66.5090885,41.065042 66.4643056,40.8450341 C66.4643056,40.8450341 66.450643,41.0794729 66.4261009,41.4977157 C66.4182576,41.6015169 66.4094022,41.7164577 66.3997878,41.8420319 C66.3853662,41.9668465 66.357788,42.1005221 66.333246,42.2440716 C66.2775836,42.5293983 66.2315357,42.857005 66.1171748,43.1929664 C66.0645485,43.3618332 66.0098982,43.5380421 65.9524648,43.7213398 C65.8937663,43.9028653 65.8090076,44.0775551 65.7323454,44.2628782 C65.5843341,44.6390942 65.3793953,44.9986008 65.1676253,45.3712724 C64.7215673,46.0940831 64.1841724,46.8153748 63.5592358,47.4303335 C62.9421425,48.0556724 62.2709049,48.6220218 61.5806915,49.0972288 C61.242416,49.3473643 60.8882009,49.5557262 60.5509376,49.7706706 C60.2040598,49.9678929 59.8705916,50.1668874 59.5371234,50.3324629 C59.2049202,50.5010766 58.8863796,50.6613355 58.5754294,50.7939985 C58.2685273,50.9350162 57.9735167,51.0552737 57.6967229,51.159328 C57.4224592,51.2702181 57.1651473,51.3560439 56.9321244,51.4274389 C56.6996074,51.5008593 56.4918856,51.56314 56.313513,51.612762 C56.7522337,51.4031342 57.0980994,51.2443944 57.3581945,51.1071743 C57.6172776,50.9666629 57.7969152,50.8656466 57.9125411,50.7970366 C58.1425279,50.6577911 58.1149498,50.6463982 57.9603602,50.7076663 C57.8027345,50.7638708 57.5135431,50.8836219 57.2177735,51.0016009 C56.9182088,51.1102123 56.6097886,51.2119881 56.4195245,51.2573062 L56.2583566,51.5046569 C54.1163674,52.4041828 53.9574766,52.0084724 52.8705423,52.3436743 C52.8809157,52.3712702 52.9254456,52.3917773 52.9679514,52.4143097 L53.0850954,52.3145593 C53.2083117,52.3350664 53.1658058,52.400132 53.0653606,52.4793754 C53.0921797,52.5107689 53.0866135,52.5507703 53.0008428,52.6090003 C52.9160842,52.6697619 52.7488441,52.7447013 52.4485203,52.8322994 L52.5487126,52.75736 C51.666717,53.136361 50.0651587,53.5609331 49.3582466,53.6900517 L49.2714639,53.3961171 C48.5359615,53.8918311 45.6668193,54.307289 42.7832554,54.0523432 C41.342106,53.96753 39.911583,53.6824565 38.7229384,53.4287765 C38.1326642,53.2687708 37.5955223,53.1444625 37.1456691,53.0166098 C36.6980931,52.878377 36.3299624,52.7735631 36.0650601,52.7145737 C35.8069891,52.618874 35.5504362,52.4953253 35.2802206,52.3973471 C35.0112702,52.2960777 34.7332113,52.2031629 34.4468031,52.1160712 C34.1662142,52.0132827 33.880059,51.908722 33.5858074,51.810997 C33.2923149,51.7109934 32.988955,51.6223826 32.6909083,51.5044037 C31.4896131,51.0636284 30.243788,50.4922155 29.1376249,49.6891487 C28.2320993,49.088874 27.7078609,48.6516432 27.3840071,48.348088 C27.0586353,48.0468113 26.9399732,47.8673112 26.8721663,47.7341419 C26.7431308,47.4604612 26.8266244,47.3480521 26.0916281,46.5553654 C24.2084688,44.6251696 26.2608923,47.1870337 25.4398723,46.4859959 C24.7185386,45.6573586 24.0677948,44.8082142 23.4701834,43.9264104 C24.7458637,45.2507617 24.2018905,44.3844015 24.0564093,44.0699599 C23.1536669,43.064101 22.1993102,41.6108843 21.5430002,40.3321043 C21.3881576,40.0090547 21.2224356,39.7065122 21.0822676,39.4221982 C20.951461,39.1353525 20.8214135,38.8740773 20.693137,38.6454615 C20.4833911,38.1801284 20.2453079,37.8502431 20.0545378,37.7145421 C19.9700322,37.301869 19.8766712,36.9448942 19.8584544,36.6289335 C19.825057,36.3137323 19.7873584,36.0425834 19.8027921,35.8073851 C19.8070933,35.5719336 19.8050692,35.369901 19.8164547,35.1936922 C19.8422618,35.0202682 19.8647797,34.8693767 19.8852736,34.7319035 C19.9090566,34.5964556 19.9161409,34.4734132 19.9457432,34.3604977 C19.9763575,34.2475823 20.0031766,34.1404898 20.0267066,34.0306125 C20.0502366,33.9212415 20.0704775,33.8085792 20.0869232,33.6847773 C20.1102002,33.5624944 20.1511879,33.4333759 20.1795251,33.2827376 C20.1339832,33.3789435 20.083381,33.5009732 20.0299958,33.6311045 C19.9943212,33.7665524 19.9568756,33.9083296 19.9229722,34.0374482 C19.8865386,34.1675794 19.8493461,34.2863179 19.8134185,34.3734096 C19.7790091,34.4602481 19.7595272,34.5174654 19.7263828,34.5189844 C20.059345,33.3303342 19.6957685,33.9275708 19.5963353,34.432399 C19.5834317,34.3139138 19.589251,34.1731492 19.5945642,34.0113713 C19.5988654,33.9306089 19.6034196,33.8445299 19.6084798,33.7538937 C19.613287,33.6635107 19.6186002,33.5680642 19.6451664,33.4726178 C19.6884312,33.280459 19.7354912,33.0723503 19.7858403,32.8508233 C19.8501051,32.6338535 19.9495383,32.4133393 20.0332849,32.1804195 C20.3943313,31.2646905 21.1419781,30.2388309 22.0022148,29.2086674 C22.4551041,28.6767496 22.898632,28.1554651 23.3117986,27.6703844 C23.7358447,27.1691006 24.1224452,26.7098436 24.4460459,26.3045126 C25.0935005,25.4994205 25.4950286,24.9254758 25.4396193,24.7254686 L25.5355104,24.8011676 C25.4828841,24.065445 24.5520575,24.4492562 25.3697883,22.99528 L26.2396394,22.2985462 C26.5427463,21.8418209 26.8425641,21.3769941 27.1611046,20.9319149 C28.0188112,20.2356874 27.7528969,20.7286165 27.7956557,20.7653266 C28.6116155,19.7275679 29.7488989,18.6363895 31.0445671,17.6773678 C32.3387173,16.7175865 33.7788547,15.874012 35.1671248,15.247154 L34.2825991,15.3104475 C33.9880946,15.3428537 33.6951081,15.3881718 33.3955433,15.4294391 C33.0934485,15.4669088 32.7999559,15.5276704 32.5006442,15.5859004 C32.2018385,15.6456494 31.8954424,15.700588 31.5994198,15.7795782 C32.2066457,15.4481739 32.9550516,15.0929713 33.740397,14.7603011 C34.1340818,14.5954851 34.5472484,14.4580118 34.9447283,14.3033227 C35.3376541,14.1407853 35.7487966,14.0291357 36.133879,13.9063465 C37.6721846,13.4083539 38.9787323,13.1260653 39.18443,12.8475743 C39.465019,12.8521314 39.7423188,12.8526378 40.0193656,12.8620052 L40.8537952,12.9263113 C41.1918176,12.9179566 41.4956835,12.8883353 41.7803207,12.8896011 C42.0647048,12.8888416 42.3225228,12.8840313 42.5573168,12.8759298 C42.7921108,12.867575 43.0036278,12.8561822 43.195663,12.841245 C43.3884572,12.8333966 43.5627816,12.8298522 43.7191423,12.817953 C44.345597,12.7789643 44.7010771,12.6711123 44.9619312,12.5779444 C45.4823744,12.3986975 45.6109039,12.1305866 46.6869588,12.2556544 L48.0269039,12.5404747 C48.4694197,12.6508584 48.9076344,12.7764325 49.3425599,12.8921329 C48.9020681,12.8574481 48.4620824,12.8141554 48.0210846,12.7847873 L46.6968262,12.745039 C47.0267522,12.7865595 47.3318832,12.8247887 47.6175324,12.8609925 C47.9021695,12.8954241 48.1665658,12.9311216 48.4150224,12.9853008 C48.9119356,13.0840385 49.3498972,13.1665731 49.767365,13.2653108 C50.1802786,13.3817707 50.5772525,13.4939266 50.9977565,13.6126651 C51.4162363,13.7281122 51.8463546,13.9048274 52.3387136,14.0729347 C52.3397256,14.0681244 52.3627496,14.0688839 52.3635087,14.0640736 C52.2276419,14.0174897 52.1418712,13.9769819 52.1287147,13.9443225 L52.4874839,13.9995144 C52.5767967,13.9557153 52.7318924,13.9184988 52.9378431,13.9169798 C53.1435409,13.9159671 53.403889,13.9347019 53.709779,13.9729311 C54.3268723,14.0314142 55.1048805,14.2407888 55.9881411,14.5159886 C56.2930191,14.6367524 56.5910658,14.7486552 56.8878475,14.8542286 C57.1833641,14.9623337 57.4829288,15.0522103 57.769084,15.1767718 C58.3462016,15.4142486 58.9440661,15.6213447 59.553063,15.9365459 C60.7877557,16.5150476 62.1469296,17.3409 63.6753677,18.7794326 L64.2497022,18.8814616 L64.8151813,19.010327 C65.1972276,19.3814795 65.5810449,19.7457964 65.9329829,20.1442917 L66.4713899,20.7260847 C66.6487504,20.9210284 66.8116894,21.1306562 66.9822186,21.3314229 L66.6983405,21.6197877 C65.630382,20.5397489 63.9377399,19.1265337 61.9801955,17.9307946 C61.500487,17.6166061 60.9873812,17.3462167 60.4813596,17.0689915 L60.1028555,16.8603765 L59.7149899,16.6737875 C59.457172,16.5494792 59.200619,16.4261837 58.9465962,16.3036476 C58.6956095,16.1737696 58.4352614,16.0778167 58.1832627,15.9707243 C57.9307579,15.8651509 57.6815423,15.7613497 57.4371339,15.6590676 C56.9435098,15.4636175 56.453681,15.306903 56.0005387,15.1375299 L55.8768164,15.2889277 C56.9551483,15.6702072 58.0992631,16.0719938 59.1247158,16.5446689 C59.3815217,16.6623947 59.6327614,16.7773355 59.8761578,16.8887319 C60.1213253,16.996837 60.3429627,17.1317786 60.5623231,17.2454536 C60.9964896,17.4824241 61.3942225,17.6912923 61.7023896,17.9150978 C61.8471118,18.0328236 62.0411711,18.207007 62.2289051,18.3930897 C62.3230251,18.4860044 62.415374,18.5819572 62.4993736,18.6753783 C62.579831,18.774116 62.6516861,18.8710815 62.7093726,18.9586796 C62.9406244,19.3100846 62.9375883,19.5224972 62.3177119,19.2424872 C62.7642759,19.4060374 63.2229844,19.5640177 63.6768858,19.7397202 C65.1909023,20.881027 66.2026924,21.8952406 67.0363629,22.7486889 C67.4335899,23.1947808 67.8151301,23.5788452 68.1258274,23.9869612 C68.445886,24.3869755 68.7581013,24.758128 69.0288229,25.1637122 C69.3096648,25.561448 69.5940489,25.9591838 69.8559151,26.4105924 C69.9910229,26.6328788 70.1304318,26.8622541 70.275913,27.1017564 C70.4067196,27.349107 70.5433454,27.6068378 70.6873085,27.8782399 C71.2446913,28.9684056 71.8772182,30.3087069 72.4378901,32.1596593 C72.4227095,31.9272459 72.3979144,31.6960984 72.3779266,31.4616596 C72.4639502,31.6353367 72.5499739,31.809267 72.6349855,31.9811719 C72.7146839,32.1545958 72.7832499,32.3300452 72.8545989,32.5001778 C72.9917307,32.8439876 73.1306337,33.1634928 73.2217175,33.4731241 C73.4104636,34.0875766 73.4924391,34.6017722 73.3897167,34.8640601 C73.6862453,36.0585333 73.9415332,37.3464276 74.2221222,38.67964 C74.3625432,39.345993 74.5100484,40.0234856 74.6727344,40.7042695 C74.8361793,41.3870788 75.0099977,42.0501406 75.1716716,42.6640867 C75.4965375,43.8934978 75.7758614,44.9846762 75.9357642,45.921925 C76.1032573,46.8627182 76.1472812,47.6447716 76.1022453,48.2673256 C76.2793528,48.4222678 76.4622796,48.579995 76.6305318,48.7488618 C76.6535558,49.150142 76.4663278,49.667629 76.3484248,50.1235947 C76.2204013,50.5861429 76.1629679,51.000335 76.4622796,51.2621165 C76.4486171,51.9026458 76.3929547,52.573556 76.2983287,53.2700366 C75.9443666,54.5700833 75.9511979,55.4797361 75.1757198,57.0139684 L75.1754668,57.0139684 C75.1729367,57.0170065 75.1711656,57.0225763 75.1711656,57.0225763 C75.1228406,57.1180227 75.0714794,57.2182795 75.0183471,57.3139791 C75.0325157,57.3185363 75.0471903,57.3132196 75.062118,57.3081561 C74.4379404,58.8980866 74.5404097,58.9097326 74.618084,58.993533 C74.6927222,59.0667002 74.7534448,59.2325289 73.9987137,60.9558819 C73.6381733,61.4629887 73.6634744,61.8149 73.6857393,62.2561817 C73.6983899,62.478215 73.7085103,62.7194894 73.6627153,63.001778 C73.6176794,63.2848262 73.5281136,63.622813 73.3198857,64.0081433 C72.8761048,64.4570201 72.4171433,64.8714654 71.9599528,65.2628718 C71.5232562,65.8841599 71.2019325,66.3634176 70.932223,66.8057119 C70.7933201,67.021669 70.6728869,67.2345881 70.5559959,67.4470008 C70.4307556,67.6495397 70.3123466,67.8558762 70.1909014,68.0738587 C69.9361195,68.495646 69.6600848,68.9554093 69.2459061,69.4655542 C69.1945449,69.5303666 69.1421717,69.5966981 69.0882804,69.6648018 C69.0300879,69.7275889 68.9698713,69.7921481 68.9083897,69.8582265 C68.7834024,69.9898768 68.6520898,70.1286159 68.5131869,70.2752034 C68.3666936,70.4136894 68.2037547,70.5488841 68.0344905,70.6972439 C67.9487198,70.7699047 67.8634552,70.847629 67.7698412,70.9215557 C67.6731911,70.9926975 67.5740109,71.0656115 67.4720475,71.1408041 C66.6075097,71.6137325 65.8234293,71.8058913 65.4201301,71.7600668 C65.0056984,71.7109511 64.9745781,71.4208142 65.4067205,70.8747186 C65.1023485,71.232453 64.8969038,71.4590434 64.7471214,71.6190491 C64.6008812,71.7810802 64.502966,71.8752608 64.3825329,71.9689351 C64.2600756,72.0623561 64.1262329,72.1590685 63.8671499,72.3152766 C63.612115,72.4727506 63.2449964,72.693518 62.649156,73.0393532 C62.1514838,72.9727685 62.414868,72.8056739 62.8556128,72.3499614 C61.7049197,72.7001005 61.3544998,72.9013736 61.1111034,73.1094823 C60.8553095,73.3180974 60.6976838,73.5262061 59.786086,73.896346 C59.4387022,74.5675093 59.1188965,75.5386833 58.5230562,75.8300862 L59.3038474,75.6624853 C58.8390666,75.9285707 58.354804,76.197188 57.8520716,76.4693496 C57.3490861,76.7402454 56.8281369,77.0169642 56.3175612,77.2779862 C55.2948916,77.7990176 54.2643787,78.2671356 53.2199502,78.559298 L53.2024924,78.3023268 C52.8591568,78.4651174 52.5208814,78.6180343 52.1864011,78.7544949 L51.1657556,79.1180522 L50.9560097,78.8544985 C50.7196976,78.9469068 50.4636507,78.983617 50.2164592,79.0471636 L49.4688123,79.2248915 C48.9607666,79.3117301 48.4461427,79.3826187 47.9315188,79.4583176 C48.076494,79.4775588 48.2194451,79.4816096 48.3644202,79.4942682 C48.2735894,79.5102182 48.1569514,79.5307252 48.0195665,79.5547767 C47.8806636,79.5714862 47.7187367,79.5800941 47.5418822,79.5947782 C47.3645216,79.6074369 47.1712214,79.6213614 46.9678007,79.6360455 C46.763874,79.6476915 46.5505859,79.6730088 46.3279365,79.6593375 C45.8844085,79.6451597 45.4203868,79.6403494 44.979389,79.6008543 C44.5376322,79.5411054 44.1201644,79.4740144 43.7727806,79.3985686 L43.8461537,79.2312208 C41.9116332,78.7066451 40.1529553,78.2813134 38.2988923,77.712179 C36.4564678,77.1367153 34.5108149,76.4017523 32.4998852,75.0867684 L33.2207129,75.131327 C32.9305095,74.8378987 32.7453056,74.7067548 32.6036196,74.6535883 C32.4664877,74.5951052 32.3733798,74.6156123 32.2673683,74.6366257 C32.0586344,74.6763739 31.792973,74.7146032 31.0693622,74.062681 L31.2651925,73.6596286 C30.8558211,73.5046864 30.5463889,73.3322751 30.3060287,73.1502433 C30.0641504,72.9712495 29.9037415,72.7471908 29.7661037,72.5388289 C29.6299839,72.3251504 29.5239723,72.1064084 29.4080934,71.8826029 C29.2937325,71.656772 29.1816488,71.4122062 29.0133966,71.1673873 L28.9984689,71.965897 L28.2538582,71.1240946 C28.0061607,70.8438314 27.77921,70.5415421 27.5408738,70.2529242 C27.1550324,69.7693625 26.9657803,69.3956782 26.863311,69.1541506 C26.7653958,68.9078126 26.7742512,68.7721116 26.841805,68.7019825 C26.9776718,68.5617243 27.3458025,68.6812222 27.5725002,68.72173 C27.3420074,68.5566608 27.1041772,68.3966551 26.8757085,68.2242438 L26.1928324,67.6951109 L26.4003012,67.1363567 C25.807497,66.8176111 25.6539194,66.5426645 25.4580891,66.1682207 C25.3576438,65.9826444 25.2622587,65.7547882 25.0940066,65.4793353 C24.9298026,65.1995784 24.6851411,64.8805796 24.3418055,64.4489186 C24.4118895,64.1967576 24.7881165,64.6084179 24.4771663,63.9359888 C23.6561463,63.042539 22.8710538,62.08453 22.0950698,61.0979123 C22.3083578,61.4077968 22.5330314,61.7052759 22.7503677,62.0083247 C22.9664389,62.3123862 23.1903534,62.6078399 23.4175571,62.89823 L22.6433441,63.0232978 C21.8390228,62.1407345 21.490374,61.418177 21.232809,60.7503049 C20.9666417,60.0877495 20.8021847,59.4641828 20.3477773,58.7431443 L21.0420389,59.7026724 C19.708419,57.2825856 19.9533335,56.995993 19.4809624,55.488344 C19.5442151,55.9936786 19.6530097,56.7633265 19.120422,55.7559486 C18.7598816,55.0009848 19.1821566,55.2394744 18.9539409,54.4789407 C18.6918217,54.4847637 18.3077514,54.0429757 17.9297532,53.374091 C17.5522612,52.7014086 17.1899497,51.8132755 16.986023,50.9388138 C17.0591431,50.9350162 17.1355524,50.9471685 17.2185399,51.0398301 C16.985264,50.6441197 16.7808313,50.4651259 16.6358561,49.6937058 L17.3002624,49.9413097 C16.9731195,49.5347128 16.6487597,49.1258374 16.3383154,48.7146834 C16.25887,48.2278305 16.0382446,47.6822413 15.8912454,47.2571628 C15.7447521,46.8330969 15.670367,46.532833 15.8618961,46.5505552 L16.092642,47.0379144 C15.8244505,45.8917973 15.6440538,44.7725167 15.5909216,43.6960224 C15.5425965,42.6190218 15.6048372,41.5255648 15.7741014,40.4110945 L16.2178823,40.376916 C16.1541236,40.2857735 16.116172,40.1612121 16.0992202,40.0128523 C16.0896058,39.8632267 16.1007383,39.6903091 16.1245213,39.5037202 C16.1619669,39.1323144 16.2912554,38.7024256 16.3967609,38.3026644 C16.5121338,37.901131 16.633073,37.524915 16.6629283,37.2512343 C16.7069521,36.9755282 16.6664704,36.8005852 16.470134,36.8043828 C16.8407948,36.2114502 17.2137327,34.9027957 17.6000802,33.8516187 C17.9849096,32.8019608 18.3560764,32.0285154 18.580244,32.5839783 C19.0774102,31.4322915 19.5055044,30.3757979 19.9007072,29.3484192 C20.0960316,28.8324514 20.2862957,28.3301549 20.4752947,27.8303901 C20.6587275,27.3442967 20.8373532,26.8637732 21.0240751,26.4052757 C21.3954949,25.4773943 21.8041074,24.5968564 22.3430203,23.7512565 C22.6155129,23.3370644 22.9203909,22.9332525 23.2700518,22.5557706 C23.6209778,22.1813268 24.0204818,21.8405551 24.4771663,21.5420633 C24.8880558,21.4377558 25.3902822,21.2309129 26.066327,20.9584981 C26.7347815,20.6860833 27.5816086,20.3632869 28.5620253,20.0321358 C29.0516012,19.8660539 29.5760926,19.6987061 30.1215838,19.5300925 C30.6696052,19.3612256 31.2358433,19.1890676 31.7575515,19.040961 C32.8083053,18.7412034 33.7530476,18.5252463 34.5406701,18.4270149 C34.9214514,18.3508097 35.2830038,18.2923265 35.6281105,18.2518188 C35.9709401,18.2151086 36.3039023,18.1897912 36.648756,18.1837151 C37.3336562,18.1659929 38.0372791,18.2110578 38.7558298,18.3011876 C40.1941961,18.4801814 41.6750682,18.828042 43.2475302,19.240715 C46.4516587,20.1012522 49.6651487,20.9534346 53.3525278,22.299812 C54.3501493,22.9783174 55.516782,23.5722627 56.7206073,24.2115262 C57.0247263,24.367228 57.3354235,24.5201448 57.651434,24.6710363 C57.9661794,24.8244595 58.2751056,24.997124 58.5941522,25.1566234 C58.9134518,25.3166291 59.2352815,25.4776475 59.5586293,25.6396786 C59.879953,25.8052542 60.1949514,25.985767 60.5167811,26.1571656 C63.0812984,27.5308857 65.5987557,29.176008 67.2625546,31.0287327 L67.9034309,31.3279839 L68.2257666,31.4788754 L68.5377289,31.6426787 C69.5280131,33.0007021 70.980295,34.4627799 72.4229625,36.1684107 C73.866895,37.8639145 75.2415026,39.8530998 76.0604985,41.9815305 C76.4187618,42.416736 76.6484956,42.772445 76.822061,43.0382773 C76.9956264,43.304616 77.104927,43.4851288 77.1689388,43.5972847 C77.0945536,43.4056322 77.0229515,43.0924565 77.2038542,42.8896644 C77.3091067,43.2023338 77.4748288,43.5762713 77.6537074,43.9643865 C77.8125982,44.3595905 77.9780672,44.7717572 78.1265846,45.1411375 C78.1986926,45.3262074 78.2639694,45.5019099 78.3171017,45.660903 C78.3669448,45.8201492 78.3983181,45.9636987 78.417547,46.0834498 C78.4542335,46.3232052 78.4233662,46.4687801 78.2890175,46.4702991 L78.1245605,46.1885169 C77.854598,46.1935803 78.2690296,47.0617127 78.6518349,48.1055476 C79.0505799,49.1493825 79.3544459,50.370439 79.2049165,51.0071707 C79.3627952,50.7633645 79.4963849,50.5048742 79.638071,50.2400546 C79.7342151,50.9734986 79.7762149,51.68998 79.7504078,52.3743083 C79.7076489,52.1897447 79.6742515,52.0087256 79.6279505,51.8251747 C79.8361784,52.9416704 79.8543952,53.9662641 79.6906972,54.8830059 C79.5485052,55.7954437 79.1960611,56.681045 78.7532923,57.5360124 C78.3039451,58.3904734 77.7556708,59.2067052 77.1595774,60.0029363 C76.5675321,60.7935976 75.9104631,61.5951453 75.2726229,62.3526408 C73.9934004,63.8645938 72.7235393,65.2157815 71.3117391,66.4413951 C70.604574,67.0528094 69.8650235,67.6391595 69.0457746,68.1766472 C68.2379112,68.7189451 67.3060724,69.2354193 66.2064876,69.7567038 C66.7056779,69.2663065 66.2963064,69.5035302 65.6969239,69.7693625 C65.0965293,70.0362075 64.2800635,70.3174834 64.1355943,70.0184854 C62.8255045,69.9359508 61.6667151,70.2068466 60.5443593,70.579265 C59.4308588,70.9491517 58.379599,71.4086618 57.3129056,71.6489236 C57.3169538,71.6803171 57.2954478,71.7203186 57.1775448,71.7846247 C55.915274,71.9117178 54.6519912,72.0000754 53.3909854,72.0469126 C54.4915823,71.5684144 53.8246459,71.7828525 53.1331675,72.0066579 C52.4396649,72.2251468 51.7183312,72.4524967 52.7420128,72.062103 C51.5075732,72.0426086 50.2329049,72.003873 48.9273692,71.9304527 C48.2748544,71.8939957 47.6139903,71.8461459 46.9483189,71.7922199 C46.2912499,71.7324709 45.6306387,71.6676584 44.9768589,71.579554 C44.323838,71.4904369 43.6700582,71.3919524 43.032724,71.2608084 C42.3918477,71.1357406 41.7626099,70.9851023 41.155384,70.8035768 C40.5433509,70.628887 39.957631,70.4172339 39.4012603,70.1772252 C38.8398293,69.9412674 38.3191332,69.665055 37.8394247,69.3579554 C37.5914741,69.2106083 37.375909,69.0389566 37.1469342,68.8764191 C36.9275738,68.6991976 36.7044183,68.5164062 36.4688653,68.2938666 C36.0013014,67.8652436 35.4937617,67.3315536 34.9191743,66.7457098 C34.3466109,66.1606255 33.6852407,65.5092097 32.9097626,64.8808328 C32.5132947,64.5681633 32.0996221,64.2582788 31.6419256,63.975737 C31.1897953,63.6848405 30.7179302,63.4417938 30.2703541,63.2245708 C29.375961,62.8053153 28.5347002,62.5007474 27.7893304,62.2339024 C27.0462378,61.9670574 26.370699,61.7290742 25.8262198,61.4824831 C25.5471489,61.3602002 25.3080537,61.2351324 25.0907174,61.1118368 C24.8814775,60.9847437 24.6980447,60.8695497 24.5224552,60.7232153 C24.1669751,60.4406735 23.8314828,60.0849646 23.5063639,59.6560884 C23.531159,59.7978657 23.5582311,59.9386302 23.5883394,60.0758503 C23.2396905,59.6727979 22.8675117,59.1720204 22.4890075,58.586683 C22.3005145,58.2932548 22.1067083,57.9805853 21.9177092,57.6507001 C21.7332643,57.3175236 21.5495785,56.9853597 21.3684228,56.6577531 C21.279616,56.4931902 21.185749,56.3319186 21.1047856,56.1671026 C21.0260992,56.0012738 20.9479189,55.836711 20.8712566,55.6744267 C20.7186911,55.3490985 20.5737159,55.0308593 20.4393672,54.722747 C20.2015371,54.09437 19.9998875,53.5085262 19.8807194,52.9864822 C19.7795151,52.458362 19.5938052,51.9398623 19.379505,51.4375659 C19.1872168,50.9299527 18.9541939,50.4415808 18.7196529,49.9906785 C18.3042092,49.0795066 17.8677656,48.3149222 17.7885732,47.9095912 C17.5861646,47.3556473 17.4424545,46.7976526 17.4002017,46.2877609 C17.3721175,46.0333214 17.3554188,45.7925533 17.3475754,45.5717859 C17.3437803,45.4614022 17.3420092,45.3558288 17.3422622,45.2560783 C17.3475754,45.1563279 17.3561778,45.0618942 17.3647802,44.9742961 C17.4363822,44.2724988 17.5821164,43.9897038 17.6053934,44.4795948 C17.5687069,44.1757864 17.5153216,43.8750162 17.4659845,43.5734864 C17.430057,43.2719566 17.3867921,42.9699204 17.3394791,42.6640867 C17.2261303,42.0506469 17.1798293,41.4273334 17.1196127,40.7657907 C17.0811551,40.4338801 17.0927936,40.0991845 17.0953237,39.7515771 C17.1056971,39.4054888 17.101902,39.0447164 17.1471909,38.67964 C17.196275,38.3150699 17.2567446,37.9391071 17.3316358,37.5509919 C17.3511176,37.4542796 17.3708524,37.3565545 17.3908403,37.2578168 C17.4194305,37.1613577 17.4485267,37.064139 17.477876,36.9656544 C17.5375865,36.7696981 17.6018513,36.5704504 17.6706702,36.3691774 C17.7908503,36.2491731 17.8938257,36.0149874 18.0099577,35.7051029 C18.1394992,35.3992692 18.2690407,35.0131794 18.3968112,34.5736699 C18.675629,33.7040185 19.0176996,32.6361321 19.4414927,31.651793 C19.4915888,31.526472 19.5414319,31.4011511 19.590769,31.277096 C19.6512386,31.1578512 19.7109492,31.0388596 19.7704067,30.9213871 C19.8900808,30.6859356 20.0074778,30.4558007 20.1203206,30.2337675 C20.3325966,29.7808398 20.6058483,29.4023452 20.8262207,29.07246 C21.2608932,28.406107 21.6631804,28.0460941 21.8283964,28.1478699 L21.8010712,28.0782471 C23.3715092,26.5647751 24.8303693,25.0606705 26.5240235,23.6920139 C28.2060392,22.3312056 30.149415,21.1314157 32.4427047,20.5227863 C32.4427047,20.5227863 32.3802111,20.6106375 32.2526936,20.7205149 C32.5788245,20.4630373 32.9287384,20.2592325 33.2771343,20.0369461 C33.6280602,19.8230144 33.9762031,19.5809804 34.3412976,19.3835049 C35.0757879,19.0067825 35.8171095,18.5675263 36.6042261,18.2596671 C36.9953807,18.0953575 37.3888125,17.9107939 37.7916057,17.7596492 L39.018961,17.3426722 C39.2261768,17.2755812 39.4338987,17.1968442 39.6441506,17.1383611 L40.2789547,16.9788617 L41.5713337,16.6578376 C40.6010374,15.8248963 39.5252356,14.924864 38.362651,14.2053445 C35.0021618,13.8230523 31.4602639,14.028123 27.9654259,14.8615706 C23.6824594,16.9608864 19.8270811,19.9111188 16.8488912,23.6884694 L16.2902434,24.3945707 C16.1012443,24.6267309 15.9431126,24.8874998 15.7687882,25.1330782 L15.2602365,25.8817126 C15.0897072,26.1303292 14.920696,26.379452 14.7747088,26.6473097 C14.4718549,27.1741641 14.1662179,27.6982335 13.8739904,28.2298981 L13.0911751,29.8881854 C12.1398545,32.1069992 11.4782313,34.4258165 11.0994742,36.7750147 C10.6751751,38.631537 10.4968025,40.5235036 10.4224173,42.4088876 L10.4069837,43.8236219 C10.4079957,44.2947781 10.4436702,44.7616302 10.462393,45.2317737 L10.4975615,45.9368623 C10.5119831,46.1710479 10.5425974,46.4021954 10.5646094,46.6356215 L10.7133797,48.0338995 C11.236859,51.7342854 12.246372,55.3415033 13.7214249,58.7279539 C14.1948081,59.7507754 14.7402993,60.722709 15.2830075,61.711352 C15.8540528,62.6994887 16.5346518,63.7926925 17.4492858,64.8813391 C17.9062232,65.4243966 18.4226183,65.9639096 19.004037,66.47051 C19.5803956,66.9740724 20.2397417,67.4551023 20.9117383,67.8477746 C21.5789278,68.2409533 22.2233462,68.5457743 22.8224758,68.7984416 C23.4170511,69.0460454 23.9688676,69.2470653 24.4748892,69.4265654 L25.8378583,69.908608 C26.2376153,70.0559551 26.5938545,70.1954538 26.8734314,70.3268509 C27.1590806,70.4612861 27.3533928,70.5706571 27.5659219,70.7088899 C27.778957,70.8458568 28.015016,71.0372561 28.2756171,71.2651124 C28.7963133,71.7175337 29.4204909,72.3864184 30.1990051,73.1780924 C30.5876297,73.5730432 31.0298925,74.0041979 31.5225045,74.4386439 C31.7638768,74.654601 32.0358634,74.8768875 32.3053199,75.0908192 C32.5836317,75.2979152 32.8627026,75.5085557 33.1460747,75.7060311 C35.4327861,77.2635553 37.8659908,78.1385234 40.1848347,78.6922142 C42.5125339,79.2408414 44.7810285,79.4805969 46.9675477,79.588702 C51.3205982,79.8038996 55.6463236,79.5279403 59.8736277,78.8826007 C61.0569591,78.5127141 62.2119534,78.1129529 63.3709957,77.6861021 C64.6335196,77.5655915 65.9678984,77.3584954 67.3619878,77.0162047 C68.7550652,76.6701163 70.2116483,76.1906055 71.6813879,75.4883018 C72.4179023,75.1351246 73.1435372,74.7234642 73.841847,74.2804104 C74.5315544,73.8279891 75.2091172,73.3484782 75.836078,72.8277 C77.1056861,71.7965238 78.2320901,70.6519258 79.2479284,69.4898588 C80.2665498,68.3257664 81.1723284,67.142686 82.0295289,65.9950499 C82.8847053,64.8466543 83.7740382,63.6218003 84.6099859,62.2635237 C85.4436564,60.906513 86.2295079,59.403168 86.8038423,57.7236141 C87.0935397,56.8830776 87.3080928,56.0134262 87.4728029,55.1604842 C87.6278985,54.3055168 87.7308739,53.457132 87.7797049,52.6292542 C87.6124648,52.5365926 87.4490198,52.4449438 87.2777315,52.3583584 C87.2552136,51.4550348 87.2152379,50.8051381 87.1869007,50.3195511 C87.1595755,49.8326982 87.1529972,49.5048383 87.1537563,49.2610321 C87.1641297,48.7675967 87.2309246,48.597464 87.1894308,48.1685879 C86.7800593,46.1935803 86.161448,44.3575651 85.4428974,42.6286423 L84.8807074,41.3463179 L84.5973353,40.7060418 L84.283855,40.0827283 L83.6530991,38.837114 C83.439305,38.4239346 83.1974267,38.0282242 82.970223,37.6236527 C81.1204612,34.4058158 78.8975084,31.4333041 76.3800511,28.7787786 C71.354751,23.4565624 65.2933717,19.2672982 58.7849223,16.3856759 C55.5451192,14.9468901 52.2931717,13.8319134 49.1237056,12.8174467 C48.334312,12.5693365 47.5464364,12.3214795 46.7605849,12.074382 C45.9818177,11.832348 45.190147,11.5860101 44.3678619,11.3457483 C42.726328,10.8675033 40.9777705,10.4158415 39.0961293,10.1603893 C38.1561942,10.0335494 37.1836208,9.95759726 36.1895414,9.95835678 C35.1901488,9.95582505 34.1968285,10.0406382 33.2614476,10.177352 C31.3818305,10.4528049 29.6851402,10.9232015 28.13216,11.375876 C26.5723486,11.8353861 24.9325857,12.34705 23.2467748,13.0989757 C22.405767,13.4739259 21.5531207,13.9114099 20.7108478,14.4463658 C19.8650327,14.97879 19.0473019,15.6170407 18.3153417,16.2922548 C17.6954653,16.7611324 16.8709031,17.5897697 16.0890998,18.6103126 C15.3095736,19.6290833 14.5776134,20.8283669 13.9731706,21.9686609 C13.3656917,23.110474 12.855622,24.1935508 12.4267687,25.0515563 C11.9966504,25.9118403 11.6194113,26.62579 11.3486898,27.0187154 C10.6766932,28.9377716 9.95535942,30.9246783 9.33801311,33.0523496 C9.01921952,34.1050455 8.74849799,35.2106548 8.4977643,36.3268974 C8.26701847,37.457824 8.06258576,38.6092577 7.94695983,39.799427 C7.83462304,40.9880772 7.77111733,42.1992599 7.83335799,43.4248734 C7.87181563,44.650487 8.02994736,45.8631887 8.24323545,47.0148756 C8.67664292,49.3268572 9.35698892,51.4395912 10.0671902,53.3971298 L9.90602231,53.118892 C10.390791,54.3465309 10.8937764,55.510117 11.3970149,56.6557277 C11.4192798,56.8192778 11.3712078,56.8600388 11.2897383,56.7630733 C12.3043115,58.6439002 13.3634147,61.1938651 14.6105048,63.8785183 C15.2202608,65.2221108 15.905161,66.5920334 16.6019527,67.9277775 C16.9716014,68.5893202 17.314937,69.2526351 17.7025496,69.8840502 C17.8925607,70.2010236 18.0802947,70.5149589 18.2654986,70.8238307 C18.4631,71.1283986 18.6576653,71.4281562 18.8489414,71.7225971 L18.6156655,71.4856266 C19.7838163,73.1704972 21.0761953,74.7905553 22.4950798,76.3052931 L23.5896044,77.4144468 C23.9564701,77.7812954 24.3496488,78.1240925 24.729165,78.4780293 C25.1003318,78.8337382 25.526908,79.1666616 25.9337493,79.5054079 L26.5505896,80.0102361 L27.1886828,80.4775946 C28.0307027,81.1163517 28.9182645,81.6715615 29.8030432,82.2270245 L31.1632292,82.996166 C31.6158655,83.2533904 32.0907667,83.4658031 32.5537765,83.7002419 C32.7875584,83.812651 33.0175452,83.9331616 33.2548693,84.0379755 L33.9706368,84.3430497 C34.4498393,84.5412847 34.9196803,84.7595204 35.4125453,84.9243364 C35.9016151,85.098773 36.3879019,85.2772604 36.8787428,85.4435955 L38.3742895,85.8823454 C40.3847132,86.4180609 42.4515583,86.7778206 44.5586321,86.9211169 C46.6715251,87.0342855 48.8195866,86.9236486 50.9504434,86.5400905 L52.5423873,86.2008379 L54.1125722,85.7279095 C55.163832,85.4023282 56.1288151,84.9759838 57.0249793,84.5701465 C57.9208905,84.1587393 58.7462117,83.7450536 59.5173885,83.3716225 C60.2814811,82.9992041 61.0152124,82.6675466 61.8101722,82.3199392 C63.3844053,81.6318133 65.0843848,80.9421683 66.8382555,80.1203666 C68.5931383,79.2854 70.4267074,78.324606 72.1932287,76.9850643 C73.9655692,75.6569154 75.4927423,74.0181225 76.751218,72.2828704 C78.019308,70.5433143 78.9906164,68.6976785 79.8083472,66.8705244 C80.6286082,65.0393195 81.2763158,63.2182415 81.8756983,61.4508363 C82.1666607,60.5746024 82.4578761,59.6973557 82.7498506,58.8185901 C83.040054,57.9271657 83.3317754,57.0005502 83.5999668,56.0291229 C84.1317955,54.0905724 84.5869619,51.9502425 84.6271906,49.6056014 C84.6512266,48.4407495 84.542938,47.2057685 84.3516618,46.0928172 C84.1636748,44.9682199 83.8992786,43.9347651 83.6310871,42.9572617 C83.4091967,42.0425454 83.1678244,41.181755 82.9428978,40.3629915 C82.8363803,39.9675343 82.7293567,39.5708112 82.6218271,39.1720627 C82.5228999,38.7877451 82.430045,38.4155799 82.3387081,38.0213885 C81.9690593,36.4537374 81.633567,34.6868385 81.1328587,32.7399333 C81.0076183,32.2543462 80.8717516,31.7583791 80.71868,31.2530445 C80.5706687,30.7484695 80.3814167,30.2365524 80.2101284,29.7274202 C80.0446593,29.2127182 79.8250459,28.7205486 79.6254204,28.2174926 C79.4300961,27.712158 79.1958081,27.2245456 78.9637972,26.7344015 C78.0317055,24.7758502 76.9017594,22.8980613 75.602296,21.130403 C73.0096945,17.5874911 69.7025906,14.5159886 65.9479106,12.0842558 C64.0655103,10.868516 62.0910142,9.81050338 59.9940608,8.92768691 C57.9054568,8.06233942 55.7566363,7.38256821 53.5701171,6.86609399 C53.3737807,6.79697759 53.0491679,6.70684777 52.6117122,6.60026167 C52.1742566,6.49468826 51.6181389,6.41088779 50.9666361,6.30101043 C50.8036972,6.27518672 50.634433,6.24835031 50.4598555,6.22050121 C50.28376,6.20151319 50.1018453,6.18201882 49.9146173,6.1620181 C49.5391493,6.12505475 49.1416694,6.08581284 48.7239486,6.04454554 C48.3062278,6.00024015 47.8642179,5.99948063 47.4057624,5.97644183 C46.9465478,5.96150458 46.4698755,5.93264279 45.9739744,5.95163081 C45.4785793,5.96277045 44.9667384,5.97466961 44.440729,5.98682195 C43.9139606,6.02834242 43.3730235,6.07112877 42.819942,6.11492781 C42.5431482,6.13214362 42.2638243,6.17189188 41.9817172,6.21164014 C41.6996102,6.25113522 41.4147201,6.29113666 41.1270468,6.33139127 C40.5517003,6.4002545 39.9690165,6.52861353 39.3782363,6.64811149 C37.0181517,7.14028104 34.5467424,7.94258829 32.1967782,9.12111157 C31.0078806,9.69632207 29.9009584,10.3781187 28.8423613,11.091562 C27.802993,11.8227274 26.8132148,12.5837674 25.924641,13.3756945 C24.1305415,14.9501814 22.6744644,16.5720117 21.4769644,18.0067467 C20.2868017,19.4467983 19.3590112,20.7096284 18.6667737,21.6739668 C17.9770663,22.6395711 17.5211408,23.3117471 17.3316358,23.6160618" id="Fill-103" fill="#B5F100" transform="translate(47.794317, 46.454321) rotate(-100.000000) translate(-47.794317, -46.454321) "></path>
                    <path d="M31.7880699,37.439629 C32.3150784,36.3269968 32.9090368,35.2115817 33.5749977,34.1480287 C33.0353571,35.5356567 32.6286056,36.8600382 32.3173522,38.0685521 C32.0023092,39.2818727 31.7590162,40.4056363 31.5462927,41.4570459 C31.1251407,43.5593592 30.8141399,45.3770633 30.4768646,47.0687804 C30.3091111,47.9205841 30.1398419,48.713695 29.9518772,49.5343815 C29.7616387,50.3664523 29.5506837,51.2554449 29.3566556,52.2347536 C29.1638908,53.2148211 28.989316,54.2958301 28.9064499,55.504091 C28.8331841,56.7143759 28.8539006,58.0782231 29.1368582,59.5258088 C29.0651083,59.3186133 28.9835053,59.1106588 28.9223663,58.8989096 C28.934493,59.3277208 29.0454023,59.7071997 29.2444832,60.2903323 C29.4496274,60.8694172 29.7406695,61.664046 30.2252344,62.8394188 C30.7110625,64.00619 31.4197197,65.5461155 32.4158821,67.5120694 C32.903226,68.4789817 33.4633305,69.590602 34.1093328,70.8724818 C34.7634196,72.1576504 35.5195733,73.6221861 36.4538386,75.2802561 L36.4043211,75.3159271 C36.719364,75.7374017 36.813599,75.6609999 37.3143329,76.6031196 C36.8878754,75.8259468 36.4725341,75.0490269 36.0844779,74.2662884 C37.1043885,75.4527925 38.1354152,76.379733 39.4900748,77.9631721 C39.7227569,78.3464458 39.7250306,78.5445338 39.6782921,78.6414275 C40.8123963,79.9334267 42.0230506,81.1700221 43.3044443,82.3451418 C43.5962443,82.8124069 43.9085082,83.2660107 44.2210248,83.7261922 C44.9031547,84.1729654 45.2328509,84.1208502 45.7742599,84.3308286 C46.0468593,84.4332879 46.3581126,84.6161967 46.8116027,84.9385008 C47.2610505,85.2658647 47.8365661,85.7498268 48.6543641,86.4505979 C48.1536302,85.7574164 48.6429953,85.9876336 49.2154791,86.3162624 C49.7915,86.6438792 50.4746405,87.0494157 50.3306352,86.7863103 C50.4688297,86.9661833 50.8333903,87.3021486 51.1193796,87.5910586 C52.225188,88.2093563 53.8746792,89.0141046 55.4397884,89.5812991 C57.0000975,90.1621548 58.4646557,90.4953373 59.0664459,90.5305024 C59.0664459,90.5305024 58.9254724,90.465232 58.6735896,90.3486055 C58.4234753,90.2284372 58.0584095,90.0710799 57.6296782,89.8441515 C56.7610994,89.4166052 55.619416,88.7628895 54.4691428,88.0029197 C53.3178591,87.2424439 52.1680912,86.35927 51.2219517,85.530488 C50.2732858,84.7027179 49.5307747,83.9260511 49.1179598,83.4337404 C49.7677517,83.9614691 50.1535341,84.2377298 50.3447831,84.3647287 C50.5357795,84.4922336 50.5342637,84.467441 50.4359864,84.3629578 C50.3374565,84.2579686 50.1421653,84.0743008 49.9453582,83.8835494 C49.7508248,83.6897622 49.5585652,83.4845906 49.4542246,83.3497491 L49.1899624,83.3360878 C48.4312823,82.6821191 48.1240712,82.269752 47.9143794,81.9396053 C47.7014033,81.6132535 47.5892308,81.3643153 47.2504396,81.0050752 C47.2312389,81.027338 47.2307337,81.0736344 47.227702,81.1189189 L47.3550329,81.1636974 C47.3835813,81.2734933 47.3133472,81.2717224 47.2095118,81.2307387 C47.1779318,81.3051166 47.0655066,81.2949971 46.6741662,80.9231078 L46.776233,80.9635855 C46.1196198,80.4568547 45.1221942,79.4307436 44.7114004,78.9660084 L44.919829,78.7426218 C44.5605739,78.5870355 43.9928902,78.0254067 43.353204,77.2317897 C42.7173073,76.434884 42.0177451,75.4032072 41.3707323,74.3257401 C40.7214456,73.2490318 40.1229398,72.1285571 39.6287745,71.1748 C39.1381462,70.2175012 38.7422582,69.4324857 38.4898702,69.0206246 C38.1321309,68.0997557 37.547015,67.1887533 36.9262768,66.2205761 C36.3040227,65.2551817 35.6501885,64.2432378 35.2229731,63.1366773 C34.8397171,62.2785489 34.6686793,61.7250157 34.5842973,61.359198 C34.5067366,60.9923683 34.506484,60.8127483 34.5373062,60.6849904 C34.6024875,60.4322574 34.7199654,60.3786244 34.6436679,59.5161953 C34.5729285,58.9877076 34.5466539,58.7590083 34.5120421,58.6919671 C34.477683,58.6251788 34.4400395,58.7225784 34.4011328,58.8629856 C34.3364568,59.1417761 34.2775915,59.6029695 34.1876514,59.1749172 C34.1578398,58.2947791 34.2624331,57.4452523 34.4438291,56.5868709 C34.4344814,56.96382 34.4564611,57.1897365 34.4812199,57.3174944 C34.5054734,57.4455053 34.5355377,57.4738397 34.5681283,57.4487941 C34.6335623,57.3979439 34.7091019,57.1340795 34.7669566,57.0037918 C34.8030842,55.9250597 35.1785083,54.4944241 35.5375108,53.181933 C35.8927236,51.8745016 36.1620386,50.660169 35.9429991,50.2004935 C36.4432277,48.4938503 36.7105216,47.6595026 36.9197081,47.0659975 C37.125105,46.4729985 37.2534465,46.1183121 37.3913883,45.4031209 C37.1998867,45.8633023 36.9363824,46.8130116 36.8130937,46.8016272 C37.3095327,45.490401 36.8588217,46.1415869 36.7049635,46.6865186 C36.7618077,45.6280254 37.4431797,42.9919117 38.209439,40.7625995 C38.5932002,39.6418717 38.9994465,38.6258801 39.3031206,37.871223 C39.6065421,37.1132771 39.7924857,36.5949089 39.6752604,36.4362867 L39.7871802,36.484607 C39.6469646,36.1906373 39.3968503,36.1488946 39.2157069,36.0216427 C39.0408796,35.8964147 38.9127907,35.6682213 39.0936815,35.0008444 C39.2887201,34.7600018 39.5022015,34.5350972 39.7060826,34.3084218 C39.8624672,33.8841644 40.0319891,33.4631958 40.2197012,33.0493107 C40.8611559,32.3981249 40.7191718,32.8446451 40.7689421,32.8755094 C41.0220881,32.3983779 41.3740166,31.9265591 41.7719257,31.4522104 C42.1854986,30.9945588 42.6473258,30.5346303 43.1680183,30.1298528 C44.1985398,29.3081544 45.4147522,28.6551977 46.607469,28.1466959 C45.5883164,28.1206384 44.5423838,28.1871737 43.4805349,28.3819729 C44.5219199,27.8175612 46.0749024,27.2640279 47.4181931,26.9128834 C48.7617364,26.5518725 49.891293,26.3408822 50.0666257,26.0701872 C50.5554855,26.1124359 51.0377766,26.1630331 51.5165308,26.2348811 C52.6839835,26.2503132 53.4535271,26.2670103 53.9939256,26.2295684 C54.5343241,26.200728 54.8412826,26.1137008 55.068154,26.0226259 C55.5191176,25.8366812 55.6310375,25.5793945 56.5647976,25.7124651 C57.3459626,25.8834836 58.1175274,26.0886552 58.8794918,26.3097649 C58.1091902,26.2515781 57.3391413,26.2088235 56.5721241,26.200981 C57.7213868,26.3406292 58.5194788,26.4979865 59.2549159,26.6763416 C59.9895951,26.8549496 60.6616194,27.0505078 61.5476304,27.3444775 C61.5483883,27.3396707 61.5688522,27.3389118 61.5696101,27.334105 C61.4470794,27.2956512 61.369266,27.2607391 61.356634,27.2288629 L61.6777404,27.262257 C61.9887411,27.0588563 63.2203646,27.0679638 64.8435812,27.4292278 C65.9857699,27.7077653 67.0407975,27.8838435 68.2297247,28.180849 C68.820904,28.3306167 69.4418948,28.5130196 70.1065926,28.7718242 C70.7702797,29.0303759 71.4789369,29.3676061 72.2009841,29.838919 C72.5286591,29.8009711 72.8588605,29.7716247 73.1900725,29.7554336 C73.9052984,30.2416726 74.554585,30.7891342 75.174818,31.3998423 L74.9269774,31.7193636 C74.4416546,31.3360899 73.8355695,30.9115794 73.1294387,30.5374132 C72.4217921,30.1566693 71.5769615,29.801983 70.6538124,29.4930872 C69.7319264,29.1821674 68.7367746,28.9132434 67.7421281,28.6729067 C66.743692,28.4323171 65.7710252,28.2147491 64.909773,28.0348761 L64.8102326,28.2023528 C65.8258483,28.4191618 66.9394886,28.6410305 67.9404511,28.8646701 C68.937624,29.0867917 69.8087292,29.3202978 70.413551,29.5530448 C70.6995403,29.69497 71.172989,30.0071546 71.4089555,30.2679832 C71.6431534,30.5321005 71.6656384,30.7256347 71.1131132,30.6439203 C71.5102644,30.6631472 71.9048892,30.6914816 72.2911768,30.7362602 C72.9634538,31.0578053 73.4876833,31.3801094 73.9719955,31.7089911 C74.450497,32.0373669 74.8640699,32.3659957 75.2369676,32.6865289 C75.9822577,33.3303781 76.5658578,33.9302078 77.1469314,34.5778519 C77.7262366,35.2262549 78.3138789,35.9465059 79.013441,36.8471359 C79.7130032,37.7502957 80.5229693,38.8568563 81.5171105,40.357316 L81.3026185,39.7352235 C82.2694746,40.7962466 83.1820128,41.8990124 83.1254213,42.4118149 C83.7201376,43.3025785 84.2567464,44.229519 84.7539434,45.1496289 C85.230929,46.0768224 85.6743135,46.9964264 86.0143679,47.8950325 C86.7192355,49.686679 87.1088075,51.3573983 87.2025372,52.6504095 C87.4094499,52.785251 87.61611,52.9231283 87.8055906,53.0658124 C87.8844145,53.4761556 87.8187279,54.0238702 87.8265597,54.4901233 C87.8156962,54.9619421 87.8475289,55.3634309 88.2125948,55.5129456 C88.288387,55.8005906 88.3803482,56.0872237 88.4460348,56.3786635 L88.6183358,57.2605725 C88.6307151,57.5466996 88.6648216,57.8034804 88.6976649,58.0501417 C88.7163604,58.2978149 88.7340452,58.5343568 88.7519827,58.7757054 C88.7787626,59.2586556 88.8085742,59.7679163 88.6079775,60.4132835 L88.6077248,60.4132835 C88.606209,60.4160663 88.6059564,60.4203671 88.6059564,60.4203671 C88.583724,60.4995517 88.5599757,60.5827841 88.5334485,60.6629806 C88.5481016,60.6639926 88.5609863,60.6574149 88.5741236,60.6510903 C88.479636,61.2954455 88.4639723,61.6159787 88.4558878,61.7829494 C88.4584142,61.9504261 88.5081844,61.9648463 88.5544177,61.9911569 C88.6006509,62.0172144 88.6428419,62.0551623 88.6312204,62.2704534 C88.6251571,62.3782254 88.6057037,62.5305229 88.566797,62.7475849 C88.5213217,62.9636349 88.4869626,63.249003 88.3634213,63.6082431 C88.0966327,64.0476797 88.1913729,64.3340598 88.2992505,64.6993715 C88.4207707,65.0659482 88.5043948,65.501843 88.2482171,66.2079268 L87.720198,66.8259715 L87.1459457,67.410622 C86.9880452,67.7050976 86.8586932,67.9719978 86.7505629,68.221442 C86.6449591,68.4718981 86.5234389,68.6912369 86.4375411,68.9110817 C86.2508396,69.3452056 86.1439726,69.7608615 85.9928934,70.201563 C85.8329719,70.6382168 85.6667343,71.1163603 85.4295046,71.7042996 C85.2983841,71.9911857 85.1331571,72.2965397 84.9479714,72.6400947 C84.7564698,72.9793488 84.5611785,73.3681882 84.2673573,73.7575336 C83.9470089,74.1048833 83.6471244,74.3889866 83.3828622,74.597447 C83.2537628,74.7042071 83.1231475,74.7844036 83.0011221,74.8430963 C82.8811177,74.903054 82.7729875,74.9437848 82.6784999,74.9645296 C82.3005494,75.047762 82.141891,74.8054014 82.3101497,74.1911515 C82.0433611,75.012091 82.0011701,75.2294059 81.888745,75.4662008 C81.8298797,75.5833332 81.7616667,75.7151389 81.61943,75.9230934 C81.4721405,76.129024 81.2627013,76.4212227 80.9393212,76.8730556 C80.5222114,76.9449037 80.6449948,76.7308775 80.8013794,76.2218698 C80.4173655,76.5221641 80.1925152,76.739732 80.0419414,76.9056908 C79.883283,77.0635541 79.8125436,77.1822045 79.7582258,77.2973131 C79.6500956,77.5280363 79.6068941,77.7450982 79.0695273,78.2444925 C79.0849383,78.8977022 79.182205,79.820089 78.8070335,80.1699686 L79.3699171,79.8992736 C78.2729511,81.1677452 76.8253198,82.3815718 75.0075698,83.2981399 L74.9355672,83.0527435 C74.3610622,83.4856025 73.7840308,83.9128958 73.230495,84.3004703 L72.9596642,84.0998524 C72.1625827,84.6217624 71.3925338,85.0695476 70.6328432,85.4148734 C70.7490579,85.3991883 70.8670411,85.3754076 70.985277,85.3564336 C70.7174778,85.5003827 70.1454992,85.7761373 69.5053077,85.9646119 C68.8651161,86.1558693 68.0786455,86.26946 67.4718025,86.250486 L67.4960561,86.0736488 C66.6522361,86.0316532 65.8036159,86.0114143 64.9181102,86.0240636 C64.0358888,86.034183 63.0905072,86.0827563 62.1643264,86.1515685 C60.305396,86.2833742 58.3984639,86.4827271 56.2363646,86.3628118 L56.8247648,86.0458204 C56.1034756,85.8262286 56.0006508,85.9474088 55.8515928,86.0971765 C55.7058191,86.2423905 55.5150754,86.4151799 54.6631709,86.2345479 L54.6270433,85.7930874 C53.8491625,85.9894045 53.3693978,85.8811265 52.9722466,85.6853154 C52.5745901,85.4869744 52.2590418,85.1955346 51.7855931,84.9870742 L52.1405533,85.6405369 C51.511478,85.4786259 50.8897291,85.2911633 50.2753069,85.0895335 C49.268281,84.7221979 49.0184194,84.4396125 49.054547,84.2526559 C49.0924431,84.0616515 49.4188549,83.9440131 49.6047985,83.8448426 C49.1146755,83.8529381 48.6187418,83.854962 48.1230607,83.837 L48.0310994,83.2713234 C47.451289,83.3717588 47.2155752,83.2523495 46.90988,83.0691876 C46.6051952,82.8784362 46.2264868,82.6335458 45.3523499,82.3924502 C45.3043482,82.1581852 45.7492485,82.252296 45.2497778,81.9201254 C44.2907536,81.7126769 43.3943844,81.4736052 42.5806286,81.1745758 C43.0485192,81.3858191 43.5538007,81.5770765 44.0833356,81.7554316 L43.5436951,82.2940387 C42.6354517,82.090132 42.1731192,81.729374 41.830791,81.3782295 C41.493263,81.0227842 41.259823,80.667086 40.7694473,80.2989914 C41.0134983,80.451542 41.2557807,80.5894193 41.4957894,80.7118645 C40.7568153,80.1418872 40.4298982,79.6779109 40.2126272,79.2994439 C39.9943456,78.9078217 39.8869733,78.577169 39.5764779,78.0145283 C39.6985034,78.4127282 39.896321,79.0138228 39.2755828,78.3413861 C38.8473568,77.8088507 39.273309,77.8849995 38.9764562,77.3097094 C38.7329105,77.3863641 38.3251484,77.119464 37.8921222,76.6577646 C37.7852552,76.541897 37.6718195,76.417175 37.5682368,76.2772737 C37.4686964,76.1348426 37.3701665,75.9830511 37.2751736,75.8239229 C37.0854404,75.5061725 36.9093498,75.1603407 36.765092,74.8089432 C36.8348208,74.7897163 36.9093498,74.7828857 36.9977741,74.8443613 C36.8651377,74.7006653 36.7458913,74.6022537 36.6291713,74.4603286 C36.5715692,74.3892395 36.511946,74.30879 36.4566177,74.2040538 C36.4045737,74.0975467 36.3532876,73.9687769 36.3017489,73.8071189 L36.9578569,73.8878214 L35.9111664,73.0071773 C35.7850987,72.5917743 35.4627291,72.1672639 35.2777961,71.8072649 C35.0799784,71.4535905 34.9561845,71.1978217 35.1459177,71.1720172 L35.444539,71.5661693 L34.8078844,70.0897433 C34.6009716,69.5956617 34.4359972,69.085389 34.247022,68.5852358 L33.9711383,67.8326026 C33.8824614,67.5806286 33.8147537,67.321318 33.7354245,67.0665611 L33.2733447,65.5334662 L33.66898,65.3260177 C33.3036615,65.1069319 33.1394451,64.2490565 32.9825552,63.5050248 C32.8481503,62.7556804 32.7564418,62.1070245 32.4050185,62.2831027 C32.4484727,61.9663643 32.3827861,61.5246508 32.3039622,61.0419536 C32.2423179,60.5564735 32.1463144,60.0332986 32.0712801,59.5660335 C32.034142,59.3325275 32.0002881,59.1136946 31.9826032,58.9209193 C31.9747714,58.7273851 31.9778031,58.5604144 31.9977617,58.4329094 C32.0371736,58.1778996 32.1442933,58.0815119 32.368133,58.2363394 C32.335037,57.720248 32.2893091,57.2355269 32.2349913,56.7710447 C32.2011375,56.3058035 32.1746102,55.8605483 32.1321665,55.4261714 C32.0283312,54.5561527 32.001046,53.7301535 31.9580971,52.8700013 C31.9500126,52.6552162 31.9338436,52.4376483 31.9346015,52.2183095 C31.9419281,51.9992236 31.9495073,51.777102 31.9570865,51.5509325 C31.9757819,51.0985936 32.0018039,50.6298107 32.0402053,50.1362351 C32.1038708,49.6459483 32.1948214,49.1339047 32.2971409,48.588973 C32.3539851,48.317772 32.3956708,48.0346807 32.4782843,47.7503245 C32.5601399,47.4657153 32.6478063,47.1730106 32.7417886,46.8709454 C33.0212092,46.4732514 33.2475753,45.8698799 33.5565549,45.1713857 C33.701318,44.8194823 33.8438074,44.4374735 33.9835177,44.0339609 C34.1209543,43.6228587 34.2813811,43.2282006 34.4183124,42.8955241 C34.5590333,42.5600647 34.6952066,42.283551 34.8202638,42.068007 C34.8831713,41.9625119 34.9432998,41.8711839 35.000144,41.7909874 C35.0582513,41.7112968 35.1090321,41.6508332 35.1742134,41.5774673 C35.4384756,41.2784379 36.0132332,40.8303997 36.6802047,40.4084192 C38.0848871,39.3868619 39.3652702,38.4556206 40.5855249,37.5678929 C41.8194222,36.6677688 42.9333151,35.8582138 44.0469554,35.114941 C45.1575639,34.3812818 46.260846,33.711375 47.4336042,33.1510111 C48.0199833,32.865137 48.6235419,32.6237884 49.2531226,32.396607 C49.8832085,32.1828338 50.5393165,32.0057437 51.2320573,31.8673604 C52.1041731,31.9933474 53.0849243,32.0378729 54.2230708,32.0760738 C54.8107131,32.090747 55.414777,32.1059261 56.0284413,32.1213583 C56.6668644,32.1332486 57.3151405,32.1453919 57.965943,32.1575352 C59.2518842,32.1851107 60.5130667,32.2359609 61.6694032,32.4047025 C62.8259924,32.5693964 63.8830412,32.8484399 64.7306508,33.2815518 C65.0997589,33.2635898 65.4650773,33.2534704 65.835196,33.2653607 C66.880118,34.0265955 68.2812634,34.7316673 69.7839704,35.801039 C71.2841509,36.8527016 72.8581026,38.2372937 74.1432859,39.92471 C75.0007485,40.519227 75.4383222,40.879479 75.6202236,41.0378482 C75.4949138,40.8870686 75.3375186,40.6257341 75.4479226,40.3810967 C75.8246099,40.8777081 76.4872865,41.5147267 76.9508822,42.0368897 C77.4205413,42.5625946 77.7017304,42.9858401 77.4637429,43.0969009 L77.2406611,42.9289182 C76.9988839,43.0422559 77.6213907,43.6059086 78.2193912,44.2639251 C78.5202863,44.5955897 78.8055177,44.9411685 79.0235466,45.2958548 C79.2428388,45.6500351 79.3926547,46.0097812 79.4141292,46.2936314 C79.4876476,46.0411514 79.5558606,45.7841177 79.6159891,45.5245541 C79.8878305,46.0710038 80.1263234,46.6503416 80.337531,47.2587728 C80.2407696,47.112294 80.1447661,46.96708 80.0447204,46.8279377 C80.5921928,47.705293 81.0115764,48.6504486 81.3347039,49.6006638 C81.4948781,50.0760244 81.6467152,50.5397477 81.7596456,51.0052418 C81.8874818,51.4646643 81.9814641,51.9235808 82.0678673,52.3733899 C82.4089322,54.1761678 82.4965986,55.8757274 82.5011461,57.5730102 C82.50822,60.9726354 82.1934297,64.366442 82.4480915,69.1455997 C82.1921665,68.5116169 82.2429473,68.9867245 82.2717483,69.589337 C82.3028231,70.1944794 82.2833698,70.8810833 81.956958,70.8841191 C81.424644,71.7915798 81.295292,72.4027938 81.1967621,72.9993347 C81.1065693,73.6011883 80.931742,74.3548335 80.4926524,74.9921051 C80.5158954,75.0136089 80.5308012,75.0523157 80.5083161,75.1512332 C79.8653455,75.7930586 79.0988336,76.4108503 78.2557715,77.0051143 C78.7357889,76.1297829 78.4076086,76.595783 78.0546695,77.0855638 C77.6936459,77.5761036 77.2972526,78.09093 77.8133976,77.3064206 C74.252932,79.4737513 69.9701666,81.6909202 65.2354269,82.918914 C62.8734889,83.5367057 60.4228739,83.9032823 57.968722,83.9551444 C55.5196229,84.0133312 53.0877034,83.7393474 50.8523383,83.1428065 L51.2024984,83.440318 C50.0499514,83.1734178 48.7652734,82.8559205 47.597568,82.4288802 C46.4273362,82.0127183 45.5059555,81.5021926 45.0792453,80.9828125 C44.8564162,80.7224899 44.6545563,80.5347743 44.4203583,80.3414931 C44.186413,80.1436581 43.9188665,79.9346917 43.6518253,79.6994147 C43.1187534,79.2364504 42.5884605,78.6980963 42.4078224,78.3876825 C41.7747048,77.5432154 41.4212604,76.5935062 41.2898872,75.9769794 C41.1549771,75.3584287 41.2199057,75.065471 41.3755324,75.4775851 C40.8904623,74.4906869 40.3035779,73.5817084 39.7783378,72.525492 C39.2566347,71.4733234 38.7943022,70.2643036 38.6500444,68.7651088 C38.770554,68.4804996 38.6950144,67.8548653 38.5661677,67.0647902 C38.445658,66.2744621 38.2829574,65.3164043 38.1968069,64.3826331 C37.9982313,62.5082602 38.1927647,60.7267331 38.5737469,60.7601272 L38.5153869,60.7178786 C39.1121243,58.962662 39.585573,57.3015563 40.3301051,55.6728327 C40.7075504,54.8642896 41.162051,54.0861048 41.720387,53.3451089 C42.2888286,52.6063899 42.9818221,51.903342 43.8107363,51.2680942 C43.8107363,51.2680942 43.794062,51.3642289 43.7311545,51.4993234 C44.4471383,50.2366705 45.3131906,48.9689579 46.2184023,47.6951736 L48.9711756,43.8566177 L45.3101589,43.5368435 C42.8517121,44.6940012 40.2841245,45.8261134 37.6622192,47.633951 C36.9702363,48.4240261 36.2845694,49.273047 35.6709051,50.2025174 C35.054967,51.1216154 34.4976416,52.0801791 34.0317721,53.0754259 C33.5595866,54.0671308 33.1520771,55.0859053 32.8337498,56.1236536 C32.5101171,57.1598841 32.2488866,58.2105348 32.0730486,59.2670041 C31.7046985,61.3794368 31.6160216,63.5073017 31.7615426,65.5974717 C31.9058005,67.6797991 32.2784455,69.7014098 32.8041909,71.642571 C33.4537301,74.7919932 34.5026944,77.7777334 35.7393707,80.6088992 C35.8975238,80.9630796 36.0473397,81.3099233 36.2178722,81.6739701 C36.3881521,82.0392818 36.5751062,82.4235675 36.7870717,82.8232853 C37.2110029,83.620191 37.7377588,84.4836321 38.4332786,85.3291112 C38.7783859,85.7495738 39.1707369,86.1682656 39.588352,86.5538162 C40.0041986,86.9375959 40.4296456,87.2788739 40.8543346,87.5857459 C41.7044706,88.1984779 42.5503118,88.6778862 43.3617937,89.0821578 C44.3763989,89.5365206 45.3101589,89.8611015 46.2808046,90.1783459 C46.7651168,90.3288726 47.2486712,90.4821821 47.7372783,90.6058922 L48.4691784,90.7989205 L49.2041103,90.9674091 C51.1651075,91.4091226 53.1453055,91.6694451 55.1217138,91.7739283 C57.0981221,91.8786645 59.0725093,91.8409696 61.0292116,91.6459175 C62.9854087,91.4521302 64.9309949,91.1116111 66.824537,90.6425752 C70.6156636,89.6923599 74.2370156,88.2235235 77.5966319,86.3435848 C78.0195524,86.1131146 78.4300936,85.8621526 78.8466981,85.6218159 C79.2544603,85.367565 79.6685384,85.1224216 80.0697318,84.8588103 C80.4729464,84.5977288 80.8756557,84.3361413 81.2687647,84.0611456 C81.6649053,83.7909566 82.0590248,83.5154549 82.4587025,83.2179434 C84.0447809,82.0380169 85.7165045,80.6465941 87.1767678,78.6593895 C87.5135379,78.0327433 87.8159488,77.3638484 88.0670737,76.6656072 C88.3229988,75.9633182 88.5054054,75.2324417 88.6168199,74.5445729 C89.1650503,73.210831 89.4421971,71.8563442 89.6142455,70.6288563 C89.780483,69.3874542 89.8694126,68.3408513 89.9613738,67.1715503 C90.1369591,64.8691251 90.2175515,62.4169322 90.1730867,59.8936503 C90.1172531,57.3668266 89.9388888,54.7679019 89.5581592,52.1833974 C89.4742825,51.5382832 89.3535202,50.893422 89.2481691,50.2521026 C89.193346,49.9313164 89.1228593,49.6112892 89.0624781,49.2922739 C89.0000759,48.9730057 88.9417159,48.6542433 88.8654184,48.3377579 C88.5953454,47.074852 88.2818183,45.8111872 87.8821407,44.5293074 L87.3331524,44.5095745 C86.7644582,43.1388966 86.4665948,42.4737965 86.3433061,42.0533338 C86.2104171,41.6336301 86.2240597,41.4608407 86.0608538,41.1010947 C85.5762889,40.3092487 85.0225004,39.5439662 84.4682067,38.8677347 C83.9116392,38.1861905 83.3442082,37.56511 82.7863775,36.9867841 C82.2277888,36.4069403 81.6785479,35.8701041 81.1512868,35.3562897 L79.5460076,33.8082686 C77.3561179,31.730242 74.9001975,29.550768 71.9048892,27.8302105 C70.4173407,26.9776478 68.7865448,26.2318452 67.1163371,25.7170188 C65.4585087,25.1968797 63.8130597,24.8662271 62.2178862,24.6463823 C60.6199337,24.4227427 59.069225,24.3076341 57.5650021,24.2256666 C56.0817485,24.1497708 54.5371032,24.0794407 52.8812959,24.1439522 C52.0551608,24.1778523 51.2078038,24.2428697 50.3412462,24.3680977 C49.9084726,24.4288143 49.4797413,24.5158415 49.0505047,24.5924963 C48.6301106,24.6921727 48.2016319,24.776923 47.7903328,24.8948145 C46.1330097,25.3436116 44.56689,25.9540667 43.128859,26.6578736 C40.2361228,28.0627046 37.787529,29.7458201 35.4915302,31.2351485 C34.3182667,31.9986601 33.1518245,32.7578709 31.9932142,33.5117691 C31.3633809,33.9319787 30.6726611,34.4111341 29.9564247,35.0309497 C29.5991907,35.3413635 29.236146,35.6884602 28.8819437,36.0836243 C28.525215,36.4808122 28.1957716,36.9116473 27.9133192,37.3381816 C27.3436144,38.196563 26.9366102,39.0554503 26.6170197,39.8397067 C26.4570981,40.2325939 26.3183984,40.609037 26.192836,40.9652412 C26.065505,41.3189156 25.9674804,41.6657593 25.8540448,42.0153859 C25.7443987,42.3647595 25.6350053,42.7133742 25.5256118,43.0609769 C25.4195027,43.4098445 25.2972246,43.7539054 25.2176428,44.1080858 C25.0405417,44.8129046 24.8639458,45.5146877 24.6883605,46.2131819 C24.4958483,46.7414165 24.326579,47.5656448 24.13533,48.5247145 C24.0299788,49.003617 23.9766716,49.5224911 23.910985,50.0555325 C23.8493407,50.5895859 23.7861805,51.1380594 23.723273,51.6832442 C23.6909349,52.2304528 23.6588496,52.7736136 23.6280274,53.2947647 C23.6118584,53.5555932 23.5961947,53.8108561 23.5807836,54.0580233 C23.5724465,54.1817335 23.5646146,54.3034197 23.5565301,54.4228291 C23.554509,54.5422384 23.5522352,54.659118 23.5502141,54.7739736 C23.5320239,55.6902887 23.4958963,56.4444398 23.4188409,56.8874182 C23.5408664,57.8244782 23.7043249,58.7607792 23.8356981,59.701381 C24.0148203,60.6328753 24.1947005,61.5689233 24.3753386,62.5087661 C24.605747,63.4357067 24.8164493,64.3682129 25.0508999,65.2946475 L25.4490617,66.672915 L25.6463741,67.3620487 C25.7100395,67.5925189 25.7759788,67.8222301 25.8575817,68.0466287 C27.019729,71.6868436 28.5454263,75.1975297 30.3773241,78.4137401 L30.1853172,78.2009789 C30.8199507,79.1769987 31.410372,80.1793291 32.1129659,81.1050047 C32.1617255,81.2499656 32.1223136,81.2985389 32.0273207,81.2279559 C32.3504481,81.603387 32.6814075,82.0144892 33.0189355,82.4541788 C33.3766747,82.899687 33.7523515,83.3677111 34.1416708,83.8529381 C34.9566898,84.845655 35.9361778,85.9666358 37.1528955,87.0043842 C38.3577391,88.0322661 39.6307956,88.862313 40.8513029,89.5587833 C42.0670101,90.2504469 43.2531582,90.8280139 44.4062105,91.3208305 L44.1149157,91.2661855 C45.8101349,91.9328035 47.5407238,92.4706517 49.2925345,92.878971 C51.0392925,93.2865314 52.8292519,93.5678517 54.5805574,93.724703 C56.3293364,93.8840842 58.0313769,93.9321515 59.6801102,93.9349344 C60.5049822,93.9367053 61.3169694,93.9268388 62.1165773,93.9124186 C62.9116376,93.8949626 63.7056874,93.8775066 64.4987266,93.8603035 C66.1229538,93.8124892 67.9076078,93.7489897 69.8509202,93.3798832 C70.8109549,93.1972273 71.8490556,92.9184368 72.7929213,92.5559079 C73.743103,92.1994507 74.6233033,91.7741813 75.4388275,91.3281671 C76.2551097,90.8811409 77.0062105,90.411346 77.7093096,89.9504056 C78.4088718,89.4902241 79.0649797,89.042945 79.7423095,88.5678373 C81.0863581,87.6234408 82.427375,86.6152918 83.7335275,85.5054424 C84.0586761,85.2256399 84.3866038,84.9486203 84.7026573,84.648073 L85.6480389,83.7433952 C86.2925253,83.1554558 86.8675356,82.4969334 87.4569464,81.8535901 L87.8970465,81.369375 C88.0402938,81.2046812 88.1724249,81.0303738 88.3103667,80.8613792 L89.1279121,79.8372921 C89.4080906,79.5023387 89.6534048,79.1395568 89.9032664,78.7808227 L90.6518409,77.7033555 C92.5890899,74.7876924 94.0637537,71.5555439 95.0546106,68.1609783 C96.037383,64.7643889 96.5277586,61.1874205 96.407249,57.5783229 L96.3203406,56.22586 C96.290529,55.77428 96.2675387,55.3216882 96.1947782,54.8731441 C96.0661841,53.974791 95.9742228,53.0675833 95.7602362,52.1793496 L95.4750048,50.8380181 C95.3656114,50.3973166 95.2413121,49.9634457 95.1235815,49.525021 C94.8684144,48.6580381 94.5940466,47.795862 94.2800142,46.9531658 C93.7608375,45.3596073 93.1016979,43.7903354 92.3321543,42.2643241 C91.5600843,40.7393248 90.6728101,39.2641637 89.709491,37.8312512 C88.7451614,36.3993507 87.7007447,35.0132407 86.6002417,33.6688733 C85.4936754,32.3217231 84.3476971,31.0395903 83.1357796,29.7470851 C81.9033982,28.4457253 80.493663,27.0672049 78.7901066,25.8295976 C77.9432549,25.2161066 77.0082316,24.6281673 76.0466811,24.1406633 C75.0919518,23.6486057 74.1377278,23.2529356 73.2006834,22.9078628 C72.2633864,22.5645608 71.3432689,22.2769158 70.446647,22.0183642 C69.5462355,21.7588006 68.6867517,21.5323782 67.8098358,21.3054498 C66.0567619,20.8556407 64.2657919,20.437202 62.4255569,20.0908642 C62.0951028,19.9792974 61.3336437,19.823205 60.2298564,19.6767262 C59.1255638,19.5337891 57.6731324,19.4083081 55.9660391,19.4083081 C52.5503366,19.4042603 48.0788485,19.9431204 43.7991148,21.9508169 C42.732971,22.4504642 41.6837541,23.0401744 40.6875918,23.7234895 C39.6881451,24.4121173 38.7634801,25.1925789 37.9421451,26.0089646 C36.2865905,27.6437598 35.0789679,29.4341414 34.2005361,31.0400963 C33.3319573,32.6546526 32.7741266,34.0964196 32.4055238,35.205763 C32.0414685,36.3171303 31.8540091,37.1023987 31.7880699,37.439629" id="Fill-65" fill="#F8F800"></path>
                    <path d="M83.3872021,35.7274794 C83.4375882,36.231715 83.4753144,36.7222816 83.5029128,37.1974073 L83.5662118,38.6106339 C83.4069514,38.0800727 83.252755,37.5672307 83.1033694,37.0700827 C82.947907,36.5666065 82.7914318,36.0669272 82.6207777,35.5672479 C82.2820013,34.5709269 81.905752,33.5905531 81.4487331,32.6461238 C80.9982973,31.7024539 80.4625344,30.7967536 79.8482808,29.9609172 C79.2314952,29.1164744 78.5359656,28.3745494 77.8622108,27.7498237 C76.4974841,26.4950566 75.1563045,25.5787248 73.8115802,24.7502292 C73.1259253,24.3409174 72.4293829,23.9042676 71.6705543,23.5043217 C71.2897474,23.3071331 70.9005851,23.1056414 70.5010417,22.8985808 C70.1014983,22.6927858 69.6885355,22.4880034 69.2532915,22.298915 L69.6875227,22.3789042 C69.2305038,22.06401 68.7101859,22.1123579 67.0461814,21.3985304 C66.6268887,21.2264018 66.1361947,21.0061784 65.5556162,20.7196348 C64.9778227,20.426763 64.2903954,20.1141471 63.5019429,19.6959757 C63.3047032,19.591686 63.0998675,19.4835994 62.887436,19.3714627 C62.6727258,19.2636291 62.4506728,19.1517455 62.2202644,19.0358118 C61.7602072,18.8014131 61.26926,18.5452452 60.7438782,18.2652831 C60.2134324,17.9956993 59.6475392,17.7083963 59.0436666,17.4018555 C58.4423259,17.082405 57.7921184,16.7710547 57.10064,16.4308475 L57.1198829,16.3728807 C56.7135032,16.2488468 56.6800813,16.3650336 55.9247975,15.9440779 L57.8085762,16.9664713 C57.1857139,16.8393999 56.5909563,16.7586513 55.9534086,16.6495521 C55.3135822,16.5467812 54.6241293,16.4374289 53.819219,16.2166993 C53.4981664,16.0501395 53.4156245,15.8944643 53.4090414,15.7901746 C52.0762173,15.4699648 50.7471912,15.1401359 49.4027201,14.8834618 C49.0231792,14.662479 48.6428787,14.4349148 48.2580207,14.2184884 C47.6174346,14.2012755 47.3974072,14.425549 46.9388692,14.5161697 C46.4785587,14.6085622 45.7901186,14.5495829 44.1747277,14.0618007 C45.3229719,14.8384046 42.4879356,14.1331835 42.8502591,14.5035131 C42.6945436,14.4108674 42.3312072,14.2554454 42.0395253,14.1169831 C41.5455398,14.0729384 40.9444524,14.0058589 40.3020939,13.9678893 C39.6589759,13.9339699 38.9781317,13.9033411 38.3304562,13.8833438 C37.0330796,13.8620809 35.8671117,13.9175164 35.4022437,14.0316782 C35.4022437,14.0316782 35.8779991,14.1407774 36.6239147,14.3116403 C36.9943406,14.3989703 37.4321166,14.5019944 37.9116699,14.6148905 C38.3861593,14.7455057 38.9019197,14.8872587 39.4336314,15.0335681 C40.4947762,15.3135302 41.5992174,15.6962633 42.5600964,16.0184982 C43.5186967,16.3604773 44.3258858,16.7009376 44.7991092,16.9312862 C42.1504252,16.338455 44.0850963,16.886229 44.5762967,17.1641661 L44.7783472,17.0510169 C46.3486691,17.4752633 46.2727103,17.85344 47.04192,18.1017609 C47.0479967,18.072904 47.0312857,18.0334157 47.0166004,17.9934211 L46.9059537,18.0215186 C46.844427,17.9438075 46.8970918,17.9083693 46.989002,17.8893845 C46.9852041,17.8088891 47.0710375,17.7630725 47.4976729,17.8691341 L47.4070287,17.890397 C48.0777451,17.9782333 49.1981377,18.3032526 49.6855401,18.4394368 L49.6230006,18.7386368 C49.9493704,18.6553569 50.5805882,18.8168541 51.3715727,19.0796034 C52.1653423,19.3337462 53.0991294,19.7564739 54.0354485,20.1905924 C54.5058867,20.4009437 54.96721,20.6444551 55.4130882,20.8735381 C55.8574473,21.1021148 56.2858551,21.3223382 56.6793217,21.5248424 C57.4568869,21.9483295 58.0941814,22.2887898 58.463088,22.4292771 C58.8026239,22.6515256 59.1750753,22.8507391 59.5753783,23.0279304 C59.9759345,23.2041091 60.4043422,23.3595311 60.8474354,23.5139406 C61.2910349,23.6663251 61.7366599,23.8463008 62.1881085,24.0305796 C62.6362655,24.2214399 63.0902461,24.4171097 63.5138431,24.6775808 C66.3010254,26.146243 64.7375397,25.7576879 66.0057988,26.7180644 C67.6439773,27.8014623 65.8234976,26.2186383 66.5266231,26.5674519 C66.8383074,26.8167853 67.1568281,27.0516902 67.4599038,27.3108957 L68.37065,28.0791463 C67.1737922,27.433917 67.7239872,27.9622 67.8791964,28.187486 C68.3055786,28.4545385 68.7924746,28.7625982 69.2629129,29.1217901 C69.7363896,29.4756663 70.2182217,29.8409334 70.6737214,30.1649402 C71.5852272,30.8233322 72.3012657,31.327821 72.7152413,31.2577039 C73.6449772,32.1365724 73.9412166,32.6438456 74.1531417,32.9977218 C74.3556986,33.3556481 74.4433044,33.5652401 74.7063751,33.9370885 C74.6218076,33.6227006 74.2931591,33.0961895 74.3686116,33.0081002 C74.5701556,33.4244996 74.6337078,33.4943636 74.6504188,33.4199432 C74.6658637,33.343751 74.6076286,33.1245401 74.5038183,32.9675993 C74.787651,33.1744068 75.1573173,33.6657328 75.4793827,34.3471597 C75.8072716,35.0227645 76.0731275,35.8887234 76.2779631,36.7718952 C76.4838115,37.6545606 76.6410462,38.5572234 76.8028385,39.2616852 C76.9600733,39.9651344 77.1269295,40.4329192 77.3115094,40.4749389 L77.1932668,40.5053145 C77.7715666,40.7541416 78.0893277,40.0294295 78.6354716,41.0963738 L78.6030625,41.9043659 L79.0659049,43.0016859 C79.0745136,43.8038559 78.8587905,43.4527642 78.802581,43.4649144 C79.4259497,45.2823902 79.578627,47.9569654 79.7226955,50.2376697 C80.1045152,49.3889237 80.4455703,48.5244836 80.7906765,47.6420712 C80.7800423,48.1425099 80.7488992,48.7439476 80.7286435,49.3653826 C80.6878789,49.9890957 80.6648381,50.6328062 80.6344545,51.2253843 C80.5833089,52.409528 80.5660916,53.3843329 80.7927021,53.5721556 C80.6617997,53.9693171 80.512414,54.3634411 80.3655603,54.7542743 C79.951838,56.6998341 79.9999452,57.3597449 80.1564204,57.7551345 C80.3050465,58.1457146 80.5650788,58.2565857 80.3761946,59.0230643 L80.0569143,59.9763532 C79.9498124,60.292513 79.8270123,60.6048758 79.7133273,60.9169855 C79.7459896,60.5980413 79.7870073,60.2801096 79.8130865,59.9601528 L79.8877794,59.0005357 C79.5049469,60.9012914 79.226178,61.6406851 78.7010494,63.0883375 C78.7058601,63.0890969 78.7068729,63.1058035 78.7116836,63.1065629 C78.7486503,63.0080952 78.7810594,62.9448126 78.8122025,62.9354468 L78.7846041,63.1976899 C78.9934909,63.4599329 79.0172913,64.4737199 78.6987706,65.7251963 C78.4486129,66.6035585 78.2847951,67.3847188 77.9634893,68.239793 C77.6323088,69.0855015 77.1530087,70.0114523 76.1389584,70.9247465 C76.1354137,71.2016711 76.1278178,71.4861896 76.115158,71.7780489 C75.5761036,72.2483651 75.0259085,72.696912 74.4248211,73.0993893 L74.1506097,72.8014548 C74.9112107,72.1177498 75.896903,71.0447303 76.5899006,69.7930008 C77.3034071,68.544562 77.7915691,67.0359052 78.1012279,65.728487 L77.9328525,65.6376132 C77.7459938,66.4058637 77.5424242,67.1974023 77.3079647,67.8950295 C77.0762903,68.5936692 76.8076492,69.1935881 76.5501488,69.5927747 C76.4744432,69.6828891 76.3534155,69.7960384 76.2242855,69.904125 C76.0890788,70.008921 75.936908,70.1025792 75.8082844,70.1592804 C75.5492648,70.2739484 75.3697488,70.2281318 75.4841934,69.8195795 L75.4102602,70.2797704 L75.2975879,70.741227 C74.5661045,71.6778093 73.8660174,72.3270886 73.2583468,72.8538528 C73.1026312,72.9837087 72.9542583,73.1072363 72.8114558,73.2262076 C72.6605509,73.3398631 72.5154696,73.4492154 72.3741862,73.5557833 C72.0966833,73.7714503 71.8060142,73.9567417 71.5226878,74.1468426 C71.238855,74.3366903 70.9299558,74.5105909 70.6121947,74.7009449 C70.2800015,74.8819331 69.9351485,75.0770966 69.5292752,75.2780821 C68.7291756,75.6873938 67.7280384,76.1440409 66.3493858,76.7211781 L66.9018596,76.6649832 C65.9121162,77.3155281 64.8699612,77.9465821 64.4250957,77.7974883 C62.7590656,78.5700421 61.1160764,79.228181 59.6475392,79.5863604 C58.1749509,79.9561838 56.9046662,80.0182008 55.9518895,79.8716383 C55.8333937,80.0450326 55.7083148,80.2151362 55.5804508,80.3882773 C55.259145,80.405237 54.8428907,80.2427274 54.4757564,80.1528661 C54.1065965,80.0617392 53.7847843,80.0513608 53.6141302,80.379924 C53.1322981,80.4447254 52.6357806,80.492567 52.1288821,80.5282584 C51.168003,80.4219436 50.5296958,80.6282449 49.4128479,80.2050109 L49.4128479,80.2047578 C49.4105691,80.203239 49.4067712,80.2027328 49.4067712,80.2027328 C49.3376487,80.1761541 49.2652346,80.1478035 49.1958589,80.1169216 C49.1940865,80.13135 49.198644,80.1447659 49.2034548,80.1579287 C48.0648321,79.8911293 48.046602,79.9903564 47.9967223,80.0840146 C47.9443107,80.1751416 47.8554389,80.2584215 46.5155254,79.9047984 C45.7012468,79.4289133 45.4538743,80.3490421 44.1696638,80.0118725 C43.7810079,79.7058379 43.3910859,79.4051191 43.0188877,79.0935156 C41.9230551,78.6697755 41.2705689,78.5897863 40.4859143,78.5085314 C39.7086024,78.4232265 38.7715237,78.3601971 37.3374212,77.7934382 C37.0138367,77.6038436 36.7621598,77.396783 36.5740351,77.2054165 C36.3816061,77.0181 36.2699466,76.8292648 36.222599,76.6718177 C36.1289164,76.3556579 36.3188135,76.1410034 36.8171033,76.1030338 C36.475795,76.113159 36.2656423,76.1192342 36.1147374,76.1237905 C35.9615538,76.1273343 35.8757204,76.1202467 35.7789995,76.1027807 C35.6830382,76.0840491 35.5812533,76.0503827 35.4055353,75.9896314 C35.2364003,75.9210331 34.995864,75.8240842 34.6241722,75.674231 C34.5730266,75.3208611 34.7383636,75.3831312 35.1503136,75.365412 C34.6725327,74.8756048 34.4864336,74.7910593 34.2909662,74.7637212 C34.1000564,74.7330924 33.9152232,74.7622024 33.5101095,74.4045293 C32.9573825,74.571089 32.1400656,74.8690234 31.8352176,74.6148806 C31.9116828,74.7571398 31.986882,74.9054742 32.0666388,75.0462147 C30.9578932,74.3723817 29.8797844,73.3302441 29.0662654,71.9000577 L29.2964206,71.7965274 C28.9075115,71.3674715 28.5145512,70.9290497 28.1747621,70.5258131 L28.370989,70.263317 C27.9154893,69.6798515 27.5481018,69.1373932 27.3014889,68.651383 C27.3062996,68.7313722 27.3121231,68.8128801 27.3219977,68.8971725 C27.2095787,68.7146656 27.0179093,68.3767366 26.8786514,67.8968014 C26.7355957,67.4267384 26.6621688,66.8139098 26.6983758,66.330684 L26.8748535,66.34815 C26.945242,65.6778609 26.9763851,64.9756773 26.9632189,64.2178051 C26.9485335,63.4705644 26.8920708,62.7334488 26.8214291,61.9781079 C26.6816649,60.4686917 26.4869571,58.8856146 26.4927806,57.0266254 L26.8383933,57.5197233 C27.2166682,56.2641968 26.2935153,57.1633157 26.509998,55.6584559 L26.9472676,55.5956796 C26.4153026,54.2520637 27.1280496,53.8860373 27.3840308,52.9886902 L26.7953499,53.3886362 L27.0014515,51.6759563 C27.3017421,49.7959573 27.7934488,50.5642078 28.0712049,50.8555609 L27.7081217,49.5458645 L28.228946,49.3322225 C27.7157176,48.3541269 28.3892191,48.406778 28.221097,46.7457367 C28.4228942,46.6287905 28.4942955,47.051265 28.6254511,46.5042504 C28.473027,45.5861466 28.3294649,44.6693086 28.1970433,43.7537361 L28.334782,45.3998427 L27.6230479,45.1282339 C27.2462921,43.3742938 27.9580262,42.8530984 27.9157425,41.6390853 L28.022338,42.4880844 C28.1081715,40.5240462 28.4444159,40.46937 28.7831922,39.424448 C28.5925356,39.7330138 28.3059176,40.212949 28.3411119,39.4221698 C28.4001066,38.8483233 28.6505175,39.1599268 28.825476,38.6425284 C28.3664315,38.4306583 28.3687103,37.0042688 28.8882686,35.8441725 C28.9528336,35.8753075 29.0120815,35.9168209 29.0366415,36.0059228 C29.0310712,35.6793846 28.9477697,35.4880181 29.1984338,34.9835293 L29.6473504,35.4308106 C29.5632893,35.048837 29.4873305,34.6671164 29.4133972,34.2813458 C29.7344498,33.6518106 29.6595038,32.6324548 29.9835948,32.8319215 L29.9701754,33.2146545 C30.5112554,31.659928 31.1986827,30.3408658 32.011442,29.428331 L32.376804,29.6680454 C32.3173029,29.5095858 32.3800955,29.3498605 32.4945401,29.1967167 C32.5555604,29.1271058 32.6284808,29.0587607 32.7044397,28.9909217 C32.7796389,28.9220703 32.8697767,28.8744818 32.9482675,28.8157555 C33.0257455,28.7560168 33.1060086,28.7084283 33.1761439,28.6626117 C33.2452665,28.61477 33.3022356,28.5649034 33.3412278,28.5114929 C33.426808,28.4170753 33.4414934,28.3041791 33.3186933,28.1596417 C33.5096031,28.1578698 33.7172239,28.069021 33.9696604,27.9573906 C34.2193117,27.843735 34.5122596,27.7035008 34.8001435,27.5974392 C35.3789497,27.3845566 35.8964824,27.3081112 35.7534267,27.7758961 C36.5175724,27.5964267 37.1941123,27.4374608 37.8372303,27.286342 C38.5352918,27.1456016 39.1930952,26.9608164 39.8858396,26.8248854 C40.2332246,26.763881 40.5876991,26.7046485 40.9566058,26.6507318 C41.1414389,26.6256719 41.3295636,26.6001057 41.5217394,26.5740333 C41.714928,26.5545422 41.9134337,26.5477077 42.1167501,26.5373294 C42.5236362,26.5196102 42.9525503,26.5117632 43.409316,26.5173321 C43.8668413,26.5355575 44.3529778,26.5894742 44.8725361,26.6509849 C45.0548373,26.7469213 45.2771434,26.8208353 45.5310991,26.897787 C45.7848015,26.9798012 46.0704067,27.0516902 46.3803187,27.1147197 C46.6902306,27.1785085 47.0247026,27.2316659 47.3758856,27.2815326 C47.7258025,27.3481058 48.0926836,27.4088571 48.4691862,27.4650521 C49.2247232,27.5594697 50.0078587,27.7148917 50.7707384,27.8406975 C51.1535709,27.8963861 51.5227307,27.9897912 51.8804968,28.0687679 C52.23725,28.1528072 52.5803307,28.2338089 52.9023961,28.3094949 C55.451574,28.7775329 57.5189199,29.3665671 59.5434756,30.1001389 C61.5614483,30.8463671 63.5561268,31.7396641 65.7915949,33.1526376 C66.0425122,33.4862634 66.3306493,33.8014107 66.6499295,34.1018764 C66.9636395,34.4109485 67.2849453,34.7078704 67.5976424,34.9896045 C68.2263282,35.5535789 68.8119707,36.074268 69.2229079,36.5450904 C69.4247052,36.7797422 69.5920678,36.9916123 69.7520877,37.2827122 C69.9118544,37.5644462 70.053391,37.8983252 70.1668229,38.27473 C70.2817739,38.6478441 70.3660882,39.0675342 70.4207785,39.5057028 C70.4780008,39.9433652 70.4954714,40.4157064 70.4812924,40.8472936 C70.6587828,41.1429498 70.8182963,41.4393655 70.9828738,41.7400843 C70.7831021,42.9115715 70.9028638,44.3189762 70.8788102,45.8139639 C70.8557694,47.297814 70.6891664,48.8940539 69.9987007,50.1784372 C69.9802174,50.531554 69.9617341,50.8051879 69.9379336,51.0066797 C69.9040054,51.2023494 69.8746346,51.3314459 69.8533661,51.4089038 C69.9156524,51.2955014 70.0549102,51.1385606 70.3162086,51.1600767 C70.2015107,51.3390398 70.0936492,51.5739448 69.9905984,51.8227719 C69.8895732,52.0726115 69.7566452,52.3153635 69.6477709,52.5391307 C69.540669,52.7641636 69.4122986,52.9426205 69.295322,53.048429 C69.1793582,53.1547437 69.0720031,53.1858788 68.9742694,53.1013332 L69.0208575,52.9018665 C68.8172879,52.7348005 68.6238461,53.2876371 68.294438,53.9100846 C68.2222771,54.0728475 68.1275818,54.2300414 68.0288353,54.3839446 C67.931608,54.5391135 67.8318488,54.6930168 67.7310767,54.8350229 C67.5173793,55.1116944 67.2808941,55.3357147 67.0487133,55.4308917 C67.2953263,55.4281073 67.5323178,55.4200071 67.78045,55.4083631 C67.4307862,55.7824898 67.0492197,56.1518069 66.6408145,56.5185928 C66.721584,56.3902557 66.7939981,56.2619186 66.8707165,56.1348472 C65.8716048,57.6073064 64.6013202,58.7960064 63.3609127,59.8586476 C62.1156944,60.92382 60.9985934,61.7404185 59.9063056,62.3869134 C59.3609213,62.7109202 58.8249052,62.9893636 58.2886359,63.2359125 C57.7508475,63.485499 57.2214145,63.6902815 56.6415955,63.8867106 C55.4870215,64.2831127 54.1752127,64.6547081 52.4750011,65.0063061 C52.9120175,64.6941964 52.5818498,64.7878546 52.1220458,64.8713876 C51.6673057,64.9675772 51.0586223,65.0192158 51.0170982,64.697234 C50.1496485,64.2909598 49.3318252,64.2805814 48.5150147,64.392465 C47.6987106,64.499286 46.8859512,64.7159656 46.0969923,64.7319128 C46.0934475,64.763301 46.0704067,64.798233 45.9759645,64.837215 C45.0702822,64.7012841 44.157004,64.555481 43.2280277,64.4033496 C45.007996,63.8219093 41.1206768,64.800258 42.7492339,64.3210823 C41.8463367,64.1218687 40.8844449,63.9380961 39.8795097,63.774827 C38.8677382,63.6130767 37.8638159,63.4862584 36.8859727,63.3520994 C34.9401609,63.0832749 33.0892977,62.7721778 31.6245584,62.1272017 C30.1780493,61.5022229 28.8981432,60.4648947 27.95119,59.090397 C27.0062622,57.715393 26.4228985,56.0647301 26.2833875,54.4173578 L26.1155185,54.7461742 C26.0013271,53.8807215 25.8934655,52.8773129 25.9071381,51.8850419 C25.9177724,50.8958086 26.0471556,49.9270788 26.3193413,49.2112262 C26.5892483,48.4971455 26.6029209,47.6580184 26.569499,46.9001462 C26.5370899,46.1430334 26.4499905,45.47806 26.5006297,45.1674691 C26.5267089,43.3550558 27.5855748,41.8950001 27.3814988,42.6462909 C27.6974875,40.7500915 27.3622559,38.8101006 28.2464166,36.2909475 C28.6864713,35.9259336 28.8824451,34.1881938 29.2341344,32.7342132 C29.4078269,32.0019071 29.6273479,31.3318711 29.8597819,30.875224 C30.0972798,30.4233863 30.3309798,30.1819 30.5016339,30.2763176 L30.4588438,30.2213883 C30.9414355,29.7376562 31.3619941,29.2949313 31.8248365,28.8686598 C32.2676765,28.4279599 32.7753346,28.0130792 33.3293275,27.6078176 L33.7615332,27.3139332 C33.9078806,27.2162249 34.0696728,27.1319325 34.224882,27.0402993 C34.5307429,26.8519704 34.8811662,26.7043954 35.2219681,26.5459358 C35.934715,26.2629361 36.6963288,26.027778 37.543776,25.9310822 C37.543776,25.9310822 37.4976943,26.0037306 37.4035054,26.0849855 C39.3670409,24.7079564 41.7060661,23.5395068 44.0612959,22.4125705 C43.2366363,21.6559639 42.4053937,20.9029012 41.5500973,20.1612293 C40.3993212,19.98581 39.2224659,19.8407663 38.0058588,19.7443236 C36.789505,19.6471216 35.5290949,19.6063676 34.202854,19.6797754 C32.5740437,20.2619752 30.8973794,21.0094691 29.2870524,22.114383 L28.6884969,22.5363513 C28.4899912,22.6783574 28.2978154,22.8459297 28.1041204,23.0013517 C27.912451,23.1636082 27.7157176,23.3111832 27.5316441,23.4881213 L26.981449,24.0181763 C26.2565487,24.7373195 25.607354,25.5496148 25.0609569,26.385198 C23.9744926,28.0697804 23.2939016,29.8328332 22.8181462,31.4769148 C22.3482143,33.1232745 22.058558,34.6762291 21.7820679,36.1010998 L19.8666396,42.875627 C19.227826,45.1527875 18.5528053,47.6139738 18.2011159,50.3619567 C18.0894565,52.0412234 18.1041418,53.8144014 18.3720233,55.621752 L18.4203837,55.959681 L18.4846955,56.3087477 C18.5295112,56.5413745 18.5715418,56.7747607 18.6216746,57.0061218 C18.7343468,57.4650471 18.8381572,57.9265037 18.9834918,58.3763163 C19.2490944,59.2827761 19.599771,60.1636696 20.0038719,61.0225409 C20.4062004,61.8826777 20.8979072,62.7071233 21.4329105,63.5057495 L21.8600522,64.0914931 C22.0008293,64.2871628 22.1497085,64.4782762 22.3084625,64.6633145 L22.7783944,65.2209606 L23.2830141,65.7538 C24.6360939,67.1682923 26.2990856,68.3283887 28.0838647,69.1753628 C29.8706693,70.0068959 31.6486121,70.4541772 33.2865374,70.7490741 C34.9280075,71.0391614 36.4509818,71.1816738 37.8582455,71.3262112 C38.5621306,71.3948096 39.2224659,71.4697361 39.9071081,71.5499785 L41.99395,71.8084245 C43.4077969,71.9868814 44.8651934,72.172426 46.3732292,72.3197478 L47.7035213,72.1509099 L49.0467264,71.9519494 C50.8616358,72.3088632 52.9340456,72.4399847 55.1801479,72.1772354 C56.2982617,72.0613017 57.4632168,71.7960211 58.6256399,71.4537889 C58.9158026,71.3611432 59.2057121,71.2520441 59.4958748,71.1482606 C59.7855311,71.0404271 60.0769597,70.9424656 60.3628181,70.8126098 C60.9408647,70.5698578 61.4923257,70.2911613 62.0291014,70.0005677 C64.1759508,68.8240179 65.9181929,67.3738342 67.4647145,66.1198265 C67.8467873,65.8117668 68.2270878,65.505226 68.6051096,65.2004571 C68.9957911,64.8913849 69.3839406,64.5840847 69.7693051,64.2793158 C70.556998,63.6581339 71.3659594,63.0194861 72.1799848,62.3418562 L71.9470444,61.8619211 C72.7656273,61.0152001 73.1917562,60.6152542 73.4809062,60.4066748 C73.7703093,60.1998673 73.9179226,60.1667072 74.1506097,59.9495214 C75.0562921,58.7590494 75.8449978,57.4787161 76.4916605,56.1396567 C77.1193336,54.7937627 77.6029381,53.4035708 77.9617169,52.005532 C78.6564869,49.2038854 78.8395476,46.4040108 78.7205455,43.7233605 C78.6701595,42.3777196 78.5278633,41.0632138 78.3463217,39.7689584 C78.2528924,39.1186665 78.1597162,38.4939408 78.021218,37.7965668 C77.8865177,37.1072929 77.712572,36.3724555 77.4702633,35.6125582 C77.2264355,34.8519016 76.9094341,34.0639068 76.490901,33.2908468 C76.0708487,32.5106991 75.5604054,31.7875057 75.0411003,31.1698677 C73.9916026,29.923707 72.8795655,28.993453 71.8265231,28.181664 C67.6449901,25.0337352 63.0545454,22.7461963 58.3671267,21.2246299 C57.201412,20.8198744 56.0164545,20.5123211 54.8431439,20.1916049 C54.2509183,20.0536489 53.6607183,19.915946 53.0725438,19.7790025 C52.4848758,19.6395277 51.8893586,19.5484008 51.300931,19.4309483 C48.9393713,19.0107519 46.5841415,18.7102862 44.247395,18.6143498 C44.0228101,18.5692926 43.7402433,18.521451 43.4141268,18.4968973 C43.087757,18.4769 42.718344,18.4639904 42.3215858,18.4563965 C41.9243211,18.4510807 41.4997113,18.4404493 41.0624417,18.4520933 C40.6254253,18.4743687 40.1757491,18.4971505 39.7296176,18.5199322 C38.8355823,18.5495484 37.9567388,18.6626977 37.2067721,18.7163613 C36.4593373,18.7659749 35.8354622,18.8198916 35.446553,18.8006537 C33.8901568,19.2443912 32.1722215,19.7671054 30.3849105,20.7221661 C29.4875837,21.2013419 28.6143104,21.8096141 27.8296558,22.4788907 C27.0384181,23.1499392 26.3494717,23.910849 25.7524353,24.6945405 C25.1561586,25.4797508 24.6469813,26.293818 24.2231311,27.1053538 C23.8000405,27.9171428 23.4473384,28.7258943 23.1424903,29.5204704 C22.8363763,30.3155528 22.5867249,31.0934223 22.3626464,31.8512945 C22.1408467,32.6033448 21.9481645,33.3186911 21.7645973,34.0479596 L21.762825,33.8148266 C21.5716619,34.7364741 21.4045525,35.656856 21.256686,36.5747066 C21.1938934,36.6825402 21.1323668,36.6855777 21.1110983,36.5904007 C21.0247584,38.1785404 20.7105421,40.1524508 20.383666,42.193947 C20.0565367,44.2364557 19.7068729,46.3280717 19.4744389,48.1779482 L19.4356999,47.9569654 C18.9936196,53.3671201 18.9065202,58.7071577 19.1199644,63.9785969 C19.1475628,64.6374952 19.1708569,65.2842432 19.222762,66.0251557 C19.2741608,66.7564493 19.3506261,67.5477347 19.5027969,68.3896462 C19.6521826,69.2277607 19.880059,70.1213108 20.2259249,71.0141015 C20.5743226,71.9246114 21.0156434,72.729819 21.4572173,73.4322556 C21.9020828,74.1367174 22.3573293,74.753596 22.7897882,75.3114953 C23.2207279,75.8650913 23.6319183,76.3748958 24.0798221,76.9127978 C24.9687935,77.9759452 25.9362557,79.0520023 27.0374054,80.0741426 C28.1345039,81.0919797 29.3670623,82.0698221 30.714825,82.8783204 C32.0486619,83.6923876 33.4290868,84.33787 34.8044478,84.8636217 C37.5607402,85.9123407 40.2889278,86.5084626 42.9181157,86.994726 C44.2403055,87.2364655 45.5143881,87.4463105 46.8137903,87.6576743 C48.1195224,87.8680256 49.4779193,88.0702768 50.8942981,88.2132954 C52.3099173,88.3573266 53.7908611,88.4375689 55.3307995,88.3937774 C56.1022879,88.3674518 56.8869425,88.3089787 57.6819782,88.2117766 C58.4762542,88.1084995 59.2596428,87.9667465 60.0250545,87.794871 C62.9130088,87.2711443 65.5778974,86.1442081 67.9797153,85.0010714 C70.3941929,83.8475565 72.9421049,82.5148253 75.4895105,80.7454442 C76.7605548,79.8579693 78.0310926,78.8550669 79.2439018,77.6767451 C80.4567109,76.5050048 81.6024231,75.124432 82.5650745,73.5646428 C83.5231684,72.003588 84.2219896,70.352672 84.7461054,68.7450412 C85.2717405,67.1343729 85.6343172,65.5601553 85.9485335,64.0611174 C86.0470268,63.7935587 86.1860314,63.1756675 86.3359235,62.2924958 C86.4009949,61.8505302 86.4698642,61.3419913 86.5412655,60.7787763 C86.600007,60.214802 86.6549505,59.5956452 86.7086281,58.9324437 C86.8868781,56.2806503 86.8701672,52.9213575 86.5042989,49.6228161 C86.1721057,46.3174402 85.5127831,43.0839533 84.8754886,40.574166 C84.7147091,39.9471621 84.5501317,39.366228 84.4050503,38.8354137 C84.2460432,38.309662 84.102481,37.8350426 83.9776554,37.4216807 C83.7236997,36.6012853 83.498102,35.9879505 83.3872021,35.7274794" id="Fill-27" fill="#4390FF" transform="translate(52.477291, 51.142301) rotate(-180.000000) translate(-52.477291, -51.142301) "></path>
                    <path d="M69.807414,28.1418712 L69.807414,29.3614671 L66.1114673,29.3614671 L66.1114673,32.2528686 L69.3967532,32.2528686 L69.3967532,33.4587612 L66.1114673,33.4587612 L66.1114673,36.4597893 L69.807414,36.4597893 L69.807414,37.6793852 L64.5509565,37.6793852 L64.5509565,28.1418712 L69.807414,28.1418712 Z M78.0420023,28.1418712 L79.6025131,28.1418712 L79.6025131,37.6793852 L78.0420023,37.6793852 L73.3467812,30.5673597 L73.3467812,37.6793852 L71.7862704,37.6793852 L71.7862704,28.1418712 L73.3467812,28.1418712 L78.0420023,35.2401934 L78.0420023,28.1418712 Z M82.6080213,36.3912727 C81.6680598,35.4777132 81.1980861,34.3152261 81.1980861,32.9037765 C81.1980861,31.492327 81.6680598,30.3275561 82.6080213,29.4094287 C83.5479828,28.4913014 84.6978214,28.0322446 86.0575715,28.0322446 C87.0705397,28.0322446 87.9717029,28.2811858 88.761088,28.7790758 C89.5504732,29.2769657 90.123111,29.9826799 90.4790188,30.8962395 L88.6036681,30.8962395 C88.0926211,29.9370019 87.2439307,29.4573904 86.0575715,29.4573904 C85.0993583,29.4573904 84.3168293,29.7725637 83.709961,30.4029198 C83.1030926,31.0332759 82.799663,31.8668864 82.799663,32.9037765 C82.799663,33.9406666 83.1030926,34.7742772 83.709961,35.4046333 C84.3168293,36.0349894 85.0719812,36.3501627 85.9754394,36.3501627 C86.8788975,36.3501627 87.5975466,36.1103569 88.1314082,35.6307382 C88.6652699,35.1511194 88.9869509,34.500218 89.096461,33.6780144 L85.5237126,33.6780144 L85.5237126,32.4584185 L90.7664813,32.4584185 L90.7664813,33.6780144 C90.6204679,34.8199638 90.1094285,35.7860386 89.2333479,36.5762676 C88.3572673,37.3664966 87.2690272,37.7616052 85.968595,37.7616052 C84.6681629,37.7616052 83.5479828,37.3048323 82.6080213,36.3912727 Z M92.3620544,28.1555745 L93.9225652,28.1555745 L93.9225652,36.487196 L97.1394076,36.487196 L97.1394076,37.6793852 L92.3620544,37.6793852 L92.3620544,28.1555745 Z M98.5022729,37.6793852 L98.5022729,28.1555745 L100.062784,28.1555745 L100.062784,37.6793852 L98.5022729,37.6793852 Z M103.999123,29.6629402 C103.707096,29.9004657 103.561085,30.2453293 103.561085,30.6975412 C103.561085,31.1497532 103.734473,31.4946168 104.081255,31.7321423 C104.428037,31.9696678 104.847819,32.1432415 105.340615,32.2528686 C105.83341,32.3624958 106.326198,32.4881083 106.818993,32.62971 C107.311789,32.7713118 107.731571,33.0339562 108.078353,33.4176512 C108.425135,33.8013462 108.598523,34.344906 108.598523,35.0483469 C108.598523,35.7517877 108.301938,36.3821344 107.708758,36.9394057 C107.115579,37.496677 106.321643,37.7753085 105.326926,37.7753085 C104.332209,37.7753085 103.524585,37.5423543 102.904028,37.0764389 C102.283471,36.6105236 101.973197,35.9664737 101.973197,35.1442701 L103.643217,35.1442701 C103.67972,35.5645075 103.834857,35.8979518 104.108632,36.1446129 C104.382408,36.3912739 104.783939,36.5146026 105.313237,36.5146026 C105.842536,36.5146026 106.260037,36.3775708 106.565753,36.1035029 C106.871468,35.829435 107.024324,35.5051262 107.024324,35.1305668 C107.024324,34.7560074 106.930785,34.4636727 106.743706,34.253554 C106.556626,34.0434353 106.314795,33.8858487 106.018205,33.7807893 C105.721615,33.67573 105.395371,33.5820915 105.039464,33.4998712 C104.683556,33.4176508 104.325372,33.3217285 103.964901,33.2121014 C103.604431,33.1024742 103.275905,32.9608746 102.979315,32.7872983 C102.682726,32.613722 102.440895,32.360213 102.253815,32.0267638 C102.066735,31.6933145 101.973197,31.2845027 101.973197,30.8003162 C101.973197,29.968977 102.272063,29.2998047 102.869806,28.7927791 C103.467548,28.2857535 104.243233,28.0322446 105.196883,28.0322446 C106.150534,28.0322446 106.91253,28.2514956 107.482895,28.6900042 C108.05326,29.1285128 108.370378,29.7634271 108.434259,30.5947663 L106.709484,30.5947663 C106.67298,30.2293425 106.517844,29.9233046 106.244068,29.6766436 C105.970293,29.4299825 105.600702,29.3066538 105.135284,29.3066538 C104.669867,29.3066538 104.29115,29.4254147 103.999123,29.6629402 Z M116.545649,28.1555745 L118.10616,28.1555745 L118.10616,37.6793852 L116.545649,37.6793852 L116.545649,33.4724645 L112.069447,33.4724645 L112.069447,37.6793852 L110.508936,37.6793852 L110.508936,28.1555745 L112.069447,28.1555745 L112.069447,32.2665719 L116.545649,32.2665719 L116.545649,28.1555745 Z" id="ENGLISH" fill="#353535"></path>
                    <path d="M80.81048,79.1841116 C79.8705185,78.270552 79.4005448,77.1080649 79.4005448,75.6966154 C79.4005448,74.2851659 79.8705185,73.1203949 80.81048,72.2022676 C81.7504415,71.2841402 82.9002801,70.8250834 84.2600302,70.8250834 C85.2729984,70.8250834 86.1741616,71.0740247 86.9635467,71.5719147 C87.7529319,72.0698046 88.3255697,72.7755188 88.6814775,73.6890783 L86.8061268,73.6890783 C86.2950798,72.7298408 85.4463894,72.2502292 84.2600302,72.2502292 C83.301817,72.2502292 82.519288,72.5654025 81.9124197,73.1957586 C81.3055513,73.8261147 81.0021217,74.6597253 81.0021217,75.6966154 C81.0021217,76.7335055 81.3055513,77.5671161 81.9124197,78.1974722 C82.519288,78.8278283 83.301817,79.1430016 84.2600302,79.1430016 C85.4463894,79.1430016 86.2950798,78.66339 86.8061268,77.7041525 L88.6814775,77.7041525 C88.3255697,78.6177121 87.7529319,79.3211424 86.9635467,79.8144645 C86.1741616,80.3077867 85.2729984,80.5544441 84.2600302,80.5544441 C82.9002801,80.5544441 81.7504415,80.0976711 80.81048,79.1841116 Z M95.965062,70.93471 L95.965062,72.154306 L92.2691154,72.154306 L92.2691154,75.0457075 L95.5544013,75.0457075 L95.5544013,76.2516001 L92.2691154,76.2516001 L92.2691154,79.2526282 L95.965062,79.2526282 L95.965062,80.4722241 L90.7086046,80.4722241 L90.7086046,70.93471 L95.965062,70.93471 Z M104.343742,70.93471 L105.904253,70.93471 L105.904253,80.4722241 L104.343742,80.4722241 L99.6485207,73.3601985 L99.6485207,80.4722241 L98.0880099,80.4722241 L98.0880099,70.93471 L99.6485207,70.93471 L104.343742,78.0330323 L104.343742,70.93471 Z M107.671295,72.1680093 L107.671295,70.9484134 L114.31031,70.9484134 L114.31031,72.1680093 L111.777902,72.1680093 L111.777902,80.4722241 L110.217391,80.4722241 L110.217391,72.1680093 L107.671295,72.1680093 Z M121.347498,70.93471 L121.347498,72.154306 L117.651551,72.154306 L117.651551,75.0457075 L120.936837,75.0457075 L120.936837,76.2516001 L117.651551,76.2516001 L117.651551,79.2526282 L121.347498,79.2526282 L121.347498,80.4722241 L116.09104,80.4722241 L116.09104,70.93471 L121.347498,70.93471 Z M125.030957,76.6078865 L125.030957,80.4722241 L123.470446,80.4722241 L123.470446,70.9484134 L126.755732,70.9484134 C127.832581,70.9484134 128.66302,71.2156255 129.247073,71.7500579 C129.831127,72.2844902 130.12315,72.962798 130.12315,73.7850016 C130.12315,74.4244933 129.929228,75.0000272 129.54138,75.5116205 C129.153532,76.0232139 128.55808,76.3566581 127.755006,76.5119632 L130.273725,80.4722241 L128.370997,80.4722241 L125.989165,76.6078865 L125.030957,76.6078865 Z M125.030957,72.1680093 L125.030957,75.3882906 L126.755732,75.3882906 C127.348911,75.3882906 127.791508,75.246691 128.083535,74.9634875 C128.375562,74.6802841 128.521573,74.2851755 128.521573,73.7781499 C128.521573,73.2711244 128.375562,72.8760158 128.083535,72.5928123 C127.791508,72.3096089 127.348911,72.1680093 126.755732,72.1680093 L125.030957,72.1680093 Z" id="CENTER" fill="#353535"></path>
                    <path d="M47.2292868,60.9966673 C44.8561549,58.6926557 43.6696067,55.7608449 43.6696067,52.201147 C43.6696067,48.641449 44.8561549,45.7038783 47.2292868,43.3883466 C49.6024188,41.0728149 52.5054299,39.9150665 55.9384072,39.9150665 C58.4958601,39.9150665 60.7710374,40.5429002 62.7640074,41.7985866 C64.7569775,43.0542729 66.2027231,44.8340952 67.1012876,47.1381068 L62.3665674,47.1381068 C61.0763209,44.7188946 58.9336223,43.5093066 55.9384072,43.5093066 C53.519195,43.5093066 51.5435347,44.3041787 50.0113669,45.8939467 C48.4791992,47.4837147 47.7131269,49.5860938 47.7131269,52.201147 C47.7131269,54.8162001 48.4791992,56.9185792 50.0113669,58.5083472 C51.5435347,60.0981152 53.519195,60.8929873 55.9384072,60.8929873 C58.9336223,60.8929873 61.0763209,59.6833994 62.3665674,57.2641872 L67.1012876,57.2641872 C66.2027231,59.5681988 64.7569775,61.3422611 62.7640074,62.5864274 C60.7710374,63.8305936 58.4958601,64.4526675 55.9384072,64.4526675 C52.5054299,64.4526675 49.6024188,63.3006789 47.2292868,60.9966673 Z M75.551208,45.2027467 L75.551208,48.5205068 C76.7723341,46.1012946 78.6731152,44.8917067 81.2536082,44.8917067 L81.2536082,48.9697868 L80.2513682,48.9697868 C78.7076804,48.9697868 77.538412,49.3614629 76.743528,50.1448269 C75.948644,50.9281908 75.551208,52.2875373 75.551208,54.222907 L75.551208,64.2453074 L71.6113678,64.2453074 L71.6113678,45.2027467 L75.551208,45.2027467 Z M92.8139287,64.5563475 C90.0491148,64.5563475 87.8027371,63.6577964 86.0747284,61.8606673 C84.3467197,60.0635383 83.4827283,57.678922 83.4827283,54.7067471 C83.4827283,51.7345721 84.3582396,49.3557158 86.1092884,47.5701068 C87.8603373,45.7844978 90.1239947,44.8917067 92.9003287,44.8917067 C95.6766627,44.8917067 97.9288003,45.7499381 99.656809,47.4664268 C101.384818,49.1829154 102.248809,51.4235331 102.248809,54.188347 C102.248809,54.8565104 102.20273,55.4785842 102.110569,56.0545871 L87.5262485,56.0545871 C87.6184089,57.6443551 88.1540836,58.9057826 89.1332885,59.8389073 C90.1124935,60.772032 91.3393613,61.2385873 92.8139287,61.2385873 C94.9566595,61.2385873 96.4657645,60.3515562 97.3412889,58.5774672 L101.592169,58.5774672 C101.016166,60.328516 99.9678566,61.7627418 98.4472089,62.8801874 C96.9265613,63.997633 95.04882,64.5563475 92.8139287,64.5563475 Z M96.5809688,49.6091469 C95.5672037,48.6760222 94.334576,48.2094668 92.8830487,48.2094668 C91.4315214,48.2094668 90.2161735,48.6760222 89.2369686,49.6091469 C88.2577636,50.5422716 87.6990492,51.7921791 87.5608085,53.358907 L98.1361689,53.358907 C98.1131288,51.7921791 97.594734,50.5422716 96.5809688,49.6091469 Z M120.30641,54.7067471 C120.30641,52.7483372 119.736175,51.1931527 118.59569,50.0411469 C117.455204,48.8891411 116.101617,48.3131468 114.53489,48.3131468 C112.968162,48.3131468 111.614575,48.8776212 110.474089,50.0065869 C109.333604,51.1355526 108.763369,52.6792172 108.763369,54.6376271 C108.763369,56.5960369 109.333604,58.1685013 110.474089,59.3550673 C111.614575,60.5416332 112.968162,61.1349073 114.53489,61.1349073 C116.101617,61.1349073 117.455204,60.5531531 118.59569,59.3896273 C119.736175,58.2261014 120.30641,56.6651569 120.30641,54.7067471 Z M107.311849,61.7742673 C105.583841,59.919538 104.719849,57.5464416 104.719849,54.6549071 C104.719849,51.7633725 105.578081,49.4133159 107.294569,47.6046668 C109.011058,45.7960177 111.147997,44.8917067 113.70545,44.8917067 C115.203057,44.8917067 116.522084,45.2315433 117.66257,45.9112267 C118.803055,46.5909101 119.684327,47.4837012 120.30641,48.5896268 L120.30641,45.2027467 L124.28081,45.2027467 L124.28081,64.2453074 L120.30641,64.2453074 L120.30641,60.6856273 C119.661287,61.8606732 118.774255,62.7995439 117.64529,63.5022674 C116.516324,64.204991 115.203057,64.5563475 113.70545,64.5563475 C111.171037,64.5563475 109.039858,63.6289967 107.311849,61.7742673 Z M138.605931,48.4168268 L133.97489,48.4168268 L133.97489,58.9576272 C133.97489,59.6718708 134.141929,60.1845057 134.47601,60.4955473 C134.810092,60.8065889 135.380326,60.9621073 136.18673,60.9621073 L138.605931,60.9621073 L138.605931,64.2453074 L135.49553,64.2453074 C131.832152,64.2453074 130.00049,62.482765 130.00049,58.9576272 L130.00049,48.4168268 L127.75409,48.4168268 L127.75409,45.2027467 L130.00049,45.2027467 L130.00049,40.4680265 L133.97489,40.4680265 L133.97489,45.2027467 L138.605931,45.2027467 L138.605931,48.4168268 Z M145.915371,41.9541066 C145.431528,42.437949 144.838254,42.6798666 144.135531,42.6798666 C143.432807,42.6798666 142.839533,42.437949 142.355691,41.9541066 C141.871848,41.4702641 141.629931,40.8712301 141.629931,40.1569865 C141.629931,39.4427429 141.871848,38.8437089 142.355691,38.3598664 C142.839533,37.876024 143.432807,37.6341064 144.135531,37.6341064 C144.838254,37.6341064 145.431528,37.876024 145.915371,38.3598664 C146.399213,38.8437089 146.641131,39.4427429 146.641131,40.1569865 C146.641131,40.8712301 146.399213,41.4702641 145.915371,41.9541066 Z M142.148331,64.2453074 L142.148331,45.2027467 L146.088171,45.2027467 L146.088171,64.2453074 L142.148331,64.2453074 Z M148.939371,45.2027467 L153.155691,45.2027467 L158.547051,60.7201873 L163.938412,45.2027467 L168.189292,45.2027467 L160.931692,64.2453074 L156.162411,64.2453074 L148.939371,45.2027467 Z M179.023852,64.5563475 C176.259038,64.5563475 174.012661,63.6577964 172.284652,61.8606673 C170.556643,60.0635383 169.692652,57.678922 169.692652,54.7067471 C169.692652,51.7345721 170.568163,49.3557158 172.319212,47.5701068 C174.070261,45.7844978 176.333918,44.8917067 179.110252,44.8917067 C181.886586,44.8917067 184.138724,45.7499381 185.866733,47.4664268 C187.594741,49.1829154 188.458733,51.4235331 188.458733,54.188347 C188.458733,54.8565104 188.412653,55.4785842 188.320493,56.0545871 L173.736172,56.0545871 C173.828332,57.6443551 174.364007,58.9057826 175.343212,59.8389073 C176.322417,60.772032 177.549285,61.2385873 179.023852,61.2385873 C181.166583,61.2385873 182.675688,60.3515562 183.551212,58.5774672 L187.802093,58.5774672 C187.22609,60.328516 186.17778,61.7627418 184.657132,62.8801874 C183.136485,63.997633 181.258744,64.5563475 179.023852,64.5563475 Z M182.790892,49.6091469 C181.777127,48.6760222 180.5445,48.2094668 179.092972,48.2094668 C177.641445,48.2094668 176.426097,48.6760222 175.446892,49.6091469 C174.467687,50.5422716 173.908973,51.7921791 173.770732,53.358907 L184.346092,53.358907 C184.323052,51.7921791 183.804658,50.5422716 182.790892,49.6091469 Z" id="Creative" fill="#353535"></path>
                </g>
            </g>
        </g>
    </g>
</svg>