<?xml version="1.0" encoding="UTF-8"?>
<svg width="1024px" height="396px" viewBox="0 0 1024 396" version="1.1" xmlns="http://www.w3.org/2000/svg" xmlns:xlink="http://www.w3.org/1999/xlink">
    <!-- Generator: Sketch 44.1 (41455) - http://www.bohemiancoding.com/sketch -->
    <title>Fill 103 + Fill 65 + Fill 27 Mask</title>
    <desc>Created with Sketch.</desc>
    <defs>
        <rect id="path-1" x="0" y="0" width="1024" height="396"></rect>
    </defs>
    <g id="Page-1" stroke="none" stroke-width="1" fill="none" fill-rule="evenodd">
        <g id="website" transform="translate(0.000000, -616.000000)">
            <g id="what-we-do" transform="translate(0.000000, 616.000000)">
                <g id="Fill-103-+-Fill-65-+-Fill-27-Mask">
                    <mask id="mask-2" fill="white">
                        <use xlink:href="#path-1"></use>
                    </mask>
                    <use id="Mask" fill="#F9F9F9" xlink:href="#path-1"></use>
                    <g id="Group-4" mask="url(#mask-2)" opacity="0.186877264">
                        <g transform="translate(-30.000000, -30.000000)">
                            <path d="M694.932366,350.093583 C696.582593,348.490425 698.268897,346.856259 700.007926,345.232275 C698.314685,347.510203 696.828185,349.587737 695.402274,351.550495 C693.958325,353.551665 692.451012,355.661133 691.158765,358.07744 C689.855881,360.459962 688.824489,363.299736 688.392044,366.008073 C687.930461,368.726593 687.888836,371.421046 688.257917,373.907236 L688.379094,374.84812 L688.565022,375.754293 C688.696837,376.353626 688.810151,376.967306 688.969254,377.550441 C689.310122,378.700975 689.639427,379.869559 690.091298,380.948358 C690.496917,382.067884 691.007525,383.101329 691.513971,384.157914 C691.767888,384.685512 692.063893,385.173772 692.343248,385.685634 C692.626765,386.192406 692.910745,386.705658 693.231262,387.183736 C693.545768,387.669681 693.863048,388.158867 694.182641,388.651754 C694.516571,389.128444 694.86484,389.595877 695.213571,390.072104 C695.389323,390.308598 695.566001,390.546017 695.743604,390.784362 C695.929995,391.012525 696.117311,391.241614 696.305089,391.471628 C696.68527,391.927491 697.059439,392.400941 697.460896,392.850325 C699.054697,394.658969 700.85524,396.40282 702.84356,398.091597 C702.509167,397.903698 702.173387,397.683402 701.837144,397.474677 C702.34914,398.063366 702.910162,398.429907 703.831939,399.041273 C704.756955,399.648937 706.026539,400.50559 708.07036,401.909741 C709.090652,402.613668 710.315373,403.444867 711.82176,404.416296 C713.329998,405.384947 715.124528,406.494292 717.344103,407.667966 C718.452271,408.254341 719.663579,408.869872 721.013176,409.446528 C721.69075,409.73393 722.392374,410.030588 723.118512,410.338354 C723.846499,410.649359 724.618887,410.888167 725.411162,411.182048 C728.589515,412.28769 732.287265,413.292441 736.565461,413.928335 L736.558986,414.039872 C737.756419,414.053293 737.750406,413.862154 740.129083,414.190283 C738.147238,413.943608 736.182967,413.650189 734.240435,413.209599 C737.804519,413.279945 740.86817,412.816677 745.432659,412.360351 C746.419188,412.418201 746.773932,412.576944 746.890484,412.74957 C750.648359,412.27936 754.33362,411.440294 757.918518,410.303181 C759.101612,410.238851 760.262507,410.051414 761.450689,409.911184 C762.247127,409.547419 762.694835,409.159588 763.080566,408.813873 C763.463523,408.462603 763.775253,408.121516 764.264586,407.750809 C764.759932,407.394911 765.404205,406.933031 766.483698,406.413764 C766.752878,406.281864 767.04842,406.143485 767.374488,405.998165 C767.697319,405.843588 768.047899,405.676052 768.429931,405.493707 C769.200006,405.122999 770.099121,404.772193 771.185089,404.241818 C769.371596,404.678706 770.324362,403.953027 771.52827,403.130622 C772.731715,402.291093 774.167339,401.238674 773.532778,401.351598 C774.003611,401.2035 774.994303,400.701356 775.813867,400.302418 C776.92296,399.372642 778.249895,398.176753 779.556479,396.712436 C780.853813,395.233773 782.128485,393.470485 783.094201,391.533644 C784.060842,389.603282 784.706965,387.514179 784.897056,385.685634 C784.970132,385.240416 784.958569,384.79242 784.980307,384.387928 C784.983082,383.978808 785.014533,383.60301 784.971982,383.253129 C784.909081,382.555681 784.82953,381.990596 784.747666,381.588418 C784.747666,381.588418 784.72269,382.016976 784.677827,382.78153 C784.663489,382.971281 784.647302,383.181394 784.629726,383.410946 C784.603363,383.639109 784.55295,383.88347 784.508087,384.145881 C784.406335,384.667463 784.322159,385.266333 784.113105,385.880476 C784.016904,386.189167 783.917002,386.511279 783.812013,386.84635 C783.704711,387.178182 783.549771,387.497518 783.409631,387.836291 C783.139064,388.52402 782.764433,389.181204 782.377314,389.862453 C781.561913,391.183763 780.579546,392.502296 779.437152,393.62645 C778.309096,394.769579 777.082063,395.804875 775.820342,396.673561 C775.201969,397.130813 774.554458,397.511701 773.937935,397.904623 C773.303837,398.265149 772.694252,398.628914 772.084667,398.931589 C771.477394,399.239817 770.895097,399.532773 770.326675,399.775283 C769.765653,400.033065 769.226369,400.252898 768.720386,400.443111 C768.219027,400.64582 767.748657,400.802711 767.322687,400.933222 C766.897643,401.067436 766.517924,401.181286 766.191856,401.271996 C766.993844,400.888793 767.626092,400.598614 768.10155,400.347773 C768.575158,400.090916 768.903539,399.906257 769.114905,399.780836 C769.535324,399.526293 769.484911,399.505467 769.202319,399.617466 C768.914176,399.720209 768.38553,399.939116 767.844858,400.154783 C767.297249,400.353327 766.733452,400.539375 766.385647,400.622217 L766.091029,401.074378 C762.175439,402.718725 761.884984,401.99536 759.898051,402.608115 C759.917014,402.658561 759.998415,402.696048 760.076116,402.737238 L760.290257,402.554892 C760.515499,402.592379 760.437797,402.71132 760.254182,402.856179 C760.303208,402.913566 760.293032,402.98669 760.136242,403.093135 C759.981302,403.204208 759.675585,403.341199 759.126588,403.501329 L759.309741,403.364339 C757.697439,404.057159 754.769765,404.833283 753.477519,405.069314 L753.318878,404.531997 C751.974368,405.43817 746.729531,406.197634 741.45833,405.731589 C738.823886,405.576549 736.208868,405.05543 734.036006,404.591699 C732.956976,404.299206 731.975072,404.071968 731.152733,403.838252 C730.334557,403.58556 729.661608,403.393958 729.177363,403.286125 C728.705605,403.111184 728.236622,402.885335 727.742664,402.70623 C727.251018,402.521107 726.742722,402.351258 726.219163,402.192053 C725.706242,402.004154 725.183146,401.813015 724.64525,401.634372 C724.108741,401.451564 723.554194,401.289582 723.00936,401.073915 C720.813373,400.268171 718.535985,399.223619 716.513901,397.7556 C714.858586,396.658288 713.90027,395.859023 713.30826,395.30412 C712.713475,394.753381 712.496559,394.425252 712.372607,394.181816 C712.136728,393.681524 712.289356,393.476038 710.945771,392.026994 C707.503326,388.498566 711.255188,393.181694 709.754351,391.900186 C708.435741,390.385424 707.246171,388.833174 706.153728,387.221223 C708.485692,389.642158 707.491301,388.058438 707.225359,387.483634 C705.575131,385.644908 703.830552,382.988404 702.630807,380.650774 C702.347752,380.060235 702.04481,379.507182 701.78858,378.987452 C701.549464,378.463093 701.311735,377.985478 701.077243,377.567565 C700.693825,376.716928 700.258605,376.113893 699.909874,375.865829 C699.755396,375.111456 699.584731,374.4589 699.55143,373.881319 C699.490379,373.305127 699.421466,372.809462 699.449679,372.379516 C699.457541,371.949107 699.453841,371.579788 699.474654,371.257675 C699.52183,370.940654 699.562993,370.664822 699.600456,370.413518 C699.643932,370.165917 699.656882,369.940994 699.710996,369.734583 C699.766959,369.528172 699.815985,369.332405 699.858998,369.131547 C699.902011,368.931615 699.939012,368.725667 699.969075,368.499355 C700.011626,368.27582 700.086552,368.039789 700.138353,367.76442 C700.055101,367.940286 699.9626,368.163358 699.865011,368.40124 C699.799797,368.648841 699.731346,368.908012 699.66937,369.144043 C699.602769,369.381925 699.53478,369.598981 699.469104,369.758186 C699.406203,369.916928 699.37059,370.021522 699.310001,370.024299 C699.918662,367.851427 699.254038,368.943185 699.072272,369.866019 C699.048685,369.649427 699.059322,369.392107 699.069035,369.096374 C699.076898,368.948739 699.085223,368.791385 699.094473,368.625701 C699.103261,368.460479 699.112973,368.286002 699.161536,368.111524 C699.240625,367.760255 699.326652,367.379829 699.418691,366.974874 C699.536168,366.57825 699.717933,366.175146 699.871023,365.749365 C700.531022,364.075398 701.897732,362.20011 703.470258,360.316955 C704.298147,359.344601 705.108923,358.391685 705.864198,357.504949 C706.639361,356.588595 707.346073,355.749066 707.937621,355.008114 C709.121178,353.536393 709.855178,352.487213 709.753888,352.121597 L709.929179,352.259976 C709.832977,350.915063 708.131411,351.616676 709.626236,348.958784 L711.216338,347.685144 C711.770422,346.850243 712.318494,346.000532 712.900791,345.18692 C714.468692,343.914205 713.982596,344.815287 714.06076,344.882394 C715.552348,342.985355 717.63132,340.990663 719.999822,339.237557 C722.365549,337.483061 724.998143,335.940993 727.535923,334.795087 L725.918996,334.910789 C725.380637,334.970028 724.845053,335.05287 724.297444,335.128307 C723.74521,335.196802 723.208701,335.307876 722.661554,335.414321 C722.115332,335.523543 721.555235,335.623972 721.014101,335.768367 C722.12412,335.162555 723.492218,334.513239 724.927842,333.905112 C725.647504,333.603826 726.402779,333.352523 727.129379,333.069749 C727.847653,332.772628 728.599228,332.56853 729.303165,332.34407 C732.115212,331.433731 734.503602,330.917703 734.87962,330.408617 C735.392542,330.416948 735.89945,330.417874 736.405896,330.434997 L737.931246,330.55255 C738.549157,330.537277 739.104629,330.483129 739.62495,330.485443 C740.144808,330.484055 740.616104,330.475261 741.045311,330.460452 C741.474518,330.445179 741.861175,330.424353 742.212218,330.397047 C742.564649,330.3827 742.883317,330.376221 743.169146,330.354469 C744.314316,330.283197 744.964139,330.086042 745.440984,329.91573 C746.392363,329.588063 746.627317,329.097952 748.594362,329.326578 L751.043803,329.847234 C751.852729,330.049018 752.653792,330.278569 753.448843,330.490071 C752.643617,330.426667 751.839316,330.347527 751.033165,330.293842 L748.6124,330.221181 C749.21551,330.297081 749.773294,330.366965 750.295465,330.433146 C750.815787,330.496088 751.299107,330.561343 751.75329,330.660384 C752.661655,330.840878 753.462256,330.991752 754.225394,331.172246 C754.980206,331.385137 755.705881,331.59016 756.474569,331.807215 C757.239556,332.018255 758.025819,332.341293 758.92586,332.648596 C758.92771,332.639802 758.969798,332.641191 758.971185,332.632398 C758.722819,332.547241 758.566029,332.473192 758.541978,332.413491 L759.197814,332.514382 C759.361079,332.434317 759.644597,332.366284 760.021078,332.363508 C760.397097,332.361656 760.873017,332.395904 761.432189,332.465788 C762.560245,332.572696 763.982456,332.955436 765.597071,333.458505 C766.154393,333.679263 766.699227,333.883823 767.241748,334.076813 C767.781957,334.274431 768.329567,334.438727 768.852663,334.666427 C769.907643,335.100539 771.000549,335.479114 772.113805,336.055306 C774.370842,337.112817 776.855434,338.622488 779.649443,341.252149 L780.699336,341.438659 L781.73304,341.674227 C782.431427,342.3527 783.133051,343.018677 783.7764,343.747133 L784.760616,344.810659 C785.084834,345.16702 785.382689,345.550222 785.694419,345.917227 L785.175485,346.444363 C783.22324,344.470035 780.129064,341.886655 776.550641,339.700825 C775.673727,339.126483 774.735761,338.632207 773.810746,338.125435 L773.118834,337.744083 L772.40981,337.402996 C771.938514,337.175758 771.469532,336.950372 771.005174,336.726374 C770.546366,336.488955 770.070446,336.313552 769.609788,336.117785 C769.148205,335.924795 768.692635,335.735045 768.245853,335.548072 C767.3435,335.190786 766.448085,334.904309 765.619734,334.594693 L765.393568,334.87145 C767.364775,335.568435 769.456235,336.302907 771.330779,337.166965 C771.800225,337.38217 772.259495,337.592283 772.704427,337.795918 C773.152597,337.993536 773.557754,338.240211 773.958748,338.44801 C774.752411,338.881196 775.479473,339.263011 776.042808,339.672131 C776.307362,339.887335 776.662106,340.205745 777.005286,340.545907 C777.177339,340.715757 777.346155,340.89116 777.499707,341.061935 C777.646785,341.24243 777.778137,341.419684 777.883589,341.579815 C778.306321,342.222189 778.300771,342.610482 777.167627,342.09862 C777.983953,342.397592 778.822479,342.686383 779.652218,343.007569 C782.419864,345.093896 784.269433,346.947895 785.793396,348.508012 C786.519533,349.323475 787.216994,350.025551 787.784954,350.771593 C788.370026,351.502826 788.940761,352.181299 789.435644,352.922713 C789.949028,353.64978 790.468886,354.376848 790.947582,355.20203 C791.194561,355.608373 791.449403,356.027674 791.715345,356.465488 C791.954461,356.917649 792.204215,357.388785 792.467382,357.884913 C793.486287,359.877753 794.642556,362.327845 795.667473,365.711415 C795.639723,365.28656 795.594397,364.864018 795.557859,364.435461 C795.715111,364.752945 795.872364,365.070892 796.027767,365.385137 C796.173457,365.702159 796.298796,366.022883 796.429223,366.333888 C796.679903,366.962378 796.933819,367.546439 797.100322,368.11245 C797.445353,369.235678 797.595205,370.175636 797.407427,370.655103 C797.949486,372.838619 798.416157,375.19291 798.929078,377.630043 C799.185769,378.848147 799.455411,380.086614 799.752804,381.331098 C800.051584,382.579284 800.369327,383.791372 800.664869,384.913675 C801.258729,387.161058 801.769337,389.15575 802.061642,390.869055 C802.367822,392.58884 802.448299,394.018446 802.365972,395.156485 C802.689728,395.439722 803.024121,395.728049 803.331689,396.036741 C803.373777,396.770287 803.031521,397.716261 802.815992,398.549774 C802.581964,399.39532 802.476974,400.152469 803.024121,400.63101 C802.999146,401.801908 802.897394,403.028342 802.724416,404.30152 C802.077368,406.678026 802.089855,408.340886 800.672269,411.145486 L800.671807,411.145486 C800.667182,411.15104 800.663944,411.161222 800.663944,411.161222 C800.575605,411.335699 800.481716,411.51897 800.384589,411.693911 C800.41049,411.702241 800.437315,411.692522 800.464603,411.683266 C799.323597,414.589684 799.510912,414.610973 799.652902,414.764162 C799.789342,414.897913 799.900344,415.20105 798.520683,418.351367 C797.86161,419.278366 797.907861,419.921666 797.948561,420.728336 C797.971687,421.134216 797.990187,421.575269 797.906473,422.091298 C797.824147,422.608714 797.660419,423.226559 797.279775,423.930949 C796.468536,424.751503 795.629547,425.509116 794.793796,426.224613 C793.995508,427.360337 793.408123,428.236428 792.91509,429.044949 C792.661173,429.439722 792.441019,429.828941 792.227341,430.217235 C791.998399,430.58748 791.781946,430.964666 791.559942,431.363141 C791.094197,432.134175 790.589601,432.97463 789.832476,433.907183 C789.738587,434.025661 789.642847,434.146916 789.544333,434.271411 C789.437957,434.386186 789.32788,434.504202 789.21549,434.624994 C788.987012,434.865653 788.74697,435.11927 788.493053,435.387235 C788.225261,435.640389 787.927406,435.887527 787.617989,436.158731 C787.461199,436.291556 787.305333,436.433638 787.134206,436.568777 C786.957528,436.698825 786.776225,436.832113 786.589834,436.969566 C785.009445,437.834087 783.576134,438.185356 782.838896,438.101588 C782.081309,438.011804 782.02442,437.481429 782.814383,436.483158 C782.257987,437.137102 781.88243,437.551313 781.608626,437.843806 C781.341296,438.140001 781.162306,438.312165 780.942152,438.483403 C780.718298,438.654178 780.473632,438.83097 780.000024,439.116521 C779.533816,439.404386 778.862717,439.807952 777.773512,440.440144 C776.863759,440.318426 777.34523,440.012975 778.150918,439.179925 C776.047433,439.819985 775.40686,440.187915 774.961927,440.568341 C774.494332,440.949693 774.20619,441.330119 772.539774,442.006741 C771.904751,443.233638 771.320142,445.008959 770.230936,445.541648 L771.658235,445.235271 C770.808608,445.72168 769.923368,446.212716 769.004365,446.710232 C768.0849,447.205434 767.132597,447.71128 766.199256,448.188433 C764.3298,449.140886 762.446006,449.996613 760.536774,450.530691 L760.504861,450.060943 C759.877238,450.358527 759.258865,450.638062 758.64743,450.887514 L756.781674,451.552102 L756.398255,451.070322 C755.966273,451.239246 755.498215,451.306353 755.046345,451.422517 L753.679634,451.747406 C752.750919,451.906149 751.810178,452.035734 750.869437,452.174113 C751.134454,452.209286 751.395771,452.216691 751.660788,452.239831 C751.494748,452.268988 751.281532,452.306475 751.03039,452.350442 C750.776473,452.380987 750.480468,452.396722 750.157176,452.423565 C749.832958,452.446705 749.479602,452.47216 749.107746,452.499002 C748.734964,452.520291 748.34507,452.566572 747.938064,452.54158 C747.127287,452.515663 746.279048,452.50687 745.472897,452.434672 C744.665359,452.32545 743.902221,452.202807 743.267198,452.064891 L743.401325,451.758976 C739.864991,450.800044 736.6501,450.02253 733.260843,448.982144 C729.892862,447.930187 726.336178,446.586663 722.660166,444.182852 L723.977851,444.264305 C723.447355,443.727914 723.108799,443.488181 722.849795,443.390992 C722.599115,443.284084 722.428913,443.321571 722.235122,443.359984 C721.853553,443.432644 721.36792,443.502528 720.045148,442.310804 L720.403129,441.574017 C719.654791,441.290781 719.089144,440.97561 718.649762,440.642853 C718.207605,440.31565 717.914375,439.906067 717.66277,439.525178 C717.413941,439.13457 717.220151,438.734706 717.008322,438.325586 C716.799269,437.912764 716.594378,437.465694 716.28681,437.018161 L716.259522,438.477849 L714.898362,436.939021 C714.445567,436.426696 714.030697,435.874106 713.595015,435.346508 C712.889691,434.462549 712.543735,433.779449 712.356419,433.337932 C712.177429,432.887622 712.193617,432.639559 712.317106,432.511362 C712.565473,432.254967 713.238422,432.473412 713.652828,432.54746 C713.231484,432.245711 712.796727,431.953218 712.379082,431.638048 L711.130774,430.670784 L711.51003,429.649373 C710.426375,429.066701 710.145632,428.564094 709.787651,427.879605 C709.604036,427.540369 709.42967,427.123844 709.122103,426.620311 C708.821935,426.108911 708.37469,425.525777 707.747067,424.736693 C707.875182,424.275739 708.562931,425.028261 707.994509,423.79905 C706.493671,422.165809 705.05851,420.414553 703.639999,418.611001 C704.029893,419.177475 704.4406,419.721271 704.837894,420.275249 C705.232875,420.831078 705.642195,421.371172 706.057527,421.90201 L704.642253,422.130636 C703.171941,420.517296 702.534605,419.19645 702.063772,417.975569 C701.577214,416.764407 701.276584,415.624517 700.44592,414.306447 L701.715042,416.06048 C699.277163,411.636523 699.724871,411.112627 698.861369,408.356621 C698.976996,409.280381 699.175874,410.687309 698.202295,408.845806 C697.543222,407.465721 698.315147,407.901683 697.897965,406.511416 C697.418807,406.52206 696.716721,405.714465 696.025734,404.491733 C695.335673,403.262059 694.673362,401.638537 694.30058,400.040007 C694.434245,400.033065 694.573922,400.05528 694.725625,400.224667 C694.299193,399.501302 693.925487,399.174099 693.66047,397.76393 L694.875015,398.216554 C694.276992,397.473289 693.684058,396.725858 693.116561,395.974262 C692.971333,395.084287 692.568026,394.086941 692.299309,393.309891 C692.031517,392.534692 691.89554,391.985805 692.245658,392.018201 L692.667466,392.909102 C692.177207,390.813981 691.847439,388.767919 691.750313,386.80007 C691.661974,384.831296 691.775751,382.832439 692.085168,380.79517 L692.896407,380.732691 C692.779855,380.566081 692.710479,380.338381 692.679491,380.067177 C692.661915,379.793659 692.682266,379.477563 692.725742,379.136475 C692.794193,378.457539 693.030534,377.671696 693.2234,376.940926 C693.434303,376.206917 693.655382,375.519188 693.709958,375.018895 C693.790434,374.5149 693.716433,374.195101 693.357527,374.202043 C694.035101,373.118153 694.716837,370.725912 695.423087,368.804344 C696.126561,366.885553 696.80506,365.471682 697.214841,366.487077 C698.123669,364.381775 698.906232,362.450488 699.628669,360.572424 C699.985725,359.629226 700.333531,358.71102 700.679024,357.797442 C701.014342,356.908856 701.340873,356.030451 701.682204,355.192311 C702.361165,353.496129 703.108115,351.886492 704.093256,350.340721 C704.591377,349.583572 705.148699,348.845397 705.787885,348.155354 C706.429383,347.470865 707.159683,346.847929 707.994509,346.302281 C708.745622,346.111605 709.663699,345.733493 710.89952,345.235515 C712.121465,344.737536 713.669479,344.147459 715.461696,343.54211 C716.356649,343.238509 717.315427,342.932595 718.312594,342.624367 C719.314386,342.315675 720.349478,342.000968 721.303169,341.730227 C723.223963,341.182265 724.950967,340.787492 726.390754,340.607923 C727.086828,340.468619 727.747751,340.361711 728.378612,340.287662 C729.00531,340.220555 729.61397,340.174275 730.244368,340.163167 C731.496376,340.130771 732.78261,340.21315 734.096132,340.377909 C736.725489,340.705113 739.432546,341.341007 742.307032,342.09538 C748.16423,343.668456 754.03854,345.226259 760.779128,347.687458 C762.602796,348.927776 764.735419,350.013518 766.936031,351.182102 C767.491965,351.466727 768.059925,351.746262 768.637597,352.022094 C769.212956,352.302554 769.777678,352.618187 770.3609,352.909754 C770.944585,353.202247 771.532895,353.496592 772.12398,353.792787 C772.711365,354.095462 773.287187,354.425442 773.875497,354.738761 C778.563475,357.249944 783.165427,360.257253 786.206878,363.644063 L787.37841,364.191099 L787.967645,364.466931 L788.537917,364.766367 C790.348172,367.248855 793.002966,369.921556 795.640185,373.039476 C798.279717,376.138884 800.792521,379.775146 802.289659,383.665952 C802.94457,384.461514 803.364527,385.111756 803.681807,385.597701 C803.999087,386.084573 804.198891,386.414553 804.315905,386.619576 C804.179928,386.269232 804.049038,385.696742 804.379731,385.326035 C804.572134,385.897599 804.875077,386.581163 805.20207,387.290644 C805.492525,388.013083 805.795005,388.76653 806.066497,389.441763 C806.198311,389.780074 806.317638,390.101261 806.414765,390.391903 C806.505879,390.683007 806.56323,390.945418 806.598381,391.164325 C806.665444,391.602602 806.609018,391.868715 806.363427,391.871492 L806.062797,391.356389 C805.569301,391.365645 806.326889,392.952605 807.026663,394.860752 C807.755575,396.768899 808.311047,399.001009 808.037705,400.164965 C808.326309,399.719283 808.570514,399.246759 808.829518,398.762665 C809.005271,400.103412 809.082047,401.413151 809.034871,402.664114 C808.956708,402.326729 808.895657,401.995823 808.811018,401.660289 C809.191661,403.701261 809.224962,405.574235 808.92572,407.250053 C808.66579,408.918004 808.021517,410.536897 807.212128,412.099791 C806.390715,413.66176 805.38846,415.153844 804.298792,416.609367 C803.216524,418.054709 802.015392,419.519951 800.84941,420.904664 C798.510971,423.668538 796.189644,426.138531 793.608851,428.378972 C792.316142,429.496647 790.964232,430.568504 789.466632,431.55104 C787.989845,432.54237 786.286429,433.486493 784.27637,434.439409 C785.188898,433.542955 784.440561,433.976604 783.34488,434.462549 C782.247349,434.950346 780.754837,435.464523 780.490745,434.91795 C778.09588,434.767075 775.977594,435.262277 773.92591,435.943064 C771.890414,436.619223 769.968694,437.459214 768.018761,437.898417 C768.026161,437.955805 767.986848,438.028928 767.77132,438.14648 C765.463869,438.378809 763.154568,438.540328 760.849429,438.625947 C762.861338,437.751245 761.642167,438.143241 760.378134,438.552361 C759.1104,438.951762 757.791791,439.367361 759.663097,438.653715 C757.406522,438.618079 755.076408,438.54727 752.689868,438.413056 C751.49706,438.346412 750.28899,438.258942 749.072132,438.160365 C747.871,438.051143 746.663392,437.932664 745.468272,437.771608 C744.27454,437.608701 743.07942,437.428669 741.914363,437.188936 C740.742831,436.96031 739.592574,436.684941 738.482556,436.353109 C737.363749,436.033774 736.293044,435.646868 735.27599,435.208129 C734.249685,434.776794 733.297844,434.271873 732.420929,433.710491 C731.967672,433.441138 731.573615,433.127356 731.155046,432.830235 C730.754052,432.506271 730.34612,432.172125 729.915525,431.765319 C729.060811,430.98179 728.13302,430.006196 727.082665,428.935264 C726.03601,427.865721 724.827015,426.674922 723.409429,425.526239 C722.684679,424.954675 721.928479,424.388201 721.091803,423.87171 C720.265301,423.339947 719.402725,422.895653 718.584548,422.498566 C716.949584,421.732161 715.411745,421.175406 714.049198,420.687609 C712.690812,420.199812 711.455917,419.764775 710.4606,419.314002 C709.950454,419.090467 709.513384,418.861841 709.11609,418.636455 C708.733596,418.404127 708.398278,418.19355 708.077298,417.926049 C707.427475,417.409558 706.814189,416.759316 706.219867,415.975324 C706.265193,416.234495 706.314681,416.491815 706.369719,416.742655 C705.732384,416.005869 705.052035,415.09044 704.360123,414.020434 C704.015555,413.484042 703.661274,412.912478 703.315781,412.309442 C702.978613,411.70039 702.642832,411.093189 702.311677,410.494319 C702.149336,410.193496 701.977746,409.898689 701.829744,409.597402 C701.685904,409.294265 701.542989,408.993441 701.402849,408.696783 C701.123957,408.102078 700.85894,407.520332 700.613348,406.957097 C700.178591,405.808414 699.809972,404.737483 699.592131,403.783178 C699.407128,402.817766 699.067647,401.86994 698.675903,400.951734 C698.324398,400.023809 697.898428,399.131058 697.469683,398.306801 C696.710246,396.641164 695.91242,395.243492 695.767655,394.502541 C695.397649,393.489922 695.134944,392.469899 695.057705,391.537809 C695.006367,391.07269 694.975842,390.632562 694.961504,390.228995 C694.954566,390.027212 694.951329,389.834222 694.951791,389.651877 C694.961504,389.469532 694.977229,389.296905 694.992954,389.136775 C695.123844,387.853878 695.390249,387.336924 695.432799,388.232453 C695.365736,387.677086 695.268146,387.127273 695.177957,386.576072 C695.112281,386.024871 695.033193,385.472744 694.946704,384.913675 C694.7395,383.792297 694.654861,382.652871 694.544784,381.44356 C694.474483,380.836822 694.495759,380.224993 694.500384,379.589561 C694.519346,378.956906 694.512409,378.297409 694.595198,377.630043 C694.684924,376.963603 694.795464,376.276337 694.932366,375.566857 C694.967979,375.390065 695.004055,375.211422 695.040593,375.030928 C695.092856,374.854599 695.146044,374.676882 695.199695,374.496851 C695.308847,374.138639 695.426324,373.774411 695.552126,373.406481 C695.771817,373.187111 695.960058,372.759016 696.172349,372.192542 C696.409153,371.633473 696.645957,370.927695 696.879523,370.124265 C697.389207,368.534528 698.014517,366.582415 698.789218,364.783027 C698.880794,364.553939 698.971908,364.32485 699.062097,364.098075 C699.172637,363.880094 699.281788,363.662576 699.390478,363.447834 C699.609244,363.017425 699.823848,362.596735 700.030126,362.190854 C700.41817,361.362895 700.917678,360.671001 701.320523,360.067966 C702.115111,358.849862 702.850498,358.191753 703.152516,358.3778 L703.102565,358.250529 C705.97335,355.483878 708.64017,352.734351 711.736196,350.232425 C714.810948,347.744846 718.36347,345.551611 722.55564,344.439027 C722.55564,344.439027 722.4414,344.59962 722.208296,344.800478 C722.804469,344.329805 723.444117,343.957246 724.08099,343.550903 C724.722488,343.159832 725.358899,342.71739 726.026298,342.356402 C727.368958,341.667748 728.724105,340.86478 730.162967,340.302009 C730.878004,340.001648 731.597203,339.664263 732.333515,339.387968 L734.57714,338.625728 C734.955934,338.503084 735.335653,338.359152 735.719997,338.252244 L736.880429,337.960676 L739.242918,337.373839 C737.469201,335.851209 735.502618,334.205936 733.377395,332.890643 C727.234368,332.191807 720.759722,332.566679 714.371103,334.090235 C706.541772,337.927817 699.49408,343.320889 694.049901,350.225946 L693.028684,351.51671 C692.683191,351.941103 692.394123,352.417792 692.075456,352.866713 L691.145815,354.235229 C690.834085,354.689704 690.52513,355.145105 690.258263,355.634753 C689.704641,356.597851 689.145932,357.555858 688.611735,358.527749 L687.180736,361.559125 C685.441707,365.615152 684.23225,369.853987 683.539876,374.148358 C682.76425,377.54211 682.438182,381.000655 682.302205,384.447167 L682.273992,387.033324 C682.275842,387.894605 682.341056,388.748018 682.375281,389.607448 L682.43957,390.896361 C682.465933,391.324456 682.521896,391.746997 682.562134,392.173704 L682.834089,394.729778 C683.791017,401.494142 685.636423,408.088194 688.332843,414.278679 C689.198195,416.148413 690.195362,417.925123 691.187441,419.732378 C692.231321,421.538708 693.475467,423.537102 695.147432,425.527165 C695.982721,426.519883 696.926699,427.506121 697.989542,428.432195 C699.043135,429.352715 700.24843,430.232045 701.47685,430.949856 C702.696483,431.668593 703.87449,432.225811 704.969708,432.687691 C706.056602,433.140314 707.065331,433.507782 707.990346,433.835911 L710.481876,434.717092 C711.212638,434.986445 711.863849,435.241451 712.37492,435.481647 C712.897091,435.727397 713.252297,435.927328 713.640803,436.18002 C714.030235,436.430398 714.461754,436.780279 714.938137,437.196804 C715.889978,438.023837 717.030985,439.246569 718.454121,440.693762 C719.164533,441.415738 719.972997,442.203896 720.873499,442.99807 C721.314731,443.392843 721.811927,443.799186 722.304498,444.190257 C722.813256,444.568831 723.323402,444.953885 723.841411,445.314874 C728.021556,448.162053 732.469493,449.761508 736.708376,450.773664 C740.963447,451.776563 745.110291,452.21484 749.107283,452.412458 C757.064728,452.805842 764.972223,452.301384 772.699802,451.121693 C774.862951,450.445535 776.974298,449.714765 779.093046,448.934475 C781.40096,448.71418 783.840226,448.335605 786.388643,447.709892 C788.935211,447.077237 791.597868,446.200683 794.284575,444.916861 C795.630935,444.271247 796.957407,443.518726 798.233928,442.708816 C799.494725,441.881783 800.73332,441.00523 801.879414,440.053239 C804.200278,438.168232 806.259362,436.075889 808.116331,433.951612 C809.978387,431.823633 811.634165,429.660943 813.201141,427.563046 C814.764417,425.463761 816.390132,423.224708 817.918257,420.741757 C819.44222,418.26112 820.878769,415.512981 821.928662,412.44273 C822.458233,410.906216 822.85044,409.316479 823.151532,407.757288 C823.435049,406.194394 823.62329,404.643533 823.712554,403.130159 C823.406836,402.960773 823.108056,402.793237 822.794939,402.634958 C822.753775,400.983668 822.680699,399.795646 822.628898,398.907985 C822.578948,398.018011 822.566922,397.418678 822.56831,396.972996 C822.587273,396.070988 822.709375,395.759983 822.633523,394.975991 C821.885186,391.365645 820.754355,388.009381 819.440833,384.848882 L818.41314,382.504773 L817.895132,381.334338 L817.322085,380.194911 L816.169053,377.917908 C815.778234,377.16261 815.336077,376.439245 814.920745,375.699682 C811.539351,369.817425 807.475758,364.383626 802.873806,359.531112 C793.687478,349.802016 782.60718,342.143975 770.709631,336.876323 C764.78722,334.2462 758.842608,332.208005 753.048774,330.353544 C751.60575,329.899994 750.165501,329.446908 748.728952,328.99521 C747.305353,328.552768 745.858166,328.102458 744.355016,327.663256 C741.354266,326.789016 738.157875,325.963371 734.718205,325.496401 C732.999989,325.264535 731.222109,325.125694 729.404917,325.127082 C727.578011,325.122454 725.762206,325.277494 724.052315,325.527409 C720.616345,326.030941 717.514768,326.890833 714.675896,327.71833 C711.824535,328.558321 708.827023,329.493651 705.745334,330.868183 C704.207958,331.553598 702.649307,332.353326 701.109619,333.331234 C699.563456,334.304514 698.068631,335.471246 696.730596,336.705548 C695.597452,337.562664 694.090139,339.077426 692.66099,340.942995 C691.236004,342.805324 689.897969,344.997633 688.793038,347.082108 C687.682557,349.169361 686.750142,351.149243 685.966191,352.71769 C685.179928,354.290303 684.490329,355.595414 683.995446,356.313688 C682.767025,359.821753 681.448416,363.45385 680.319897,367.343267 C679.737137,369.267612 679.242254,371.288683 678.783909,373.329192 C678.362102,375.396544 677.988395,377.501383 677.777029,379.677032 C677.571676,381.849903 677.455586,384.063964 677.569363,386.304405 C677.639665,388.544846 677.928732,390.761684 678.318626,392.866986 C679.110902,397.093325 680.354585,400.955437 681.652844,404.533848 L681.358227,404.025225 C682.244391,406.269369 683.163857,408.396422 684.083785,410.490617 C684.124485,410.789589 684.036609,410.864101 683.887681,410.686846 C685.742337,414.125028 687.678395,418.786404 689.958095,423.693993 C691.072739,426.150101 692.324747,428.654341 693.598494,431.096103 C694.274217,432.305413 694.90184,433.517963 695.610402,434.6722 C695.957745,435.251633 696.300926,435.825511 696.639482,436.390134 C697.0007,436.946889 697.356369,437.49485 697.706025,438.033093 L697.279593,437.599907 C699.414991,440.679877 701.77748,443.641369 704.371223,446.410334 L706.372032,448.437885 C707.042668,449.10849 707.761405,449.735128 708.455167,450.38213 C709.133666,451.032372 709.913454,451.640961 710.657166,452.260195 L711.78476,453.183029 L712.951204,454.037368 C714.49043,455.205026 716.112907,456.219958 717.730297,457.235353 L720.216738,458.641356 C721.044164,459.111566 721.912291,459.49986 722.758681,459.928418 C723.186038,460.133903 723.606457,460.354199 724.040289,460.5458 L725.348724,461.103481 C726.224713,461.465857 727.08359,461.864796 727.984555,462.166082 C728.878583,462.484955 729.767523,462.811233 730.664788,463.115296 L733.398671,463.917338 C737.073757,464.896634 740.851983,465.55428 744.703747,465.816228 C748.566149,466.023102 752.49284,465.820856 756.38808,465.119706 L759.298178,464.499547 L762.168501,463.635026 C764.090221,463.039859 765.854225,462.260494 767.492428,461.518617 C769.130167,460.766558 770.638868,460.010334 772.048591,459.327696 C773.445364,458.64691 774.786637,458.040634 776.239836,457.405203 C779.117559,456.147297 782.225149,454.886615 785.431252,453.384349 C788.639206,451.858017 791.990999,450.10167 795.220228,447.652967 C798.460095,445.225089 801.251791,442.22935 803.552305,439.057282 C805.870393,435.877345 807.645961,432.503494 809.140786,429.163427 C810.640236,425.815956 811.824255,422.486996 812.919936,419.256152 C813.45182,417.654382 813.984166,416.050761 814.5179,414.444364 C815.048397,412.814826 815.581668,411.120958 816.071926,409.345173 C817.044118,405.801472 817.876169,401.888915 817.949708,397.602874 C817.993646,395.473506 817.795693,393.215942 817.446037,391.181449 C817.102394,389.125667 816.619073,387.236495 816.128815,385.449604 C815.723196,383.777488 815.281963,382.203949 814.870794,380.707237 C814.676078,379.984334 814.480437,379.259118 814.283871,378.5302 C814.103031,377.827661 813.933291,377.147337 813.766325,376.426749 C813.090602,373.561058 812.477316,370.331139 811.562014,366.772165 C811.333072,365.884504 811.084706,364.977869 810.804888,364.054109 C810.534321,363.131738 810.188366,362.195945 809.875248,361.265243 C809.572768,360.32436 809.171311,359.424666 808.806393,358.505072 C808.449337,357.581312 808.021054,356.689949 807.596935,355.793958 C805.893056,352.213695 803.827497,348.781067 801.452057,345.54976 C796.712741,339.073261 790.667302,333.458505 783.803687,329.013259 C780.36263,326.790867 776.75322,324.856804 772.919956,323.243001 C769.101954,321.661132 765.173876,320.4185 761.176885,319.474376 C760.817979,319.348031 760.224581,319.183272 759.424905,318.988431 C758.62523,318.795441 757.608638,318.642252 756.41768,318.441395 C756.119825,318.394189 755.810407,318.345131 755.491277,318.294223 C755.169372,318.259512 754.836829,318.223876 754.494573,318.187315 C753.808212,318.119745 753.081612,318.04801 752.318012,317.972573 C751.554411,317.891582 750.74641,317.890194 749.908346,317.848078 C749.068895,317.820773 748.19753,317.768013 747.291015,317.802723 C746.385425,317.823087 745.449772,317.844839 744.488218,317.867053 C743.525277,317.942953 742.536436,318.021167 741.525394,318.101233 C741.01941,318.132704 740.508802,318.205364 739.993106,318.278024 C739.47741,318.350222 738.956626,318.423345 738.430755,318.496931 C737.379012,318.622815 736.313857,318.857457 735.233901,319.075901 C730.919629,319.975595 726.401854,321.442225 722.106082,323.596584 C719.932758,324.648078 717.909287,325.894413 715.974155,327.198599 C714.074173,328.535181 712.264843,329.926374 710.640516,331.37403 C707.360873,334.252216 704.699141,337.216948 702.510092,339.839666 C700.334456,342.472104 698.63844,344.780577 697.373019,346.543403 C696.112223,348.308543 695.278784,349.537291 694.932366,350.093583" id="Fill-103" fill="#B5F100" transform="translate(750.618631, 391.842284) rotate(-100.000000) translate(-750.618631, -391.842284) "></path>
                            <path d="M818.160536,43.4354892 C819.430041,40.7552827 820.86082,38.0683725 822.465045,35.5063925 C821.165112,38.849033 820.185293,42.0393198 819.435518,44.9504946 C818.676615,47.8732483 818.090549,50.5802691 817.578122,53.1129972 C816.563614,58.1772347 815.814448,62.5558805 815.001989,66.6310377 C814.59789,68.6829375 814.190139,70.5934531 813.737354,72.5703949 C813.27909,74.5747604 812.770923,76.7162442 812.303531,79.0752891 C811.839182,81.4361623 811.418651,84.040192 811.219036,86.9507574 C811.042547,89.8661981 811.092451,93.1515536 811.774064,96.6386254 C811.601226,96.1395147 811.404654,95.6385757 811.257377,95.1284954 C811.286589,96.1614536 811.553757,97.0755759 812.03332,98.4802772 C812.52749,99.8752278 813.228578,101.7894 814.395841,104.620741 C815.566146,107.431363 817.273222,111.140871 819.672866,115.876634 C820.846823,118.205817 822.196052,120.883586 823.752199,123.971491 C825.327821,127.067319 827.149311,130.595222 829.399851,134.589327 L829.280569,134.675254 C830.039472,135.690539 830.266474,135.506496 831.472686,137.775957 C830.445397,135.903834 829.444886,134.032321 828.510103,132.146792 C830.966953,135.004947 833.450581,137.237844 836.713804,141.052171 C837.27431,141.975435 837.279787,142.452606 837.167199,142.686012 C839.899129,145.798294 842.81546,148.777114 845.902194,151.607846 C846.605108,152.733435 847.357316,153.826116 848.110134,154.934642 C849.753309,156.010868 850.54751,155.885329 851.851703,156.391143 C852.508365,156.637956 853.258139,157.078563 854.350546,157.854958 C855.433216,158.643541 856.819568,159.809351 858.789552,161.49743 C857.58334,159.827634 858.762166,160.382201 860.141216,161.173831 C861.528785,161.963023 863.174394,162.939915 862.827502,162.306124 C863.160397,162.739418 864.038582,163.548721 864.727499,164.244672 C867.391267,165.734082 871.364707,167.672631 875.13488,169.038939 C878.89349,170.438156 882.421447,171.240755 883.871092,171.325464 C883.871092,171.325464 883.531503,171.168235 882.924746,170.887294 C882.322248,170.597822 881.442845,170.218766 880.41008,169.672121 C878.317771,168.64221 875.567583,167.067482 872.796704,165.2368 C870.02339,163.404899 867.253728,161.277432 864.974583,159.280988 C862.689353,157.286983 860.900727,155.416079 859.906302,154.230158 C861.471578,155.501397 862.400885,156.166879 862.861583,156.472805 C863.321671,156.77995 863.31802,156.720227 863.081281,156.468539 C862.843934,156.215632 862.373499,155.773197 861.899412,155.313698 C861.430803,154.846886 860.967672,154.35265 860.716327,154.027832 L860.079749,153.994924 C858.252173,152.419587 857.512136,151.42624 857.007012,150.630954 C856.493976,149.844809 856.223765,149.245145 855.407655,148.379775 C855.361403,148.433404 855.360186,148.544927 855.352883,148.654012 L855.659609,148.761879 C855.728379,149.026365 855.559192,149.022099 855.309065,148.923373 C855.232992,149.102541 854.962172,149.078165 854.019477,148.182325 L854.265345,148.279831 C852.683637,147.059173 850.28095,144.587387 849.291394,143.467892 L849.793475,142.929778 C848.92807,142.554988 847.560583,141.202087 846.01965,139.290353 C844.487847,137.370696 842.80268,134.885502 841.244098,132.290004 C839.680039,129.696335 838.238305,126.997236 837.047917,124.699742 C835.866048,122.393716 834.912398,120.502702 834.304423,119.510575 C833.44267,117.292305 832.033191,115.097802 830.537902,112.765571 C829.038961,110.440044 827.463948,108.002384 826.434834,105.336804 C825.511613,103.269669 825.099602,101.936269 824.896335,101.055055 C824.7095,100.171403 824.708892,99.7387188 824.783139,99.4309643 C824.940153,98.8221589 825.223145,98.6929629 825.039353,96.6154677 C824.868949,95.3424 824.805657,94.791489 824.722281,94.6299941 C824.639513,94.4691085 824.548834,94.7037333 824.455113,95.0419585 C824.299315,95.7135337 824.157515,96.824497 823.94086,95.793367 C823.869047,93.6732127 824.121,91.6267976 824.557963,89.559053 C824.535446,90.4670811 824.588392,91.0112886 824.648033,91.3190431 C824.706457,91.627407 824.778879,91.6956615 824.857386,91.6353294 C825.015009,91.5128371 825.196976,90.8772174 825.336341,90.5633687 C825.423369,87.9648237 826.327723,84.5185827 827.19252,81.3569384 C828.048188,78.2074824 828.696938,75.2822911 828.169296,74.1749842 C829.374291,70.0638716 830.018172,68.0540214 830.522079,66.6243341 C831.016857,65.1958657 831.326017,64.341466 831.658304,62.6186502 C831.196998,63.7271759 830.562245,66.0149193 830.265257,65.9874956 C831.461123,62.8288984 830.37541,64.3975322 830.004783,65.7102118 C830.141714,63.16042 831.783063,56.8103172 833.628896,51.4401534 C834.553334,48.7404456 835.531936,46.2930355 836.263453,44.475151 C836.994361,42.6493441 837.442279,41.400653 837.159896,41.0185499 L837.429498,41.1349481 C837.091735,40.4268081 836.489237,40.3262546 836.052883,40.0197189 C835.631743,39.7180586 835.323192,39.1683664 835.758937,37.56073 C836.228764,36.980567 836.743016,36.4387972 837.234143,35.8927615 C837.610856,34.8707728 838.019215,33.8567064 838.471393,32.8597037 C840.016586,31.2910699 839.674562,32.3666871 839.794453,32.4410357 C840.404253,31.2916793 841.25201,30.1551206 842.210528,29.0124677 C843.206779,27.9100362 844.319269,26.80212 845.573559,25.8270562 C848.05597,23.8476768 850.98569,22.274777 853.858811,21.0498531 C851.403786,20.9870834 848.884252,21.1473595 846.326376,21.616609 C848.834956,20.2570044 852.575918,18.9236047 855.811754,18.0777369 C859.0482,17.2081018 861.769176,16.6998499 862.191532,16.047776 C863.369141,16.1495482 864.530926,16.2714312 865.684192,16.444505 C868.496455,16.4816793 870.350199,16.5219007 871.651959,16.4317073 C872.953718,16.362234 873.693147,16.1525953 874.239654,15.933206 C875.325975,15.485286 875.595578,14.8655111 877.844901,15.1860633 C879.726641,15.5980278 881.585254,16.0922632 883.420741,16.6248918 C881.565171,16.4847264 879.710209,16.3817353 877.86255,16.3628434 C880.630995,16.6992404 882.55351,17.0782965 884.325096,17.507934 C886.094856,17.9381809 887.713687,18.4092585 889.847988,19.1173986 C889.849814,19.1058197 889.899109,19.1039915 889.900935,19.0924126 C889.605772,18.9997815 889.418329,18.9156823 889.387899,18.838896 L890.161409,18.9193388 C890.910575,18.4293692 893.877418,18.4513082 897.787565,19.3215526 C900.53897,19.9925183 903.080413,20.4166711 905.944406,21.1321241 C907.368491,21.4928977 908.864388,21.9322859 910.465571,22.5557173 C912.064319,23.1785392 913.771395,23.9908893 915.510726,25.1262291 C916.300058,25.0348169 917.095476,24.9641248 917.893329,24.9251222 C919.616228,26.0964176 921.180287,27.4151914 922.674359,28.8863188 L922.077339,29.6560098 C920.90825,28.7327463 919.448259,27.7101482 917.747269,26.8088236 C916.042627,25.8916542 914.007525,25.0372546 911.783762,24.293159 C909.563042,23.5441882 907.165832,22.8963802 904.76984,22.317436 C902.364719,21.7378825 900.021674,21.2137857 897.947014,20.7804918 L897.707232,21.1839244 C900.153737,21.7061929 902.836371,22.2406498 905.247578,22.7793725 C907.649656,23.3144388 909.748051,23.8769287 911.204999,24.4375903 C911.893915,24.7794721 913.0344,25.53149 913.602817,26.1597967 C914.166974,26.7960259 914.221138,27.2622282 912.890166,27.0653872 C913.846859,27.1117028 914.797466,27.1799572 915.72799,27.2878237 C917.34743,28.0623899 918.61024,28.8387845 919.776894,29.6310238 C920.929551,30.4220443 921.925801,31.2136742 922.82407,31.9858028 C924.619391,33.5367636 926.025218,34.9816863 927.424959,36.5417883 C928.820441,38.1037186 930.236005,39.8387227 931.921172,42.0082396 C933.606339,44.1838507 935.557457,46.8494313 937.952232,50.4638708 L937.435545,48.9653197 C939.764593,51.5212056 941.962795,54.177645 941.826473,55.4129289 C943.259078,57.5586786 944.551708,59.7915747 945.7494,62.0080165 C946.898405,64.241522 947.966469,66.456745 948.785622,68.6213866 C950.483569,72.9372627 951.422004,76.9618384 951.647789,80.0765578 C952.146218,80.4013759 952.644039,80.733507 953.100477,81.077217 C953.290355,82.0656879 953.132123,83.385071 953.150989,84.5082226 C953.12482,85.6447814 953.201502,86.6119227 954.080904,86.9720869 C954.263479,87.6649916 954.485004,88.3554587 954.643235,89.0575046 L955.058289,91.1819248 C955.08811,91.871173 955.170268,92.4897291 955.249384,93.0839086 C955.294419,93.6805257 955.33702,94.2503286 955.38023,94.8317104 C955.444739,95.9950834 955.516552,97.2218355 955.033337,98.7764528 L955.032729,98.7764528 C955.029077,98.7831563 955.028468,98.7935164 955.028468,98.7935164 C954.974913,98.9842633 954.917706,99.1847607 954.853805,99.3779453 C954.889103,99.3803829 954.920141,99.3645381 954.951787,99.3493028 C954.724177,100.901482 954.686445,101.673611 954.66697,102.075825 C954.673056,102.479257 954.792947,102.513994 954.904317,102.577373 C955.015688,102.640143 955.117322,102.731555 955.089327,103.250167 C955.074721,103.509778 955.02786,103.876646 954.934138,104.399524 C954.824593,104.919964 954.741826,105.607384 954.444229,106.472753 C953.801565,107.531307 954.029783,108.221164 954.289648,109.101159 C954.582377,109.984201 954.783818,111.034223 954.166715,112.7351 L952.894776,114.223901 L951.511466,115.632258 C951.131101,116.341617 950.819507,116.98455 950.559033,117.585433 C950.304645,118.188754 950.011917,118.717116 949.804999,119.246698 C949.355256,120.292454 949.097825,121.293722 948.733892,122.355323 C948.348659,123.407173 947.948211,124.558967 947.376752,125.975247 C947.060897,126.666324 946.662883,127.401888 946.216792,128.229473 C945.755486,129.046698 945.285051,129.983369 944.577269,130.921258 C943.805585,131.757985 943.083197,132.442358 942.446619,132.944516 C942.135633,133.201689 941.820995,133.394873 941.52705,133.536258 C941.237973,133.680689 940.977499,133.778805 940.749889,133.828777 C939.839448,134.029274 939.457258,133.445455 939.862575,131.965796 C939.219911,133.943347 939.118277,134.466834 938.847458,135.037246 C938.705658,135.319406 938.54134,135.636911 938.198708,136.13785 C937.843904,136.633913 937.339389,137.337788 936.560402,138.426202 C935.555631,138.599276 935.851403,138.083711 936.228116,136.857569 C935.303069,137.580944 934.76143,138.105041 934.398714,138.504817 C934.016524,138.885092 933.846121,139.170907 933.715275,139.448191 C933.454802,140.003978 933.350734,140.526856 932.056278,141.72984 C932.093401,143.30335 932.327706,145.525276 931.42396,146.368097 L932.779883,145.716023 C930.137415,148.771629 926.650233,151.695602 922.271477,153.903512 L922.09803,153.312379 C920.714112,154.355088 919.324108,155.38439 917.990702,156.318013 L917.338301,155.834747 C915.418221,157.09197 913.563259,158.170635 911.73325,159.002486 C912.013198,158.964702 912.297406,158.907417 912.582223,158.861711 C911.937125,159.208468 910.559292,159.87273 909.017143,160.326744 C907.474993,160.787462 905.580473,161.061089 904.118656,161.015383 L904.17708,160.589402 C902.144412,160.488239 900.100181,160.439486 897.967097,160.469957 C895.841924,160.494333 893.564606,160.611341 891.33354,160.777102 C886.855585,161.094607 882.261998,161.574826 877.053743,161.285963 L878.471134,160.522367 C876.733628,159.993394 876.485935,160.285304 876.126871,160.646078 C875.775718,160.995882 875.316238,161.412112 873.264096,160.97699 L873.177068,159.913561 C871.30324,160.386467 870.147541,160.125637 869.190848,159.65395 C868.232938,159.176169 867.472818,158.474123 866.332333,157.971965 L867.187392,159.546084 C865.67202,159.156058 864.174297,158.704482 862.694222,158.218778 C860.268409,157.333908 859.666521,156.653192 859.753548,156.202834 C859.844835,155.742726 860.631125,155.459348 861.079042,155.220457 C859.898391,155.239959 858.703742,155.244834 857.509702,155.201565 L857.288177,153.838914 C855.891479,154.080851 855.323671,153.793208 854.587285,153.351991 C853.853334,152.892492 852.941067,152.302579 850.835369,151.721807 C850.719739,151.157488 851.791454,151.384191 850.588285,150.584029 C848.278103,150.084309 846.11885,149.508412 844.158603,148.788083 C845.285699,149.296945 846.502866,149.757662 847.778456,150.1873 L846.478522,151.484744 C844.290666,150.993556 843.176958,150.12453 842.352328,149.278662 C841.539261,148.422434 840.97693,147.565597 839.79567,146.678899 C840.383561,147.046376 840.967193,147.378507 841.545347,147.673464 C839.765241,146.300452 838.977734,145.182785 838.454352,144.2711 C837.928537,143.327726 837.669889,142.531221 836.92194,141.175882 C837.215886,142.135101 837.692406,143.583071 836.197117,141.963246 C835.165569,140.680428 836.19164,140.863862 835.476555,139.478053 C834.889881,139.662705 833.907627,139.019773 832.864516,137.90759 C832.607085,137.628478 832.333831,137.328037 832.084312,136.99103 C831.84453,136.64793 831.607183,136.282281 831.378355,135.898959 C830.921309,135.133534 830.497127,134.300464 830.149626,133.453987 C830.317595,133.407671 830.497127,133.391217 830.710131,133.539305 C830.390625,133.193157 830.103373,132.956095 829.822208,132.614213 C829.683451,132.442967 829.539825,132.249173 829.406546,131.996876 C829.281178,131.740312 829.157635,131.43012 829.033484,131.040704 L830.613975,131.235107 L828.092615,129.113734 C827.788931,128.113075 827.012379,127.090477 826.566896,126.223279 C826.090376,125.371317 825.79217,124.755199 826.249216,124.693039 L826.968561,125.642507 L825.434932,122.085962 C824.936502,120.895775 824.539097,119.666585 824.083877,118.461772 L823.419304,116.648762 C823.205691,116.041785 823.042591,115.417135 822.851496,114.803454 L821.738397,111.1104 L822.691438,110.61068 C821.811427,110.082927 821.415848,108.016401 821.037918,106.224112 C820.714152,104.419025 820.493236,102.856485 819.646697,103.280638 C819.751373,102.517651 819.593141,101.453612 819.403263,100.290849 C819.254769,99.1213816 819.023507,97.8611117 818.842758,96.7355224 C818.753296,96.1730325 818.671746,95.6458886 818.629145,95.1815145 C818.610279,94.7153121 818.617582,94.3130983 818.66566,94.0059532 C818.760599,93.3916631 819.018639,93.159476 819.557843,93.5324379 C819.478119,92.2892316 819.367965,91.1215927 819.23712,90.002707 C819.15557,88.8819931 819.091669,87.8094229 818.989427,86.7630576 C818.739299,84.6672799 818.673572,82.6775404 818.570113,80.6055299 C818.550638,80.0881366 818.511689,79.5640399 818.513515,79.0356772 C818.531164,78.5079239 818.549421,77.9728577 818.567679,77.4280408 C818.612714,76.338407 818.675398,75.2091613 818.767902,74.0201929 C818.921265,72.8391469 819.140355,71.6056912 819.386832,70.2930116 C819.523763,69.6397189 819.624179,68.9577836 819.823186,68.2728013 C820.020367,67.5872096 820.231545,66.8821166 820.457938,66.1544753 C821.131031,65.1964751 821.676322,63.7430207 822.420619,62.0604262 C822.769337,61.2127301 823.112578,60.2925137 823.449125,59.320497 C823.780194,58.3301979 824.166644,57.3795107 824.496496,56.5781301 C824.835477,55.770046 825.163503,55.1039556 825.464752,54.5847341 C825.616289,54.3306081 825.761132,54.1106094 825.898063,53.9174248 C826.038038,53.7254592 826.160363,53.579809 826.317377,53.4030787 C826.953955,52.6827503 828.338482,51.6034766 829.945142,50.5869726 C833.328865,48.1261554 836.413164,45.8828993 839.352621,43.7444626 C842.324942,41.5761645 845.008185,39.6260369 847.69082,37.8355761 C850.366152,36.068273 853.023835,34.4545424 855.848878,33.1046885 C857.2614,32.4160497 858.715305,31.8346679 860.231894,31.2874134 C861.749701,30.7724578 863.330192,30.3458674 864.998927,30.0125175 C867.099756,30.3160061 869.462276,30.4232631 872.203944,30.5152848 C873.619508,30.5506308 875.074631,30.5871957 876.552879,30.62437 C878.090769,30.6530125 879.652394,30.6822644 881.220104,30.7115163 C884.317793,30.7779426 887.35584,30.9004349 890.141325,31.3069147 C892.927419,31.7036437 895.473732,32.3758283 897.515528,33.4191466 C898.404668,33.3758781 899.28468,33.3515015 900.176254,33.380144 C902.693354,35.2138733 906.068557,36.9123126 909.68841,39.4883092 C913.302177,42.0216468 917.093651,45.3569743 920.189513,49.4217714 C922.255045,50.8538963 923.309111,51.7217031 923.747291,52.1031968 C923.445434,51.7399855 923.066286,51.11046 923.332237,50.5211558 C924.239635,51.7174372 925.835948,53.2519438 926.952699,54.5097761 C928.084055,55.7761402 928.761408,56.7956912 928.188123,57.0632244 L927.650744,56.6585729 C927.06833,56.9315907 928.567879,58.2893671 930.008395,59.8744551 C930.733218,60.673398 931.420308,61.5058587 931.945515,62.3602583 C932.473766,63.2134391 932.834656,64.0800271 932.886385,64.7637905 C933.063483,64.1555945 933.2278,63.536429 933.372643,62.9111694 C934.027479,64.2275055 934.601981,65.6230655 935.110757,67.0887082 C934.877669,66.735857 934.646408,66.3860529 934.405409,66.0508747 C935.724209,68.1643255 936.734457,70.4410994 937.512835,72.7300616 C937.898677,73.8751521 938.264435,74.9922096 938.536472,76.1135329 C938.844415,77.2202303 939.070808,78.3257089 939.278943,79.4092485 C940.100531,83.7519388 940.311709,87.8459878 940.322663,91.9345521 C940.339704,100.123869 939.581409,108.299169 940.194861,119.811626 C939.578366,118.284432 939.700691,119.428913 939.77007,120.880539 C939.844926,122.33826 939.798065,123.992211 939.011775,123.999524 C937.72949,126.185496 937.417896,127.657842 937.180548,129.094842 C936.963284,130.54464 936.542145,132.360087 935.484427,133.895203 C935.540417,133.947003 935.576323,134.040244 935.522159,134.278525 C933.973315,135.82461 932.126873,137.312802 930.096031,138.744317 C931.252339,136.635742 930.46179,137.758284 929.611599,138.938111 C928.741933,140.119766 927.787066,141.359926 929.030402,139.47013 C920.453638,144.690987 910.136936,150.031899 898.731478,152.989999 C893.041833,154.47819 887.138576,155.361232 881.226798,155.486162 C875.327193,155.626328 869.468971,154.966331 864.084226,153.529331 L864.927723,154.246003 C862.151366,153.60307 859.05672,152.838255 856.243849,151.809562 C853.424891,150.807075 851.205388,149.577276 850.177491,148.326147 C849.640721,147.699059 849.154463,147.246873 848.590306,146.78128 C848.026758,146.304718 847.382268,145.801341 846.738996,145.234585 C845.454885,144.119356 844.177469,142.822521 843.742332,142.074769 C842.217223,140.040542 841.365815,137.752799 841.049351,136.267655 C840.724368,134.777636 840.880774,134.071933 841.255661,135.06467 C840.087181,132.687343 838.673442,130.497715 837.408198,127.953408 C836.151474,125.418852 835.037766,122.506458 834.690265,118.895066 C834.980559,118.209474 834.798593,116.702391 834.488216,114.799188 C834.197921,112.895376 833.805994,110.587522 833.598467,108.338172 C833.120121,103.823017 833.58873,99.5315178 834.506473,99.6119606 L834.36589,99.5101883 C835.803364,95.282068 836.943849,91.28065 838.737344,87.3572371 C839.646567,85.4095472 840.741408,83.5349871 842.086377,81.750011 C843.455689,79.9705196 845.125033,78.2769557 847.121795,76.746715 C847.121795,76.746715 847.081628,76.9782926 846.930091,77.3037201 C848.654816,74.2621306 850.741039,71.2083527 852.921593,68.1399489 L859.552716,58.8932972 L850.733736,58.1229968 C844.811613,60.9104604 838.626581,63.6375919 832.310705,67.9924705 C830.643795,69.8956731 828.992101,71.9408694 827.513852,74.1798596 C826.030126,76.3938638 824.687591,78.7029367 823.565364,81.1003747 C822.427922,83.489281 821.446277,85.9433946 820.679462,88.4432144 C819.899867,90.9393777 819.270592,93.4702776 818.847018,96.015194 C817.959704,101.103808 817.746091,106.229597 818.096635,111.264582 C818.444136,116.280676 819.341796,121.15051 820.608258,125.82655 C822.172926,133.413156 824.699763,140.60547 827.678778,147.425432 C828.059751,148.278613 828.420641,149.11412 828.831435,149.991068 C829.24162,150.871063 829.691971,151.796765 830.202573,152.75964 C831.223775,154.679297 832.492671,156.75923 834.168101,158.795894 C834.999426,159.808742 835.944555,160.817323 836.950543,161.746072 C837.952271,162.670554 838.977125,163.492655 840.000154,164.231875 C842.048036,165.707878 844.085573,166.862719 846.040342,167.836564 C848.484413,168.931073 850.733736,169.712952 853.071913,170.477158 C854.238567,170.83976 855.403395,171.209066 856.580395,171.507069 L858.343461,171.972053 L860.113829,172.377923 C864.837652,173.441962 869.607728,174.069049 874.368674,174.320738 C879.129621,174.573036 883.885698,174.482233 888.599176,174.012374 C893.311435,173.545562 897.998135,172.72529 902.559466,171.595435 C911.691866,169.306472 920.415298,165.76821 928.508237,161.239648 C929.527006,160.684471 930.515953,160.079931 931.519507,159.500987 C932.50176,158.888525 933.499228,158.298002 934.465659,157.662992 C935.436957,157.034076 936.407039,156.403941 937.353995,155.741507 C938.308253,155.090652 939.257643,154.426999 940.220421,153.710327 C944.041107,150.868016 948.068102,147.516235 951.585713,142.729281 C952.396955,141.21976 953.125429,139.608467 953.73036,137.926482 C954.346855,136.234747 954.786252,134.474147 955.054638,132.817148 C956.375263,129.604313 957.042879,126.341506 957.457324,123.384625 C957.857772,120.394226 958.071993,117.873077 958.293517,115.056361 C958.716483,109.510077 958.910621,103.603018 958.80351,97.5247147 C958.669013,91.437879 958.239353,85.1773602 957.322219,78.9515779 C957.120169,77.39757 956.829266,75.8441716 956.575487,74.2993049 C956.443424,73.5265668 956.27363,72.755657 956.128178,71.9871849 C955.977858,71.2181033 955.837276,70.4502406 955.653483,69.6878626 C955.002908,66.6456636 954.247656,63.6016364 953.284877,60.5137313 L951.962426,60.4661969 C950.592505,57.1643872 949.874986,55.5622356 949.577997,54.5493881 C949.257882,53.5383688 949.290746,53.1221385 948.897601,52.2555505 C947.730338,50.348082 946.396324,48.504602 945.061092,46.8756361 C943.720384,45.2338725 942.353506,43.737759 941.009754,42.3446366 C939.664176,40.9478578 938.341117,39.6546794 937.071003,38.4169578 L933.204066,34.6879483 C927.928866,29.6822146 922.012829,24.4321056 914.797466,20.2874751 C911.214128,18.2337471 907.285723,16.437192 903.26238,15.1970328 C899.268857,13.9440758 895.305154,13.1475706 891.46256,12.6179891 C887.613271,12.0792664 883.877787,11.8019826 880.254282,11.6045322 C876.68129,11.4217077 872.960412,11.2522904 868.971758,11.4076912 C866.981691,11.4893528 864.940503,11.6459724 862.853062,11.9476328 C861.810559,12.0938923 860.777794,12.303531 859.743811,12.4881837 C858.731128,12.7282932 857.698971,12.9324472 856.708198,13.2164345 C852.715892,14.2975365 848.943284,15.7680545 845.479229,17.4634467 C838.510951,20.8475274 832.612562,24.9019645 827.081758,28.4895898 C824.255497,30.3288038 821.445669,32.1576578 818.654706,33.9737141 C817.137508,34.9859522 815.473641,36.1401839 813.748308,37.6332503 C812.887771,38.3810024 812.013237,39.2171196 811.160004,40.1690256 C810.300684,41.1258069 809.507092,42.1636404 808.826696,43.1911139 C807.45434,45.2588585 806.473913,47.3278219 805.704055,49.217008 C805.318822,50.1634293 804.98471,51.0702386 804.682244,51.9282947 C804.375518,52.7802567 804.139388,53.6157645 803.866134,54.4579758 C803.602009,55.2995777 803.338492,56.1393514 803.074975,56.9766874 C802.819371,57.8170705 802.524816,58.6458748 802.333113,59.4990556 C801.906496,61.1968854 801.481096,62.8874022 801.058131,64.5699966 C800.59439,65.8424548 800.18664,67.8279285 799.725942,70.1382202 C799.472163,71.2918425 799.343752,72.5417524 799.18552,73.8257895 C799.037026,75.1122643 798.88488,76.4334757 798.733343,77.7467647 C798.655444,79.0649291 798.578154,80.3733428 798.503907,81.6287374 C798.464958,82.2570441 798.427225,82.8719437 798.390102,83.4673421 C798.370019,83.7653459 798.351153,84.0584745 798.331678,84.3461183 C798.326809,84.6337621 798.321332,84.9153118 798.316463,85.1919861 C798.272645,87.3992867 798.185618,89.2159524 798,90.2830379 C798.293946,92.5403105 798.687699,94.7957549 799.004162,97.0615594 C799.435648,99.3054249 799.868959,101.56026 800.304096,103.824236 C800.859124,106.057132 801.366682,108.303435 801.931448,110.535113 L802.890575,113.855205 L803.365878,115.515251 C803.519241,116.070428 803.678081,116.623776 803.874654,117.164327 C806.674137,125.933198 810.349371,134.390048 814.762208,142.137539 L814.299684,141.625021 C815.828445,143.976144 817.250704,146.390645 818.943174,148.620494 C819.060631,148.969689 818.965692,149.086697 818.736865,148.91667 C819.515243,149.821042 820.312487,150.811341 821.125554,151.870504 C821.987308,152.943683 822.892271,154.071101 823.830098,155.239959 C825.793387,157.631302 828.152864,160.33162 831.083801,162.831439 C833.986134,165.307492 837.052785,167.306982 839.992851,168.984701 C842.921353,170.650842 845.778652,172.042136 848.556225,173.229276 L847.854529,173.097642 C851.938122,174.70345 856.106917,175.999066 860.326833,176.982662 C864.534578,177.964429 868.84639,178.642099 873.065089,179.019936 C877.277702,179.403867 881.377727,179.519656 885.349341,179.52636 C887.336365,179.530625 889.292352,179.506858 891.218518,179.472122 C893.133729,179.430072 895.046506,179.388022 896.956849,179.346582 C900.86943,179.231403 905.168462,179.07844 909.849684,178.189303 C912.162301,177.749306 914.662969,177.077731 916.936636,176.204439 C919.225518,175.345774 921.345821,174.321347 923.310328,173.246949 C925.276661,172.170113 927.085978,171.038429 928.779666,169.928075 C930.464832,168.81955 932.045323,167.742104 933.676935,166.597623 C936.914597,164.322678 940.144957,161.894159 943.291332,159.220656 C944.074579,158.546644 944.86452,157.879334 945.625858,157.155349 L947.903176,154.976082 C949.455672,153.559802 950.840807,151.973495 952.260632,150.423753 L953.320784,149.257333 C953.665851,148.860604 953.98414,148.440717 954.316426,148.033628 L956.285801,145.566716 C956.96072,144.759851 957.551654,143.88595 958.153543,143.0218 L959.956775,140.426302 C964.623391,133.402796 968.175692,125.616912 970.562555,117.439783 C972.929944,109.257779 974.111204,100.641262 973.82091,91.9473498 L973.611557,88.689418 C973.539744,87.6016125 973.484363,86.5113693 973.309091,85.4308767 C972.999322,83.2668446 972.777798,81.0814829 972.262328,78.9418273 L971.575238,75.7107097 C971.311721,74.649109 971.012298,73.6039625 970.728698,72.5478466 C970.114029,70.4593818 969.453108,68.382496 968.696639,66.3525351 C967.446,62.5138309 965.858207,58.7336305 964.004462,55.0576401 C962.144632,51.3840873 960.007288,47.8305892 957.68676,44.3788634 C955.363798,40.9295753 952.847915,37.5905913 950.196926,34.3521607 C947.531332,31.1070266 944.770798,28.0185121 941.851425,24.9050115 C938.882756,21.7701815 935.486861,18.4494799 931.383185,15.4682224 C929.343214,13.9903914 927.090847,12.5741112 924.774579,11.3997688 C922.474743,10.2144569 920.176125,9.26133206 917.918889,8.43009018 C915.661046,7.60311422 913.444586,6.91020952 911.284724,6.28738753 C909.115733,5.66212788 907.045333,5.11670158 904.932941,4.57005645 C900.709982,3.48651683 896.395735,2.47854465 891.962815,1.6442557 C891.166788,1.37550375 889.332518,0.999494781 886.673618,0.646643576 C884.013501,0.30232418 880.514756,5.44085998e-05 876.402559,5.44085998e-05 C868.174514,-0.00969622918 857.4032,1.28835743 847.0938,6.12467376 C844.525579,7.32826812 841.998133,8.74881416 839.598489,10.3948437 C837.190934,12.0536709 834.963519,13.9337158 832.985015,15.9002976 C828.996969,19.8383364 826.087941,24.1511654 823.971898,28.0197309 C821.879588,31.9090165 820.535837,35.3820718 819.647914,38.054356 C818.770945,40.7315155 818.319377,42.6231392 818.160536,43.4354892" id="Fill-65" fill="#F8F800"></path>
                            <path d="M145.659072,358.771861 C145.771547,359.897448 145.855762,360.992523 145.917369,362.053129 L146.058669,365.207824 C145.703158,364.023471 145.35895,362.878672 145.025482,361.768907 C144.678449,360.645015 144.329155,359.529598 143.94821,358.414182 C143.191972,356.19013 142.352084,354.001677 141.331897,351.893461 C140.326405,349.786941 139.130441,347.765178 137.759264,345.899371 C136.382436,344.014351 134.82983,342.358178 133.325831,340.963626 C130.279401,338.162654 127.285533,336.117159 124.283754,334.267738 C122.75319,333.354046 121.198324,332.379328 119.504418,331.486543 C118.654356,331.046366 117.785643,330.596584 116.893757,330.13437 C116.00187,329.674981 115.080028,329.217852 114.108449,328.795757 L115.077767,328.974314 C114.05758,328.271387 112.896093,328.379312 109.181596,326.785861 C108.245624,326.401624 107.150265,325.910027 105.85426,325.270386 C104.564473,324.616619 103.029953,323.918778 101.269919,322.985309 C100.829628,322.752507 100.37238,322.511229 99.8981771,322.26091 C99.418887,322.020197 98.9232062,321.770443 98.4088737,321.511649 C97.3819044,320.988409 96.2859805,320.416574 95.1131895,319.791625 C93.9290944,319.189842 92.6658712,318.548506 91.317868,317.864226 C89.9755167,317.151128 88.5240818,316.456112 86.9805192,315.69668 L87.0234744,315.567283 C86.1163276,315.290406 86.0417211,315.549766 84.355728,314.610081 L88.5608198,316.892334 C87.1704266,316.608677 85.8427705,316.428425 84.4195956,316.184886 C82.9913339,315.955474 81.4522929,315.711371 79.6555204,315.218644 C78.9388462,314.846839 78.7545908,314.499331 78.7398956,314.266529 C75.7646801,313.551736 72.7979425,312.815471 69.7967278,312.242506 C68.9494922,311.749214 68.100561,311.241231 67.2414562,310.75811 C65.8114989,310.719686 65.3203396,311.220324 64.2967615,311.422613 C63.269227,311.628858 61.7324467,311.4972 58.1264674,310.408341 C60.6896518,312.141926 54.3611016,310.567687 55.1699035,311.39436 C54.8223052,311.187551 54.0112424,310.840607 53.3601314,310.531523 C52.2574252,310.433204 50.9156392,310.283464 49.4817255,310.198706 C48.0461162,310.122989 46.526292,310.054618 45.080509,310.009978 C42.1844216,309.962514 39.5816732,310.086261 38.543965,310.3411 C38.543965,310.3411 39.6059768,310.584638 41.2710575,310.966049 C42.0979459,311.160993 43.0751776,311.39097 44.1456674,311.642984 C45.2048531,311.934552 46.3561666,312.250982 47.5430877,312.577583 C49.9118431,313.202532 52.3772477,314.056894 54.5221837,314.776207 C56.6620329,315.539595 58.4638921,316.299592 59.5202519,316.813791 C53.6076893,315.490435 57.9263864,316.713212 59.0228755,317.333641 L59.4739055,317.081062 C62.9792791,318.028092 62.8097189,318.872282 64.5267981,319.4266 C64.5403629,319.362184 64.5030597,319.274035 64.4702781,319.184757 L64.2232854,319.247478 C64.0859417,319.074006 64.2035034,318.994899 64.4086712,318.95252 C64.4001932,318.772833 64.5917962,318.670558 65.5441591,318.907316 L65.3418173,318.95478 C66.8390334,319.150854 69.3400457,319.876383 70.4280567,320.180382 L70.2884522,320.848275 C71.0169957,320.662373 72.4260406,321.022877 74.191727,321.609403 C75.9636306,322.176717 78.0480902,323.120357 80.1382017,324.089424 C81.1883443,324.558984 82.2181396,325.102565 83.2134577,325.613939 C84.2053846,326.124183 85.1617039,326.61578 86.0400255,327.067823 C87.7757563,328.013158 89.198366,328.773155 90.0218632,329.08676 C90.7797971,329.582877 91.611207,330.027574 92.5047891,330.423112 C93.3989363,330.816389 94.3552556,331.163332 95.3443565,331.508015 C96.3345878,331.848178 97.3293407,332.249931 98.3370932,332.66129 C99.3374981,333.087341 100.350903,333.524127 101.296483,334.105568 C107.51821,337.38401 104.028097,336.516652 106.859187,338.660466 C110.516034,341.078897 106.452242,337.545615 108.021804,338.324259 C108.717566,338.880837 109.428588,339.405207 110.105133,339.983822 L112.13816,341.698761 C109.466457,340.258438 110.694637,341.437706 111.041105,341.940604 C111.992903,342.536735 113.079784,343.224406 114.129926,344.026217 C115.186851,344.816162 116.262428,345.631535 117.279223,346.354804 C119.313945,347.824509 120.912332,348.950661 121.836435,348.794141 C123.911852,350.756008 124.573136,351.888376 125.046209,352.678321 C125.498369,353.477307 125.693929,353.945172 126.281172,354.775236 C126.092395,354.073439 125.358765,352.898127 125.527195,352.701488 C125.977094,353.631002 126.11896,353.786957 126.156263,353.620831 C126.19074,353.45075 126.060744,352.961413 125.829012,352.61108 C126.462602,353.072729 127.287794,354.169498 128.006729,355.690623 C128.738664,357.198751 129.332125,359.1318 129.789372,361.103273 C130.24888,363.073616 130.599869,365.088598 130.961032,366.661142 C131.312022,368.231427 131.684489,369.275646 132.09652,369.369445 L131.832572,369.437252 C133.12349,369.9927 133.832816,368.374951 135.051954,370.756652 L134.979608,372.560304 L136.012795,375.009812 C136.032012,376.800468 135.550461,376.016738 135.424986,376.043861 C136.81651,380.100947 137.157326,386.071305 137.478925,391.16244 C138.331247,389.267815 139.092572,387.338156 139.862941,385.368379 C139.839202,386.48549 139.769683,387.828058 139.724467,389.215265 C139.633469,390.607557 139.582036,392.044489 139.514212,393.36728 C139.400041,396.010602 139.361608,398.186624 139.867462,398.605894 C139.575254,399.492463 139.241785,400.372252 138.913969,401.244695 C137.990431,405.587699 138.097819,407.060794 138.447113,407.943408 C138.778886,408.815286 139.359347,409.06278 138.937707,410.773763 L138.22499,412.901755 C137.98591,413.607507 137.711787,414.304784 137.458012,415.001495 C137.530923,414.289527 137.622486,413.57982 137.680701,412.865592 L137.847436,410.723473 C136.992852,414.966462 136.370567,416.616984 135.198341,419.848527 C135.20908,419.850222 135.21134,419.887515 135.222079,419.88921 C135.304598,419.669404 135.376944,419.528141 135.446464,419.507234 L135.384857,420.09263 C135.851147,420.678026 135.904276,422.941066 135.193254,425.734692 C134.634836,427.695429 134.269151,429.439185 133.551912,431.347936 C132.812629,433.235781 131.742705,435.302748 129.479077,437.341462 C129.471164,437.959631 129.454208,438.594751 129.425948,439.246258 C128.222636,440.296128 126.994455,441.297404 125.652669,442.195839 L125.040557,441.530771 C126.738419,440.004561 128.938745,437.609298 130.485699,434.815107 C132.078434,432.028261 133.16814,428.660541 133.859381,425.742038 L133.483522,425.539183 C133.066404,427.254122 132.611983,429.021045 132.088607,430.578333 C131.571449,432.137882 130.971771,433.477059 130.396962,434.368149 C130.227967,434.569308 129.957802,434.821887 129.669549,435.063165 C129.367732,435.297097 129.028047,435.506167 128.740925,435.632739 C128.162725,435.888709 127.761998,435.786434 128.017468,434.874437 L127.85243,435.901705 L127.600915,436.931798 C125.968051,439.022497 124.405272,440.47186 123.04879,441.647737 C122.701192,441.93761 122.369985,442.213356 122.051211,442.478931 C121.714352,442.73264 121.390492,442.976744 121.07511,443.214631 C120.45565,443.696057 119.8068,444.109677 119.174341,444.534032 C118.540751,444.957822 117.851206,445.346014 117.14188,445.770935 C116.400337,446.174948 115.630534,446.610605 114.724517,447.059257 C112.938483,447.972949 110.703681,448.992306 107.626164,450.280629 L108.859431,450.155187 C106.650062,451.607375 104.323697,453.016055 103.33064,452.683238 C99.6116204,454.407782 95.9440342,455.876922 92.6658712,456.676473 C89.378665,457.502017 86.543054,457.640455 84.4162044,457.313289 C84.1516906,457.700351 83.8724815,458.080067 83.5870553,458.466564 C82.8698158,458.504422 81.9406261,458.141658 81.1210854,457.941063 C80.297023,457.737644 79.5786532,457.714477 79.197708,458.447917 C78.1221314,458.592571 77.0137732,458.699366 75.8822418,458.779038 C73.7373058,458.541716 72.3124353,459.002235 69.8193358,458.057465 L69.8193358,458.0569 C69.814249,458.053509 69.805771,458.052379 69.805771,458.052379 C69.6514712,457.993048 69.4898239,457.929762 69.3349589,457.860826 C69.3310025,457.893034 69.3411761,457.922982 69.351915,457.952365 C66.8102082,457.356798 66.7695138,457.578299 66.6581693,457.787369 C66.5411728,457.990788 66.3427874,458.176691 63.3517462,457.387311 C61.5340614,456.32501 60.9818605,458.37898 58.1151634,457.626329 C57.2475806,456.943178 56.3771718,456.271895 55.5463271,455.576313 C53.1001392,454.630413 51.6436175,454.451856 49.8920611,454.270474 C48.1568955,454.080051 46.0650883,453.939352 42.8637926,452.674197 C42.1414663,452.250972 41.579657,451.788758 41.159713,451.361577 C40.7301606,450.943437 40.4809072,450.521907 40.3752147,450.170444 C40.1660905,449.464691 40.5899909,448.985526 41.7023055,448.900768 C40.9404152,448.92337 40.4712988,448.936931 40.1344393,448.947102 C39.792493,448.955013 39.60089,448.939191 39.3849834,448.900203 C39.1707724,448.858389 38.9435618,448.783237 38.5513126,448.647624 C38.1737587,448.494494 37.6368182,448.278078 36.8071038,447.943567 C36.6929333,447.154751 37.0620092,447.293755 37.9815905,447.254201 C36.9150571,446.160822 36.4996347,445.972094 36.0632999,445.911068 C35.6371387,445.842697 35.2245424,445.907678 34.3202215,445.109257 C33.0863888,445.481062 31.2619215,446.14613 30.5814201,445.578816 C30.7521106,445.896377 30.9199752,446.227498 31.0980134,446.541668 C28.6230003,445.037495 26.2163765,442.711168 24.4003872,439.518614 L24.9141545,439.287507 C24.0460065,438.329741 23.1688153,437.351068 22.4103162,436.450937 L22.8483466,435.864977 C21.8315508,434.562528 21.0114449,433.351617 20.4609396,432.266714 C20.4716784,432.445271 20.484678,432.627218 20.5067208,432.815381 C20.2557718,432.407977 19.827915,431.653631 19.5170547,430.582289 C19.1977164,429.532984 19.0338083,428.164988 19.1146319,427.086301 L19.5085767,427.125289 C19.6657024,425.629027 19.7352221,424.061568 19.7058317,422.369797 C19.67305,420.701758 19.5470103,419.056321 19.3893194,417.370201 C19.0773287,414.000785 18.6426895,410.466938 18.6556891,406.317183 L19.4271878,407.417908 C20.2715974,404.615241 18.2108763,406.622312 18.6941227,403.263067 L19.670224,403.122934 C18.4827378,400.123628 20.0737772,399.306561 20.6451949,397.303445 L19.3311037,398.19623 L19.791177,394.373076 C20.4615048,390.176421 21.5591242,391.89136 22.1791492,392.541737 L21.3686516,389.618148 L22.5312691,389.141243 C21.3856076,386.957875 22.889041,387.075406 22.5137479,383.367523 C22.9642127,383.106468 23.1235992,384.049543 23.4163731,382.828462 C23.0761224,380.779012 22.7556537,378.732387 22.4600538,376.688587 L22.7675229,380.363132 L21.1787442,379.756829 C20.3377259,375.841571 21.9265045,374.678126 21.832116,371.968128 L22.0700655,373.863318 C22.2616684,369.479066 23.0122547,369.357014 23.768493,367.024472 C23.342897,367.713273 22.70309,368.784615 22.7816529,367.019386 C22.9133446,365.73841 23.4723279,366.433991 23.8628815,365.279021 C22.838173,364.806071 22.8432598,361.621993 24.0030512,359.032351 C24.1471774,359.101853 24.2794343,359.194521 24.3342587,359.39342 C24.3218243,358.664501 24.1358734,358.23732 24.6954219,357.111168 L25.6975224,358.109618 C25.5098758,357.256952 25.3403157,356.404851 25.1752771,355.543709 C25.8919514,354.13842 25.724652,351.862948 26.4481087,352.308211 L26.4181531,353.162572 C27.6259866,349.692012 29.160506,346.747516 30.9747996,344.710497 L31.790384,345.245603 C31.6575619,344.89188 31.7977316,344.535331 32.0532022,344.193473 C32.1894156,344.038083 32.3521933,343.885519 32.5217535,343.734084 C32.689618,343.58039 32.8908294,343.47416 33.0660416,343.343067 C33.2389929,343.209714 33.4181615,343.103484 33.574722,343.00121 C33.7290218,342.894414 33.8561919,342.783099 33.9432328,342.663873 C34.1342706,342.453107 34.1670522,342.201093 33.8929299,341.878448 C34.3190911,341.874492 34.7825556,341.676158 35.3460605,341.42697 C35.9033482,341.173261 36.5572852,340.860221 37.1999182,340.623463 C38.4919666,340.148253 39.6472364,339.977607 39.3278981,341.021826 C41.0336733,340.621203 42.5438891,340.266349 43.9794984,339.929012 C45.5377562,339.614842 47.0061472,339.202353 48.5525358,338.898919 C49.3279909,338.762741 50.1192717,338.630518 50.9427688,338.510162 C51.3553652,338.454222 51.7753092,338.397151 52.2042964,338.338951 C52.6355444,338.295442 53.0786616,338.280185 53.5325176,338.257018 C54.4407948,338.217464 55.3982445,338.199947 56.4178663,338.212379 C57.4391836,338.253063 58.5243686,338.373419 59.6841601,338.510727 C60.0911044,338.724882 60.5873505,338.889878 61.1542466,339.061655 C61.7205775,339.244732 62.3581237,339.405207 63.0499292,339.545906 C63.7417346,339.688299 64.4883645,339.80696 65.2722976,339.918276 C66.0534047,340.066885 66.8723803,340.202498 67.7128335,340.32794 C69.3993918,340.538705 71.147557,340.885648 72.8505062,341.16648 C73.7050894,341.290792 74.5291517,341.499297 75.3277801,341.675593 C76.1241476,341.863191 76.8899943,342.044008 77.6089294,342.21296 C83.2993682,343.257744 87.9142304,344.572624 92.4335738,346.21015 C96.9382219,347.875929 101.390872,349.870004 106.381027,353.024134 C106.941141,353.768875 107.584339,354.472367 108.297057,355.143086 C108.99734,355.833016 109.71458,356.495824 110.412602,357.124729 C111.815995,358.383669 113.123304,359.545985 114.040624,360.596985 C114.491089,361.12079 114.864687,361.59374 115.221894,362.243552 C115.578535,362.872457 115.894482,363.617763 116.147692,364.457998 C116.404293,365.290887 116.592505,366.227746 116.714588,367.205854 C116.842323,368.182832 116.881322,369.237223 116.849671,370.200639 C117.245877,370.860622 117.601953,371.5223 117.969333,372.193584 C117.52339,374.808653 117.79073,377.950352 117.737036,381.28756 C117.685603,384.599905 117.313701,388.163135 115.772399,391.030218 C115.731139,391.818468 115.68988,392.429291 115.636751,392.879074 C115.561014,393.31586 115.495451,393.604038 115.447974,393.776944 C115.587013,393.5238 115.897873,393.173467 116.48116,393.221496 C116.225124,393.620989 115.984349,394.145359 115.754312,394.700807 C115.528797,395.258515 115.232067,395.800402 114.989031,396.299909 C114.749951,396.802242 114.463394,397.200605 114.202272,397.436798 C113.94341,397.67412 113.703765,397.743622 113.485598,397.554894 L113.589594,397.109631 C113.135173,396.736696 112.70336,397.970773 111.968034,399.360241 C111.806952,399.72357 111.595567,400.074469 111.375139,400.418021 C111.158102,400.764399 110.935413,401.107952 110.710463,401.424947 C110.233434,402.042551 109.705536,402.542624 109.187248,402.755084 C109.737753,402.748868 110.266781,402.730787 110.820677,402.704794 C110.040135,403.539944 109.188378,404.364357 108.27671,405.18312 C108.457009,404.896638 108.618656,404.610156 108.789912,404.326499 C106.55963,407.613417 103.724019,410.266909 100.955102,412.639005 C98.1754459,415.016751 95.6817812,416.839615 93.2435061,418.282762 C92.0260642,419.006031 90.8295347,419.627591 89.63244,420.177953 C88.4319541,420.735096 87.2501198,421.192224 85.9558106,421.630706 C83.3784963,422.51558 80.4501924,423.345079 76.6548709,424.129939 C77.630407,423.433228 76.8933855,423.642298 75.8669814,423.828766 C74.8518812,424.043486 73.4931392,424.158757 73.4004463,423.440009 C71.4640693,422.533097 69.6384716,422.50993 67.8151347,422.759684 C65.9929283,422.998136 64.1786346,423.481822 62.4174698,423.517421 C62.409557,423.587488 62.3581237,423.665465 62.1473039,423.752483 C60.1255817,423.449049 58.0869034,423.123578 56.0131827,422.783981 C59.9865423,421.486052 51.3090188,423.669985 54.9443885,422.600339 C52.9288834,422.155641 50.7816867,421.745412 48.5384058,421.380952 C46.2798645,421.019883 44.0388445,420.736791 41.8560401,420.437313 C37.5124741,419.837225 33.3808583,419.142774 30.1111733,417.703017 C26.8821827,416.307899 24.0250941,413.992309 21.9112441,410.924067 C19.8019158,407.854695 18.4996938,404.169979 18.1882683,400.492609 L17.8135403,401.226613 C17.5586349,399.294695 17.3178595,397.054821 17.3483803,394.83981 C17.3721187,392.63158 17.6609362,390.469119 18.2685268,388.871147 C18.8710305,387.27713 18.9015513,385.403977 18.8269449,383.712206 C18.7545992,382.02213 18.5601702,380.537734 18.6732103,379.844413 C18.731426,375.798627 21.0950946,372.539397 20.6395429,374.216477 C21.3449132,369.983659 20.5965877,365.653086 22.5702679,360.029671 C23.5525864,359.214863 23.9900516,355.335769 24.7751151,352.0901 C25.1628427,350.455399 25.6528716,348.959702 26.1717256,347.940345 C26.7018837,346.931724 27.2235638,346.392663 27.6045089,346.603428 L27.5089901,346.480811 C28.5862623,345.400993 29.5250603,344.412714 30.5582469,343.461163 C31.5467826,342.477405 32.6800096,341.551282 33.9166684,340.64663 L34.8814656,339.990603 C35.2081515,339.772492 35.5693147,339.584329 35.9157826,339.37978 C36.5985448,338.95938 37.3807823,338.629953 38.1415422,338.27623 C39.7325817,337.6445 41.4327049,337.119565 43.324431,336.903714 C43.324431,336.903714 43.2215645,337.065884 43.0113099,337.247267 C47.39444,334.173374 52.6157624,331.565086 57.8732576,329.049466 C56.0323995,327.36052 54.1768462,325.679485 52.2675988,324.023878 C49.6987625,323.632295 47.0717105,323.30852 44.355922,323.093234 C41.6406987,322.876253 38.8271305,322.78528 35.8666101,322.949145 C32.2306752,324.248769 28.4879174,325.917373 24.8932421,328.383833 L23.557108,329.325778 C23.1139908,329.642773 22.6850036,330.016838 22.2526252,330.363781 C21.8247684,330.725981 21.3856076,331.055407 20.9747068,331.45038 L19.7465261,332.633602 C18.128357,334.23892 16.6791829,336.052178 15.4594802,337.917421 C13.0342047,341.677854 11.5149457,345.613453 10.452934,349.283478 C9.4039218,352.958588 8.75733241,356.425193 8.14013344,359.605881 L3.8643915,374.728415 C2.43839059,379.811639 0.931566005,385.305658 0.146502482,391.439882 C-0.102750947,395.188449 -0.069969317,399.14665 0.528012833,403.181135 L0.635966133,403.935481 L0.779527065,404.714691 C0.879567557,405.233975 0.973390843,405.754955 1.08530055,406.271414 C1.33681478,407.295856 1.56854699,408.325949 1.89297209,409.33005 C2.48586743,411.353508 3.26867015,413.319895 4.17073018,415.237122 C5.06883381,417.157175 6.16645322,418.997556 7.36072192,420.7803 L8.3142152,422.087835 C8.62846669,422.524621 8.96080459,422.951237 9.31518532,423.364291 L10.3641975,424.609105 L11.4906421,425.798543 C14.5110737,428.956064 18.2233107,431.545705 22.2074092,433.436375 C26.1960293,435.292577 30.1648673,436.291027 33.8211495,436.949315 C37.4853444,437.596866 40.8850256,437.914992 44.0264101,438.237637 C45.5976675,438.390767 47.0717105,438.558023 48.6000127,438.737145 L53.2583954,439.314065 C56.4144751,439.712428 59.6677692,440.126612 63.0341035,440.455474 L66.0036671,440.078583 L69.0020558,439.63445 C73.0534132,440.431176 77.6795794,440.723874 82.6934732,440.137348 C85.1893987,439.878554 87.7898863,439.286377 90.3847219,438.522425 C91.0324417,438.315615 91.6795963,438.072077 92.3273161,437.840405 C92.9739055,437.599692 93.6244513,437.381016 94.2625627,437.091143 C95.5529155,436.549257 96.7839222,435.927132 97.9821473,435.278451 C102.774483,432.652081 106.663627,429.414887 110.115872,426.615611 C110.96876,425.92794 111.817691,425.24366 112.661535,424.563335 C113.53364,423.873405 114.400092,423.187429 115.260327,422.507105 C117.018666,421.120463 118.824482,419.694832 120.641601,418.182183 L120.121617,417.110841 C121.94891,415.220736 122.900143,414.327951 123.545602,413.862347 C124.191626,413.400698 124.521138,413.326676 125.040557,412.841859 C127.062279,410.184411 128.822879,407.326369 130.266401,404.337235 C131.667533,401.332844 132.747066,398.229568 133.547955,395.108776 C135.098865,388.854761 135.507505,382.6047 135.241861,376.620781 C135.129386,373.616955 134.811744,370.68263 134.406495,367.79351 C134.197936,366.341887 133.989942,364.947334 133.680777,363.390611 C133.380091,361.851969 132.991798,360.211618 132.450901,358.515327 C131.906613,356.81734 131.198982,355.058328 130.264705,353.332653 C129.327038,351.591158 128.187593,349.976799 127.028367,348.598068 C124.685611,345.816308 122.20325,343.739735 119.852581,341.927607 C110.518295,334.900598 100.271209,329.794207 89.8076522,326.397669 C87.205469,325.494148 84.5603306,324.807607 81.9411913,324.091684 C80.6191873,323.78373 79.3017049,323.476341 77.9887441,323.170646 C76.6769137,322.859302 75.3475621,322.655882 74.0340361,322.393698 C68.7624108,321.455708 63.5049156,320.784989 58.28868,320.570834 C57.7873471,320.470254 57.1565833,320.363459 56.4286051,320.308649 C55.7000616,320.26401 54.875434,320.235192 53.9897648,320.21824 C53.1029652,320.206374 52.1551239,320.182642 51.1790226,320.208634 C50.2034865,320.258359 49.1996904,320.309214 48.2038071,320.360069 C46.2080841,320.42618 44.2462731,320.678759 42.5721491,320.798551 C40.9036772,320.909301 39.5110231,321.029658 38.6428751,320.986714 C35.1685875,321.977253 31.333702,323.144089 27.3439515,325.276037 C25.3408809,326.345684 23.3915043,327.703508 21.6399479,329.19751 C19.8736962,330.695468 18.3357856,332.39402 17.0030428,334.143426 C15.6719956,335.896223 14.5353773,337.713436 13.5892317,339.524999 C12.6447816,341.337126 11.8574573,343.142473 11.1769558,344.916177 C10.4936284,346.691011 9.93634069,348.427421 9.43613823,350.119192 C8.94102257,351.797967 8.51090498,353.394809 8.1011346,355.022729 L8.0971782,354.502315 C7.67045181,356.559676 7.29741946,358.614211 6.96734236,360.663096 C6.82717263,360.903809 6.6898289,360.91059 6.64235206,360.69813 C6.44961868,364.243277 5.74820484,368.649567 5.01853097,373.206726 C4.28829189,377.766145 3.50774997,382.435184 2.9888959,386.564597 L2.90242022,386.071305 C1.91558011,398.1482 1.72115113,410.068575 2.19761517,421.835821 C2.25922203,423.306656 2.31122047,424.750368 2.42708658,426.404281 C2.54182229,428.036721 2.71251284,429.803079 3.05219836,431.682448 C3.38566666,433.553341 3.89434713,435.547981 4.66641104,437.540926 C5.44412696,439.573425 6.42927146,441.370861 7.41498117,442.938885 C8.40803848,444.51143 9.42426902,445.888466 10.3896315,447.133844 C11.3516028,448.369617 12.2694884,449.507636 13.2693282,450.708375 C15.2537472,453.081601 17.4133784,455.483645 19.8714354,457.765332 C22.3204493,460.037413 25.0718454,462.220216 28.0804078,464.024998 C31.0578841,465.842211 34.1393574,467.283098 37.2095266,468.456715 C43.3622994,470.797733 49.452335,472.128434 55.3213772,473.213903 C58.2728544,473.753529 61.1169434,474.221959 64.0175525,474.693779 C66.9322915,475.163338 69.9645923,475.614816 73.126324,475.934072 C76.2863601,476.255587 79.592218,476.434709 83.0297675,476.336955 C84.7519335,476.278189 86.5034899,476.147662 88.2782196,475.930681 C90.0512536,475.700139 91.799984,475.383709 93.5085852,475.000038 C99.9552623,473.830941 105.903998,471.315322 111.26549,468.763539 C116.655242,466.188589 122.342855,463.213581 128.029337,459.263854 C130.866644,457.282776 133.70282,455.044033 136.410131,452.413707 C139.117441,449.798073 141.674974,446.71627 143.823866,443.234408 C145.962585,439.749721 147.522538,436.064441 148.692503,432.475784 C149.865859,428.880347 150.675227,425.366277 151.37664,422.020028 C151.596503,421.422766 151.906799,420.04347 152.241397,418.071997 C152.386654,417.085413 152.540388,415.95022 152.699775,414.692976 C152.830901,413.434036 152.95355,412.051914 153.073372,410.571473 C153.471274,404.65197 153.43397,397.153141 152.617256,389.789925 C151.875712,382.411452 150.40393,375.193455 148.981321,369.590946 C148.622418,368.191308 148.255038,366.89451 147.931178,365.709592 C147.576232,364.535975 147.255763,363.476499 146.97712,362.553766 C146.410223,360.722427 145.90663,359.353302 145.659072,358.771861" id="Fill-27" fill="#4390FF" transform="translate(76.659982, 393.181816) rotate(-180.000000) translate(-76.659982, -393.181816) "></path>
                        </g>
                    </g>
                </g>
            </g>
        </g>
    </g>
</svg>